<svg width="385" height="97" viewBox="0 0 385 97" fill="none" xmlns="http://www.w3.org/2000/svg">
<path d="M10.9233 93.1949C7.1798 90.3485 2.48702 85.7562 0.677347 80.5474C0.158701 78.9273 0.575403 79.6933 0.307494 78.5422C-0.158153 76.2714 -0.150294 73.8656 0.717301 71.6519C1.01436 70.9257 0.903244 71.9218 1.21922 71.1729C3.04504 67.1921 6.14397 64.6928 9.40902 62.7034C12.2951 60.9957 15.2324 59.7436 18.3601 58.611C32.9966 54.4172 47.7092 54.5974 62.4744 53.9903C68.4619 53.8348 75.6352 53.9346 81.8714 53.781C82.5754 53.7629 82.1538 53.5455 82.2876 53.5261C84.3953 53.23 83.6977 53.6821 85.0867 53.7322C90.7061 53.9309 96.7629 53.9575 102.193 53.9043C104.497 53.8816 102.216 53.4277 104.495 53.6896C104.651 53.7074 104.082 53.9381 104.695 53.9675C106.082 54.0334 108.745 54.015 109.842 54.045C111.955 54.1037 112.307 54.1053 114.324 54.1321C117.125 54.1719 120.252 54.3329 123.206 54.3272C123.832 54.3253 123.006 54.0712 124.006 54.0465C125.006 54.0216 127.666 54.088 128.567 54.1614C129.469 54.2346 129.076 54.4167 129.234 54.463C130.505 54.8519 133.55 54.4043 133.944 54.3999C141.132 54.331 147.224 54.7636 153.977 54.9364C159.082 55.0666 164.516 55.122 169.392 55.2771C175.158 55.4618 180.065 55.7429 185.682 55.8985C186.275 55.9152 185.589 55.6103 186.313 55.6302C193.996 55.8418 201.663 56.1286 209.283 56.5802C210.047 56.6257 209.053 56.8404 209.816 56.9007C214.546 57.2665 221.911 58.0135 224.752 57.0304C227.957 57.1845 231.817 57.3634 234.633 57.6802C236.45 57.8842 234.664 58.0926 236.915 58.0558C237.43 58.048 236.77 57.7878 237.542 57.7941C240.789 57.8208 244.298 58.0204 247.447 58.0069C248.087 58.0036 247.92 57.7853 248.102 57.7533C249.602 57.4954 252.222 58.0979 252.771 58.1539C257.065 58.5788 260.04 58.5704 264.068 58.7112C264.998 58.7437 263.908 58.4221 264.803 58.4431C269.464 58.5566 274.039 58.7286 278.643 58.997C279.645 59.0566 278.716 59.2712 279.194 59.3121C281.297 59.4891 281.774 59.0442 283.758 59.2023C284.175 59.2349 283.934 59.4359 284.009 59.461C285.18 59.8544 286.258 59.3771 286.585 59.3753C290.634 59.3378 293.105 59.9359 296.854 59.9561C297.326 59.9584 296.271 59.6686 297.594 59.6911C306.247 59.8335 315.153 60.0861 323.663 60.348C324.924 60.3873 324.023 60.5802 324.103 60.605C325.365 60.9927 326.393 60.4844 326.807 60.4658C330.293 60.3331 333.247 60.738 335.68 60.0902C339.918 60.0839 344.99 59.9602 349.154 59.5214C358.624 58.5033 368.078 55.0849 374.765 48.333C374.889 48.2049 374.86 48.612 375.109 48.3538C377.95 45.1549 377.094 45.4748 378.053 42.8803C378.29 42.2341 379.631 40.5285 379.721 40.3348C380.1 39.7308 380.213 40.537 380.319 40.3258C381.14 38.5216 379.926 38.4882 380.339 36.031C380.352 35.9522 380.531 36.3152 380.583 36.1064C380.746 35.4536 380.715 34.7886 380.818 34.1432C381.023 32.6718 381.663 32.0455 380.938 29.7802C380.819 29.5061 380.305 30.0461 379.744 27.8691C379.604 26.982 377.909 23.339 377.245 22.4412C376.65 21.4795 377.27 21.9931 377.235 21.9217C375.668 19.283 376.417 20.1314 375.725 18.6546C374.952 17.1998 374.494 18.2629 373.96 17.9044C373.443 17.5405 371.855 15.9023 371.437 15.5155C371.042 15.1191 371.686 15.4118 371.314 15.0808C368.731 12.9266 369.79 14.6798 368.812 14.2465C366.463 13.2897 364.997 11.7433 362.82 10.8081C362.234 10.5621 362.656 10.9118 362.12 10.7289C359.936 10.0085 358.76 9.39621 356.199 9.0035C355.808 8.94079 353.634 8.94886 352.414 8.40495C352.238 8.32558 352.798 8.21962 351.866 8.02358C351.191 7.88337 350.234 7.71753 349.223 7.58611C348.319 7.46567 347.277 7.36086 346.452 7.31362C345.255 7.24643 346.614 7.69669 345.081 7.45356C344.38 7.3455 345.711 7.27719 344.38 7.08981C343.335 6.92531 340.32 6.69604 339.028 6.61359C337.77 6.53126 338.44 6.82227 338.338 6.83139C337.769 6.88424 335.663 6.86214 335.447 6.84902C325.538 6.25221 316.11 5.44232 306.588 5.21558C305.816 5.19697 306.321 5.47217 306.203 5.47197C303.541 5.48085 305.667 4.87769 303.803 4.58162C304.067 5.11139 302.904 4.97457 301.149 4.97029C300.284 4.96803 300.747 5.18559 300.668 5.20343C299.373 5.46434 298.476 5.03918 298.245 4.95056C297.391 4.62449 296.429 4.944 295.838 4.72601C295.247 4.50953 296.634 4.2622 294.85 4.20805C294.342 4.37783 295.655 4.90663 294.293 4.94162C289.234 5.0735 279.688 4.42211 275.77 4.28401C271.743 4.14057 270.402 4.14321 268.002 4.01826C263.765 3.79681 265.326 4.19452 262.688 4.29962C260.038 4.40555 261.343 3.54698 260.967 3.34771C260.596 3.14875 260.182 3.33604 259.716 3.22103C259.252 3.10609 260.265 2.99832 259.168 2.93515C258.073 2.8718 255.037 3.14755 254.636 3.33909C253.805 3.74492 255.138 4.21547 252.28 4.00181C252.116 3.98926 252.655 3.76662 252.025 3.7304C247.043 3.45086 241.628 3.34067 236.665 3.09874C235.973 3.06495 236.596 2.81568 236.194 2.79309C231.989 2.55781 233.485 3.02043 231.161 3.46992C231.691 2.83113 230.419 2.41425 227.192 2.36217C225.284 2.33141 225.608 2.61898 224.368 2.80032C223.997 2.855 222.644 2.64176 222.396 2.77128C221.578 3.19462 222.853 3.69822 219.559 3.45977C219.415 3.44863 219.879 3.21697 219.379 3.19585C216.147 3.05874 215.737 3.50793 212.244 3.5203C209.52 3.53014 204.657 3.19863 201.532 3.12245C201.606 2.39537 198.647 2.53264 197.454 3.02344C195.434 2.98397 193.25 2.99316 191.295 2.90775C190.622 2.87859 191.066 2.67155 190.982 2.64809C189.683 2.28039 188.799 2.7617 188.362 2.77747C183.63 2.92732 179.765 2.53257 175.251 2.87019C175.09 2.8824 174.828 3.38637 173.624 3.01132C173.547 2.98551 175.037 2.76285 172.916 2.73468C170.806 2.70643 166.772 2.41881 163.824 2.64439C163.109 2.69855 161.303 3.10378 159.859 2.78001C159.667 2.73604 159.878 2.59155 159.6 2.51027C158.703 2.25128 158.212 2.76117 157.159 2.32532C156.116 1.88956 153.878 1.56087 150.9 1.85907C150.805 1.86774 150.099 2.27234 149.163 2.2659C147.669 2.25518 145.556 2.17187 144.008 2.17625C143.267 2.17849 143.742 2.4294 143.613 2.43414C138.584 2.5815 134.959 2.36662 129.643 2.29218C128.691 2.27785 125.786 2.6349 123.878 2.37534C121.777 2.09168 123.912 0.842353 119.116 1.16933C117.194 1.30086 114.764 2.88522 111.215 2.10716C104.484 2.37211 98.0874 2.03624 91.4264 2.43194C91.1291 2.44949 90.1925 2.90212 89.443 2.90909C88.3517 2.91821 87.7538 2.72463 86.9827 2.7252C83.7328 2.72313 80.9451 2.95466 77.8461 2.99751C76.6474 3.01506 77.0587 2.7941 75.6415 2.81583C74.231 2.83812 73.3023 3.13907 71.435 3.05368C69.9958 2.9894 68.7299 2.45502 66.7187 2.44783C66.6636 3.01073 65.3072 3.03783 63.0003 3.26028C62.5578 3.30336 63.0396 3.48302 62.8306 3.51347C61.9811 3.64171 61.1953 3.50619 60.4068 3.64294C60.215 3.67588 60.2128 3.86759 60.0568 3.90534C58.7761 4.23137 56.4417 3.88767 56.0303 3.82905C54.4912 3.60371 53.8047 3.8813 52.6669 3.81684C51.537 3.75267 53.2114 3.54086 51.8972 3.52899C49.3336 3.49697 45.4719 3.71511 42.8096 3.86005C41.7342 3.91945 42.4825 4.13255 42.3289 4.14697C40.2491 4.33024 37.513 4.23971 36.3851 4.83399C34.6684 3.64425 35.2889 5.02865 31.6906 5.07673C31.4252 5.07966 31.0215 4.49018 32.0465 4.30664C32.5563 4.21565 33.2578 4.18183 33.9673 4.14434C34.5897 4.11375 35.274 4.07413 35.9403 3.95366C36.2435 3.8964 38.084 3.18296 38.3571 3.13059C40.4175 2.71813 40.8432 3.62871 40.9218 3.67423C42.0676 4.15577 44.2787 3.40325 44.8936 3.32811C47.7107 2.97965 50.0975 3.00177 52.3304 2.76412C53.8289 2.60894 53.958 1.99412 55.1699 1.96457C59.3836 1.86372 60.4362 2.68001 64.2332 1.82069C65.0434 1.63861 64.1935 0.996387 67.162 1.43244C67.3955 1.4584 69.4542 1.87889 70.6549 1.54387C70.8054 1.50161 70.7953 1.30767 70.995 1.28603C72.336 1.14495 73.2453 1.27638 74.7413 1.16568C76.2159 1.05553 78.1385 0.900774 79.7666 0.931522C80.7621 0.949261 82.0613 1.28421 82.5478 1.36299C83.9184 1.59028 85.3952 1.14378 86.2647 1.43667C87.1425 1.73108 85.4435 2.23353 87.7385 2.39252C87.8146 1.8867 88.001 1.36561 88.1292 0.856022C93.162 0.784883 97.8772 0.879227 102.984 0.795051C103.588 0.784521 102.966 0.52079 103.615 0.502565C106.356 0.42712 108.783 0.594714 111.698 0.490511C113.964 0.40877 116.437 0.101245 118.739 0.0122269C120.159 0.578758 123.625 0.35996 126.176 0.399577C127.069 0.41312 127.01 0.567603 127.647 0.614723C130.05 0.789222 128.909 0.284742 129.561 0.201466C132.321 -0.15283 132.561 1.00039 135.846 0.961674C136.02 0.959914 138.153 0.338922 138.449 0.300057C140.323 0.0460307 138.759 0.513477 139.934 0.556502C142.091 0.63545 143.554 0.780307 146.04 0.598357C146.765 0.544463 148.508 0.160257 149.924 0.457283C150.11 0.49617 150.007 0.699539 150.157 0.711486C152.873 0.911039 152.947 0.272441 154.505 0.0575961C156.076 -0.157133 158.449 0.288426 158.936 0.416687C160.205 0.748279 157.963 0.555236 157.894 0.587495C157.087 0.970181 158.823 0.907058 160.154 0.94267C160.345 1.56966 162.207 1.53679 161.534 0.977178C161.457 0.916018 160.421 0.971884 160.154 0.94267C161.323 0.330535 163.371 0.257043 165.637 0.839316C166.698 1.1124 165.691 1.42218 168.921 1.31991C170.386 1.27409 169.828 0.840273 171.114 0.728271C174.053 0.472785 177.878 0.895818 180.918 0.851775C182.022 0.835769 180.949 0.592732 181.703 0.573695C183.705 0.522554 185.468 0.712102 187.477 0.636403C187.659 0.629252 187.216 0.378662 187.841 0.380235C192.581 0.387739 196.683 0.582176 201.64 0.636485C204.034 0.662348 208.306 0.572713 210.77 0.629579C215.034 0.725503 220.36 1.15519 223.996 1.12014C226.373 1.0984 225.854 0.843801 226.873 0.690267C228.861 0.392743 232.375 1.03294 232.841 1.13122C232.856 1.13437 230.792 1.16008 231.891 1.30438C232.526 1.57896 232.817 1.132 232.841 1.13122C233.153 1.19433 237.252 1.31781 238.059 1.28475C238.499 1.26642 238.257 1.02797 238.487 1.02285C243.948 0.906604 249.541 0.952077 255.03 1.17513C255.129 1.18192 254.974 1.44083 255.208 1.45353C258.478 1.63802 260.554 1.36281 263.203 1.23208C265.849 1.10161 267.901 1.21416 269.518 1.7033C271.559 1.69582 274.437 1.96737 276.072 2.13086C277.708 2.29428 277.945 1.79057 278.089 1.78426C282.588 1.58184 285.377 1.95266 289.978 2.13729C292.092 2.22311 296.786 2.29932 299.137 2.32457C301.059 2.34522 302.065 2.50014 303.929 2.49083C304.176 2.48956 303.935 2.25354 304.011 2.24753C306.049 2.04988 305.052 2.56931 305.466 2.6837C306.955 3.0999 307.88 3.32617 310.372 3.25448C310.963 3.23881 312.58 2.50357 313.687 2.50291C315.126 2.50365 314.576 2.76721 316.061 2.76125C316.186 2.76104 316.171 2.58319 317.074 2.6304C321.126 2.84106 325.85 3.17116 329.983 3.38466C330.543 3.41427 329.843 3.09405 330.649 3.1323C334.878 3.33892 339.05 3.61676 343.01 4.07264C343.918 4.18123 343.33 4.32956 343.522 4.40405C344.525 4.83896 346.783 4.53687 347.008 4.55235C347.947 4.61447 348.792 4.68674 349.559 4.76698C355.599 5.46262 360.638 6.8916 366.781 9.50539C367.138 9.62911 370.336 10.6695 371.283 11.8883C371.361 11.9734 372.296 13.1536 373.478 13.6522C373.553 13.6878 372.98 12.92 374.23 13.9325C375.452 14.928 377.46 16.5662 378.637 18.4872C379.01 19.089 379.631 20.6438 380.959 22.252C381.077 22.3119 383.305 24.9441 383.047 26.3012C382.99 26.5207 382.427 26.4849 383.299 28.8305C383.452 29.2879 383.433 28.3979 383.747 29.6349C384.22 31.5514 384.153 34.1559 384.083 36.579C384.087 36.9927 384.198 38.8878 383.453 40.1822C383.338 40.3817 383.264 39.9167 383.016 40.6258C381.821 43.986 380.018 47.3031 377.578 49.8841C376.709 50.786 376.876 50.1017 375.93 50.9555C374.984 51.823 373.005 53.4212 371.996 54.3311C371.012 55.2286 372.532 54.8394 370.885 56.014C364.473 60.4248 356.966 62.338 349.536 63.0567C348.629 63.142 347.637 63.2181 346.558 63.2882C345.274 63.3663 346.243 63.5039 344.458 63.6091C337.767 64.0084 326.314 64.1697 320.707 63.6955C316.074 63.316 321.928 63.1257 318.366 62.952C316.588 62.8671 314.809 63.4736 314.415 63.4875C310.582 63.6314 307.462 63.2895 304.085 63.3022C303.355 63.304 304.065 63.5763 303.443 63.5749C301.318 63.5723 299.033 63.4032 296.911 63.3706C295.955 63.3564 296.157 63.5575 295.321 63.5209C293.339 63.4357 291.558 63.3053 289.569 63.0662C289.388 63.0444 290.621 62.835 289.106 62.7837C286.612 62.6999 283.641 62.432 280.864 62.5351C280.035 62.5663 279.993 63.0132 278.21 62.6489C277.834 62.5726 278.338 62.0506 276.219 62.4494C275.845 62.5152 272.332 63.0313 270.667 62.5731C270.223 62.4524 269.093 61.9756 268.093 62.0121C267.957 62.0187 268.491 62.2768 267.664 62.2732C264.753 62.2566 261.609 62.126 258.684 62.1025C257.89 62.0962 259.063 62.385 257.88 62.3677C254.647 62.3212 250.435 62.113 247.299 61.9262C246.129 61.8565 246.945 61.6785 246.861 61.6531C245.504 61.2409 244.672 61.7048 244.214 61.7176C241.363 61.7905 239.187 61.4829 236.526 61.4511C235.805 61.4421 236.308 61.6948 236.164 61.7107C234.674 61.8633 235.793 61.4804 234.855 61.4011C232.227 61.1773 229.27 61.0926 226.572 61.0283C225.58 61.0051 226.685 61.3162 225.795 61.2921C220.524 61.1549 215.143 60.9418 209.993 60.6153C209.032 60.5537 209.645 60.3648 209.446 60.3101C208.081 59.9281 206.044 60.3162 205.577 60.344C203.454 60.4709 202.637 60.2579 200.762 60.2297C191.601 60.0943 180.316 59.6103 171.692 59.2808C160.441 58.8525 151.692 58.4191 141.005 58.2304C140.318 58.2181 141.004 58.5124 140.412 58.5055C132.799 58.4045 125.311 58.1555 117.763 58.1319C117.147 58.1295 118.031 58.4061 117.042 58.4114C115.007 58.424 112.34 58.3777 110.275 58.2724C109.263 58.2214 110.623 58.0082 109.604 57.9616C107.215 57.8529 104.786 57.8144 102.282 57.842C101.23 57.8546 102.815 58.1341 101.449 58.1296C92.2146 58.1088 83.3972 58.1733 73.96 57.9799C73.33 57.9667 72.7655 57.4262 71.4454 57.5576C71.3489 57.7121 71.3579 57.8914 71.3178 58.0553C57.9596 58.4507 44.8255 58.6455 31.5595 60.3264C31.0159 60.4001 31.99 60.5589 30.946 60.7037C27.2701 61.2246 23.1086 61.9985 20.0268 63.0851C17.8294 63.8749 15.7835 64.6921 13.7701 65.6343C13.2213 65.9033 13.1939 65.3007 11.7477 66.2483C11.4399 66.4181 9.32641 67.9415 8.90133 68.4968C8.84771 68.5656 9.33872 68.4579 8.74253 68.9786C5.05084 72.0784 4.04856 76.2652 6.38728 80.4826C6.73687 81.146 6.11665 80.5775 6.37204 81.0551C8.26343 84.5033 11.8259 87.51 14.8698 90.0912C16.9394 91.8069 15.8904 91.5749 16.8559 92.7653C16.9635 92.9196 18.43 93.8735 18.3569 94.1163C18.2175 94.7763 17.1434 94.9256 17.08 95.6826C17.0084 95.8277 19.2351 96.9506 17.7921 96.5154C17.7117 96.5042 16.1608 95.6804 15.7277 95.5295C15.4268 95.4303 15.7264 95.9352 15.1805 95.7011C14.6137 95.4503 14.1855 94.9021 13.2798 94.4044C12.3991 93.9138 12.5677 94.4274 10.9233 93.1949ZM283.517 2.87244C285.057 3.16127 285.31 2.27089 283.632 2.43789C283.551 2.44703 283.438 2.85817 283.517 2.87244ZM97.9285 1.55965C99.951 1.92753 101.344 1.32823 99.9033 1.04115C98.4656 0.754668 97.3134 1.44828 97.9285 1.55965ZM77.1764 2.22489C79.5938 2.48217 79.9505 1.20178 77.3679 1.51718C77.2183 1.53514 77.0357 2.21001 77.1764 2.22489ZM11.3965 88.7647C11.4042 88.7921 12.32 89.5831 12.3587 89.5949C13.0337 89.792 11.1951 88.2091 11.3965 88.7647ZM56.5593 3.1535C57.3633 3.29458 59.4052 3.02223 58.5149 2.8402C57.8436 2.69148 55.5891 2.97616 56.5593 3.1535ZM362.918 10.3766C362.938 10.3963 363.746 10.7305 363.757 10.6552C363.799 10.4049 362.626 10.0214 362.918 10.3766ZM21.5029 5.97962C26.7046 4.99444 29.8505 5.85242 24.3854 6.43267C23.9436 6.49217 24.3945 6.3336 24.854 6.17166C25.3129 6.00979 25.7685 5.84419 25.1404 5.88484C24.5611 5.9248 24.1401 5.99921 23.6307 6.11777C23.0213 6.25383 22.5014 6.40991 22.0353 6.56187C21.5673 6.71461 21.1662 6.8593 20.7756 6.98455C20.1017 7.19263 19.5967 7.38856 19.3314 7.50738C19.2504 7.55886 19.2328 7.21829 19.9702 6.75631C20.1468 6.64466 20.3585 6.53092 20.5897 6.42293C20.747 6.33706 20.8537 6.27183 20.9811 6.20735C21.2254 6.08147 21.4406 5.9918 21.5111 5.9762C21.5084 5.97734 21.5056 5.97849 21.5029 5.97962ZM284.377 3.97507C284.409 3.98777 285.643 4.03454 285.672 4.02367C286.349 3.75818 283.863 3.66376 284.377 3.97507ZM372.625 50.7724C372.59 50.8102 370.361 52.5546 370.285 52.6003C369.389 53.9033 373.953 50.3615 372.625 50.7724ZM201.483 3.10255C200.134 3.37548 198.523 3.39366 197.461 3.02387C198.79 3.05541 200.139 3.07134 201.483 3.10255Z" fill="black" fill-opacity="0.28"/>
</svg>
