<svg width="669" height="311" viewBox="0 0 669 311" fill="none" xmlns="http://www.w3.org/2000/svg">
<path d="M19.599 299.762C14.4554 292.751 8.82042 282.751 5.68414 274.56C4.70651 272.02 5.36243 273.245 4.72266 271.469C3.49912 267.983 2.40622 264.715 1.62207 261.121C1.37031 259.934 1.95579 261.345 1.69249 260.106C0.286939 253.302 -0.40932 246.645 0.251632 239.558C1.79788 220.15 14.6672 203.715 29.9666 193.34C43.2445 184.821 59.0348 182.534 74.4157 180.237C85.5701 178.71 99.6906 177.8 110.939 177.114C112.3 177.03 111.477 176.853 111.735 176.821C115.81 176.334 114.474 176.849 117.181 176.784C127.557 176.549 139.495 176.302 149.438 176.132C153.766 176.06 149.413 175.652 153.794 175.87C154.099 175.885 152.993 176.126 154.19 176.145C156.959 176.184 161.962 176.139 164.009 176.165C167.971 176.215 168.633 176.216 172.433 176.248C177.704 176.297 183.755 176.496 189.282 176.546C190.464 176.556 188.903 176.286 190.791 176.281C192.676 176.275 197.712 176.405 199.424 176.504C201.132 176.602 200.4 176.774 200.702 176.824C203.127 177.247 208.854 176.897 209.605 176.907C223.244 177.089 234.707 177.81 247.534 178.357C257.076 178.765 267.56 179.17 276.653 179.649C287.568 180.224 296.861 180.865 307.464 181.451C308.585 181.513 307.287 181.155 308.657 181.23C323.225 182.038 337.604 182.952 352.107 184.064C353.557 184.176 351.671 184.305 353.119 184.431C361.95 185.195 376.022 186.603 381.337 185.868C387.292 186.301 394.66 186.83 400.02 187.403C403.475 187.772 400.096 187.82 404.352 187.985C405.31 188.023 404.082 187.704 405.518 187.778C411.497 188.087 418.255 188.61 424.239 188.881C425.46 188.935 425.14 188.702 425.488 188.686C428.41 188.568 433.164 189.392 434.199 189.496C442.322 190.304 448.203 190.573 455.568 191.046C457.282 191.156 455.251 190.742 456.94 190.84C465.856 191.362 474.417 191.912 483.141 192.55C485.045 192.691 483.278 192.831 484.187 192.91C488.183 193.255 489.088 192.847 492.855 193.159C493.647 193.224 493.188 193.407 493.332 193.438C495.585 193.923 497.515 193.52 498.149 193.543C505.833 193.808 510.488 194.579 517.607 194.845C518.497 194.878 516.506 194.52 519.003 194.627C535.183 195.311 552.472 196.031 568.315 196.327C570.9 196.371 569.054 196.561 569.217 196.586C571.861 196.977 573.496 196.458 574.3 196.435C580.236 196.277 587.012 196.52 590.836 195.709C593.988 195.577 597.225 195.367 599.986 195.104C602.889 194.836 606.372 194.372 608.831 193.864C629.459 189.911 645.301 173.531 654.276 155.084C654.426 154.779 654.394 155.438 654.693 154.828C658.157 147.37 657.09 148.656 658.449 143.405C658.78 142.103 660.506 138.297 660.631 137.939C661.136 136.683 661.129 138.128 661.277 137.701C662.443 134.162 661.136 134.462 662.16 129.584C662.193 129.432 662.287 130.117 662.392 129.712C662.717 128.453 662.861 127.169 663.149 125.925C663.789 123.073 664.568 122.118 664.688 117.628C664.685 117.061 663.962 117.848 664.319 113.417C664.513 111.651 664.672 103.791 664.586 101.593C664.56 99.3948 664.835 100.894 664.84 100.738C664.861 94.7825 665.075 97.028 665.288 94.0119C665.442 90.9849 664.465 91.9184 664.215 90.726C663.978 89.5257 663.589 85.198 663.464 84.1159C663.36 83.0428 663.738 84.3377 663.616 83.3875C662.71 77.1053 662.564 80.7678 661.972 78.7762C660.491 74.0938 660.158 70.2426 658.699 65.9794C658.299 64.8361 658.477 65.8231 658.083 64.8225C656.466 60.838 655.667 58.3844 653.189 54.17C652.795 53.4788 650.459 50.2984 649.333 48.0143C649.175 47.6883 649.909 48.4286 648.93 46.8952C647.477 44.5823 644.48 40.6827 642.416 38.5874C640.903 37.0422 642.377 39.0529 640.566 37.033C639.747 36.147 641.464 37.5965 639.901 35.9473C638.381 34.2696 633.92 30.5501 632.087 29.3435C630.279 28.092 631.128 28.9835 630.974 28.8938C630.049 28.3278 626.416 26.2675 626.079 26.117C620.546 23.0528 614.869 20.9165 608.886 19.5115C597.094 16.8825 585.898 15.5091 573.51 14.2718C572.117 14.1388 573.018 14.489 572.806 14.4713C567.962 14.0906 571.863 13.7966 568.449 13.2311C568.892 13.7975 566.896 13.5031 563.255 13.2253C561.494 13.0922 562.433 13.3803 562.271 13.3861C559.851 13.4731 558.228 12.9365 557.795 12.8176C556.219 12.3822 554.413 12.5819 553.306 12.2907C552.197 12.0011 554.818 11.924 551.454 11.6506C550.49 11.7586 552.963 12.4481 550.386 12.3172C540.768 11.8131 523.032 10.221 515.401 9.72745C507.56 9.20839 505.231 9.11573 500.802 8.79843C492.766 8.2338 495.69 8.75663 490.608 8.65263C485.466 8.55124 488.007 7.79481 487.288 7.56642C486.606 7.34055 485.838 7.49811 484.978 7.34976C484.12 7.20163 485.996 7.16604 483.966 7.02467C481.943 6.88252 476.295 6.94876 475.543 7.11389C473.964 7.46282 476.518 8.02527 471.004 7.61253C470.686 7.5886 471.73 7.40313 470.512 7.32332C460.829 6.69769 451.099 6.27887 441.398 5.7476C440.101 5.67569 441.272 5.46066 440.517 5.41592C432.627 4.9523 435.429 5.49672 431.054 5.82407C432.054 5.21319 429.672 4.72743 423.569 4.51407C419.905 4.38693 420.482 4.68974 418.16 4.81198C417.46 4.84879 414.914 4.57176 414.446 4.68988C412.901 5.07566 415.306 5.63683 409.093 5.24841C408.82 5.23074 409.697 5.01996 408.754 4.9763C402.644 4.69495 401.891 5.12688 395.23 4.99276C390.099 4.89004 380.908 4.37216 374.978 4.18696C375.121 3.46195 369.513 3.49642 367.265 3.94886C363.451 3.84275 359.32 3.78346 355.618 3.63982C354.343 3.59064 355.185 3.39679 355.025 3.37081C352.567 2.96457 350.889 3.42087 350.06 3.42423C341.081 3.44063 333.816 2.95137 325.254 3.19135C324.95 3.20018 324.452 3.69825 322.171 3.29828C322.024 3.2709 324.851 3.07884 320.829 3.00714C316.802 2.93504 309.216 2.57402 303.636 2.75513C302.286 2.79816 298.87 3.1767 296.138 2.83396C295.772 2.78743 296.174 2.64574 295.645 2.56077C293.935 2.28998 292.996 2.7936 290.989 2.34514C288.983 1.89694 284.802 1.5427 279.18 1.8161C279.001 1.824 277.669 2.22266 275.905 2.20936C273.099 2.18752 269.074 2.09153 266.102 2.08928C264.683 2.08832 265.591 2.34128 265.345 2.34547C255.771 2.47384 249.2 2.25634 238.879 2.20438C237.003 2.19409 231.639 2.56669 228.055 2.3232C224.089 2.05851 228.25 0.784607 219.036 1.16395C215.322 1.31858 210.652 2.93432 204.098 2.21508C191.183 2.60129 179.608 2.41235 166.514 3.05232C165.936 3.08063 164.125 3.56778 162.779 3.60061C160.781 3.64842 159.687 3.477 158.275 3.50664C152.303 3.62794 146.539 4.00221 140.848 4.19667C138.677 4.2722 139.423 4.03064 136.854 4.12347C134.295 4.21776 132.377 4.577 128.79 4.60616C126.066 4.62885 123.348 4.18949 119.852 4.30349C119.71 4.87352 117.492 4.97083 112.915 5.37822C112.058 5.45588 112.989 5.5982 112.585 5.645C110.939 5.83987 109.419 5.76778 107.893 5.97064C107.522 6.01967 107.516 6.21191 107.214 6.26287C104.637 6.70207 100.479 6.54789 99.78 6.52223C96.9289 6.43329 95.514 6.78671 93.3349 6.83795C91.1518 6.89169 94.3889 6.50386 91.8493 6.6301C86.7013 6.883 79.9896 7.49876 74.6686 8.04409C72.5986 8.25745 74.0375 8.36453 73.7417 8.40096C69.7127 8.88388 64.8732 9.19796 62.6015 10.0189C59.3239 9.14704 60.4837 10.3846 53.8269 11.1849C53.3237 11.2486 52.5605 10.7419 54.5071 10.3274C56.6566 9.88374 59.1762 9.70537 61.7561 9.21359C62.3357 9.09633 65.8672 8.05723 66.3924 7.96248C70.4926 7.19391 70.7645 8.11657 71.0388 8.13403C73.237 8.44049 77.5001 7.37915 78.6868 7.22547C84.318 6.48973 88.1783 6.3073 92.6912 5.8177C95.5885 5.50689 95.8421 4.87891 98.1866 4.73158C105.521 4.28937 108.072 4.98732 115.31 3.84238C116.857 3.60183 115.345 3.01024 120.646 3.25943C120.975 3.2747 124.958 3.55479 127.287 3.14404C127.579 3.09218 127.56 2.89868 127.947 2.86442C130.544 2.63908 132.304 2.71577 135.201 2.51936C137.967 2.32883 141.241 2.08823 144.45 2.03536C146.376 2.00302 148.889 2.27659 149.83 2.33305C152.461 2.49733 155.407 1.98421 156.963 2.24503C158.57 2.50611 155.457 3.07282 159.66 3.14554C159.801 2.63671 160.143 2.10854 160.38 1.59408C169.622 1.33731 179.109 1.27474 188.377 1.07537C189.544 1.0499 188.344 0.8014 189.597 0.767312C194.867 0.625909 199.658 0.741628 205.001 0.590223C209.198 0.471228 213.843 0.128391 218.315 0.0112768C221.099 0.559392 227.597 0.306699 232.36 0.330696C234.03 0.338545 233.919 0.493483 235.109 0.536969C239.604 0.698922 237.497 0.200482 238.73 0.114001C244.01 -0.251526 244.579 0.900077 250.72 0.858543C251.045 0.856366 255.057 0.23598 255.612 0.197806C259.133 -0.053614 256.194 0.411476 258.399 0.456551C262.429 0.540144 265.237 0.689948 269.999 0.521615C271.408 0.471725 274.671 0.0982806 277.346 0.406495C277.697 0.446831 277.502 0.649395 277.785 0.66252C282.904 0.884305 283.046 0.247535 285.981 0.0481293C288.918 -0.151051 293.461 0.323719 294.386 0.458519C296.805 0.806546 292.529 0.5845 292.398 0.616217C290.855 0.989076 294.176 0.946796 296.703 1.00056C297.062 1.62987 300.584 1.62318 299.313 1.05409C299.168 0.99178 297.208 1.03327 296.703 1.00056C298.917 0.404053 302.791 0.359416 307.069 0.978771C309.072 1.26974 307.171 1.56104 313.268 1.51578C316.036 1.49672 314.972 1.05243 317.416 0.965016C323.003 0.765863 330.241 1.27217 335.989 1.30267C338.075 1.31368 336.047 1.0443 337.473 1.04383C341.26 1.04237 344.572 1.27783 348.39 1.25814C348.735 1.25608 347.897 0.993081 349.082 1.01214C358.08 1.15349 365.804 1.47589 375.195 1.70451C379.738 1.81398 387.82 1.88521 392.466 2.04191C400.565 2.30892 410.63 2.97487 417.468 3.11364C421.94 3.20549 421.019 2.92834 422.965 2.82547C426.758 2.62636 433.352 3.44898 434.231 3.57279C434.26 3.57648 430.374 3.49412 432.442 3.69597C433.637 4.00396 434.187 3.57235 434.231 3.57279C434.831 3.65168 442.481 3.99564 444.054 4.01167C444.906 4.01911 444.439 3.7664 444.883 3.77474C455.483 3.98121 465.559 4.35465 476.296 4.97568C476.482 4.98926 476.19 5.23768 476.626 5.26637C482.764 5.67772 486.374 5.53925 491.63 5.62364C496.753 5.70244 500.71 5.98685 503.614 6.60243C507.251 6.75097 512.877 7.28457 516.007 7.60049C519.148 7.91629 519.6 7.43565 519.877 7.44279C528.201 7.65265 533.619 8.31329 542.291 9.0079C546.152 9.31489 555.236 9.97356 559.511 10.303C562.858 10.554 565.424 10.9106 568.745 11.1561C569.201 11.1903 568.764 10.9194 568.903 10.9242C572.66 11.0209 570.805 11.3973 571.562 11.5719C574.351 12.219 575.594 12.5298 580.768 12.9391C581.919 13.0286 585.241 12.6127 587.156 12.8073C589.714 13.0716 588.44 13.1938 591.419 13.5191C591.665 13.5473 591.656 13.3644 593.415 13.6168C596.175 14.0152 598.674 14.4123 601.314 14.8756C604.371 15.41 607.142 15.9624 609.56 16.5208C612.363 17.1663 615.021 17.9454 617.621 18.8649C618.718 19.261 617.41 18.4801 618.994 19.0616C626.339 21.7546 633.851 26.3697 639.434 31.5634C640.809 32.8428 639.8 32.2017 640.063 32.5174C641.672 34.4361 644.445 36.6448 644.84 37.0869C654.242 47.4262 658.75 57.3644 663.158 70.6477C663.419 71.3442 665.503 76.9189 665.54 79.5916C665.55 79.776 665.606 82.3926 666.303 84.5994C666.344 84.7367 666.333 83.0996 666.757 85.8891C667.176 88.6613 667.882 93.1741 667.841 97.0477C667.833 98.2798 667.522 101.176 667.914 104.811C667.967 105.037 668.742 110.714 667.991 112.697C667.861 113.018 667.307 112.637 667.26 116.992C667.244 117.826 667.533 116.335 667.403 118.527C667.199 121.883 666.402 126.28 665.86 130.377C665.775 131.089 665.555 134.219 664.623 136.528C664.477 136.889 664.457 136.129 664.108 137.379C662.426 143.352 660.431 149.527 657.667 155.221C656.681 157.222 656.862 156.052 655.766 158.082C654.663 160.15 652.329 164.143 651.122 166.287C649.926 168.419 651.863 166.495 649.848 169.561C641.019 182.846 627.314 193.284 611.527 196.884C609.858 197.267 610.376 197.241 609.567 197.472C609.281 197.554 608.807 197.669 607.875 197.835C595.255 200.111 573.607 200.198 562.67 199.645C554.105 199.181 564.929 199.103 558.34 198.858C555.152 198.737 551.458 199.276 550.719 199.276C543.546 199.289 537.83 198.804 531.24 198.625C529.868 198.587 531.204 198.898 530.034 198.863C526.034 198.743 521.725 198.435 517.714 198.266C515.896 198.189 516.272 198.403 514.693 198.312C510.947 198.095 507.576 197.841 503.806 197.458C503.463 197.423 505.799 197.302 502.929 197.141C498.163 196.875 492.674 196.389 487.36 196.27C485.785 196.235 485.706 196.68 482.317 196.172C481.601 196.065 482.56 195.584 478.531 195.81C477.769 195.843 471.338 196.084 468.103 195.479C467.258 195.321 465.107 194.747 463.204 194.698C462.946 194.693 463.963 194.998 462.388 194.923C456.752 194.65 451.125 194.267 445.459 193.978C443.948 193.902 446.182 194.295 443.928 194.173C437.687 193.834 429.969 193.266 423.959 192.793C421.732 192.617 423.286 192.513 423.126 192.48C420.54 191.944 418.956 192.333 418.083 192.305C412.625 192.117 408.572 191.617 403.625 191.352C402.258 191.278 403.211 191.576 402.938 191.579C400.101 191.597 402.233 191.315 400.447 191.15C395.463 190.689 389.745 190.331 384.742 190.032C382.886 189.922 384.953 190.33 383.288 190.228C373.431 189.628 363.066 188.928 353.457 188.166C351.64 188.022 352.797 187.885 352.421 187.814C349.83 187.313 345.966 187.528 345.08 187.516C341.049 187.462 339.511 187.181 335.974 186.997C318.676 186.097 297.385 184.737 281.021 183.814C259.816 182.619 243.17 181.664 223.022 181.013C221.716 180.971 223.023 181.295 221.898 181.263C207.466 180.841 193.266 180.372 179.076 180.273C177.874 180.264 179.603 180.55 177.674 180.545C173.719 180.538 168.775 180.486 164.887 180.39C162.991 180.345 165.534 180.124 163.627 180.083C159.272 179.988 154.296 179.982 149.683 180.067C147.719 180.104 150.683 180.346 148.134 180.374C130.911 180.588 113.692 181.159 96.2646 182.194C95.058 182.268 93.9479 181.805 91.4506 182.136C91.2761 182.305 91.3027 182.483 91.2355 182.653C70.9154 184.913 49.0532 186.705 32.467 196.896C28.8157 199.449 25.482 202.142 22.4065 205.091C21.6751 205.799 23.1603 204.754 21.7122 206.175C13.4826 214.35 7.7273 224.221 5.48547 235.742C5.28698 236.881 4.79659 236.194 4.50484 239.652C4.40242 240.249 4.26992 245.469 4.49483 246.805C4.52005 246.986 4.71715 246.031 4.79539 247.704C5.28596 257.412 8.22172 267.47 12.2024 276.486C12.8555 277.958 11.9031 276.508 12.3703 277.558C15.6825 284.971 20.4629 292.376 24.9049 298.796C27.8918 303.045 26.4393 301.822 27.7731 304.21C27.8841 304.397 28.4816 305.161 28.9584 305.796C29.5686 306.591 29.9787 307.163 29.9663 307.341C29.7622 308.076 28.2446 307.377 28.1362 308.288C28.1095 308.522 31.1769 311.665 29.1804 309.996C29.0411 309.9 26.7524 307.421 26.2391 306.962C25.8233 306.585 26.2671 307.532 25.4542 306.704C24.6428 305.873 24.0161 304.744 22.8188 303.379C21.5814 301.939 21.8428 302.826 19.599 299.762ZM529.977 9.04985C532.934 9.49914 533.432 8.63452 530.204 8.62674C530.047 8.62745 529.824 9.02732 529.977 9.04985ZM179.011 1.96886C182.747 2.28135 185.321 1.64832 182.661 1.39758C180.006 1.14812 177.874 1.87461 179.011 1.96886ZM139.637 3.45592C144.015 3.59753 144.663 2.30022 139.985 2.7385C139.714 2.76371 139.382 3.4479 139.637 3.45592ZM20.0684 293.874C20.065 293.899 21.3766 295.867 21.4213 295.902C22.3541 296.774 19.7524 292.88 20.0684 293.874ZM100.709 5.80265C102.04 5.88307 105.939 5.43414 104.238 5.32885C102.857 5.24302 99.0369 5.70127 100.709 5.80265ZM659.069 65.7151C659.075 65.7609 659.627 67.347 659.685 67.292C659.883 67.1011 659.02 64.922 659.069 65.7151ZM35.0181 15.5086C44.337 11.9831 50.3703 12.3365 40.2123 14.6646C39.4007 14.8997 40.2278 14.5541 41.0748 14.2199C41.921 13.8859 42.7638 13.562 41.6032 13.8222C40.5138 14.0761 39.8263 14.286 38.7669 14.6623C37.69 15.0476 36.7762 15.4454 35.9605 15.8432C35.553 16.0421 35.1707 16.2411 34.8088 16.4389C34.6279 16.5378 34.452 16.6365 34.2809 16.7347C34.1936 16.7848 34.1167 16.8297 34.0223 16.8848C33.8901 16.9611 33.7616 17.0374 33.6366 17.114C32.6368 17.7281 31.8707 18.3408 31.3759 18.9865C31.2272 19.2289 31.3274 18.4073 32.3958 17.3833C33.6654 16.2332 34.7619 15.638 35.0323 15.5005C35.0275 15.5032 35.0228 15.5059 35.0181 15.5086ZM531.615 10.243C531.676 10.2588 534.04 10.4356 534.094 10.428C535.394 10.2336 530.634 9.87707 531.615 10.243ZM651.666 160.707C651.616 160.826 648.842 165.42 648.727 165.565C647.667 168.233 653.345 158.899 651.666 160.707ZM374.886 4.16533C372.321 4.39047 369.281 4.35422 367.277 3.94948C369.785 4.0248 372.333 4.08659 374.886 4.16533Z" fill="black" fill-opacity="0.28"/>
</svg>
