<svg width="434" height="132" viewBox="0 0 434 132" fill="none" xmlns="http://www.w3.org/2000/svg">
<path d="M17.7466 34.7916C17.5101 35.3545 16.686 37.7417 16.415 38.7893C16.6357 37.5833 18.5585 32.6756 17.7466 34.7916ZM110.112 55.9513C109.25 55.9637 108.367 55.9752 107.458 55.9858C110.029 55.998 113.276 55.9856 115.627 55.9915C116.008 55.9926 115.019 56.0308 115.921 56.0303C116.824 56.0297 116.649 55.981 117.967 55.9713C119.46 55.9626 126.228 55.9623 128.521 55.942C137.296 55.8742 146.014 55.7376 154.844 55.6295C145.756 55.801 154.955 55.7141 157.425 55.6566C157.991 55.6423 157.863 55.5451 166.96 55.4156C172.76 55.3292 167.408 55.5854 177.004 55.3281C169.63 55.3552 176.866 55.2305 182.68 55.109C183.696 55.0889 191.739 54.9396 195.306 54.8558C196.525 54.8276 198.383 54.7254 200.002 54.6874C201.116 54.6613 201.96 54.6762 203.612 54.6371C211.317 54.4547 218.883 54.2716 226.614 54.0958C222.107 54.3719 230.155 54.0816 230.512 54.0805C232.349 54.0819 224.043 54.2955 227.33 54.2446C231.916 54.1291 236.51 54.0118 241.122 53.8934C237.346 53.9654 246.119 53.6253 247.715 53.6419C246.979 53.5052 268.599 53.2599 271.985 53.1295C272.661 53.1022 268.203 53.1302 278.586 52.9171C279.705 52.8944 279.282 52.9528 279.868 52.9344C280.213 52.9237 282.345 52.7187 284.674 52.7497C285.499 52.7624 280.185 52.9845 291.917 52.6755C287.211 52.6204 308.244 52.2255 312.012 52.2019C311.221 52.1956 310.437 52.1894 309.692 52.1828C313.502 52.1652 314.253 52.097 315.108 52.0835C318.657 52.0278 323.147 52.0038 326.526 51.9451C330.359 51.879 330.383 51.7754 334.711 51.7555C333.69 51.7466 332.66 51.7384 331.621 51.731C334.641 51.6925 337.571 51.6593 340.732 51.6303C333.515 51.85 342.31 51.6173 342.831 51.6119C343.729 51.5982 342.442 51.6665 343.939 51.6452C344.09 51.6429 343.881 51.5911 346.154 51.5658C350.778 51.5174 350.283 51.5911 352.296 51.5796C352.476 51.5791 351.853 51.5311 355.356 51.5096C366.263 51.4695 355.332 51.5405 354.875 51.554C354.271 51.5683 358.276 51.7399 348.534 51.7219C351.824 51.7231 352.142 51.8127 352.508 51.8127C352.865 51.8104 358.316 51.7867 358.572 51.7866C361.221 51.7589 358.864 51.6961 359.388 51.6858C359.879 51.6722 366.688 51.7819 368.092 51.6216C371.063 51.8274 366.52 51.7416 360.926 51.755C360.152 51.7842 366.127 51.8453 366.373 51.8523C373.773 51.9317 369.759 51.7528 371.404 51.6844C372.323 51.6507 375.409 51.8055 372.543 51.627C379.348 51.7538 375.203 51.7426 375.662 51.7606C375.984 51.7761 376.718 51.789 377.388 51.8013C378.104 51.8145 378.884 51.8314 379.031 51.8386C379.499 51.8609 377.87 51.8509 379.713 51.9266C380.019 51.9389 382.922 51.9683 379.165 51.8007C384.208 51.9907 383.47 51.9205 385.215 52.1352C388.853 52.1122 387.765 52.4432 389.069 52.5543C389.656 52.6092 390.086 52.6483 390.412 52.6741C392.184 52.8253 391.511 52.6301 391.67 52.6376C392.969 52.6031 402.751 54.2462 405.113 54.9804C404.109 54.7935 397.459 53.315 395.877 53.1778C390.803 52.4925 402.966 54.4104 399.284 53.9845C400.826 54.219 402.41 54.5035 403.892 54.8098C406.689 55.6716 402.745 54.4924 410.185 56.7275C411.438 56.9902 404.926 55.1392 406.247 55.4716C406.995 55.5871 411.36 56.9752 411.401 57.0032C411.529 56.988 407.612 55.7568 408.229 55.9202C409.705 55.8888 423.473 62.111 412.935 57.5832C415.476 58.5804 416.908 59.4129 418.858 60.4536C419.153 60.6136 419.457 60.7791 419.775 60.9527C420.361 61.2766 419.535 60.7389 418.914 60.35C418.382 60.0174 418.03 59.782 418.968 60.2504C419.832 60.7415 421.945 61.644 425.639 64.7744C425.939 64.9614 420.618 61.0274 420.422 61.0814C420.219 60.9701 421.097 61.7297 421.278 61.861C421.578 62.1018 425.135 64.132 428.208 67.6834C431.414 71.0845 432.894 76.4987 432.735 78.3738C432.721 77.5889 433.173 81.1211 431.715 84.5761C430.379 88.0555 427.504 90.8314 427.009 91.3101C426.731 91.5961 427.843 90.6033 427.545 90.9067C425.786 93.0539 419.716 96.6748 416.757 97.7251C413.459 99.0393 413.898 98.8514 413.71 98.9378C412.219 99.4319 413.401 98.9985 412.479 99.2962C411.192 99.9094 401.698 101.846 401.162 101.783C401.025 101.804 402.603 101.656 400.514 101.955C400.197 101.984 400.387 101.966 396.551 102.331C395.977 102.382 395.269 102.44 394.363 102.503C388.078 102.88 395.622 102.54 396.564 102.478C396.831 102.466 396.879 102.474 396.567 102.514C396.503 102.523 396.42 102.533 396.316 102.545C391.907 102.754 391.497 102.832 390.473 102.878C390.175 102.889 386.617 102.92 383.192 102.977C385.432 102.926 388.577 102.83 390.826 102.716C388.566 102.806 383.334 102.942 381.438 102.938C380.421 102.94 381.284 102.85 379.021 102.873C378.493 102.874 376.74 103.105 382.484 102.945C382.941 103.011 380.255 103.002 378.908 103.031C378.75 103.035 377.779 103.163 376.299 103.094C375.824 103.068 380.302 102.745 369.231 102.975C368.864 102.981 370.141 103.03 369.782 103.038C369.486 103.044 366.756 103.01 366.474 103.013C366.17 103.017 367.466 103.074 367.105 103.081C365.256 103.115 362.774 102.906 366.642 102.952C365.364 102.92 364.059 102.885 362.726 102.848C364.149 103.004 360.646 102.867 358.712 102.845C347.233 102.702 354.915 102.907 352.937 102.924C349.672 102.943 352.175 102.75 347.272 102.73C346.811 102.726 352.572 102.949 341.385 102.66C343.064 102.692 344.718 102.723 346.345 102.751C345.431 102.6 340.376 102.636 339.962 102.628C335.461 102.544 338.379 102.566 331.904 102.477C331.32 102.469 330.044 102.404 328.775 102.388C323.525 102.321 335.679 102.604 335.917 102.659C336.181 102.696 323.054 102.356 322.602 102.326C320.671 102.22 328.586 102.461 327.08 102.353C326.4 102.32 307.872 101.85 304.218 101.706C299.92 101.546 297.935 101.313 297.906 101.505C296.664 101.278 295.613 101.374 295.069 101.356C288.482 101.133 288.456 101.13 282.686 100.964C281.416 100.927 280.385 100.837 279.938 100.833C279.681 100.83 280.16 100.905 278.9 100.883C277.188 100.853 266.464 100.442 265.728 100.385C264.934 100.327 270.208 100.518 269.268 100.434C265.42 100.303 261.84 100.199 257.98 100.067C256.382 100.012 257.204 100.002 256.513 99.9789C256.22 99.9689 250.679 99.8192 250.93 99.8405C251.473 99.8894 268.493 100.427 264.008 100.345C263.151 100.329 260.109 100.144 260.59 100.263C245.37 99.7373 230.22 99.2104 215.022 98.7075C223.741 98.9139 233.541 99.2949 242.712 99.5898C243.969 99.6301 248.195 99.7788 247.682 99.7114C239.91 99.4436 230.258 99.1536 222.78 98.8834C222.541 98.8747 223.421 98.8599 222.524 98.8246C220.847 98.7586 215.413 98.6548 214.496 98.6085C214.34 98.5995 217.438 98.6415 216.497 98.5766C214.083 98.4109 213.463 98.5912 211.384 98.5234C209.778 98.4693 198.965 98.045 196.277 98.0248C193.414 97.9999 204.239 98.301 203.439 98.3292C196.109 98.1545 188.704 97.8789 181.773 97.6886C181.651 97.6852 182.708 97.7532 181.166 97.7144C178.482 97.6471 177.782 97.5748 176.479 97.5303C175.096 97.4824 170.056 97.3537 169.398 97.318C169.313 97.3134 170.326 97.2893 170.48 97.2919C172.66 97.3285 173.437 97.4165 173.636 97.4228C174.383 97.4456 175.118 97.4399 175.79 97.4599C176.9 97.4929 177.511 97.5338 178.98 97.577C179.993 97.6069 179.016 97.5331 179.993 97.5625C180.351 97.5728 184.224 97.7906 184.59 97.6911C184.705 97.6414 153.007 96.7679 149.818 96.7467C152.527 96.8191 155.253 96.8947 157.992 96.9731C152.42 96.8086 145.842 96.7411 145.384 96.6193C124.956 96.1804 104.405 95.8601 83.9025 95.9455C80.2463 95.961 82.2549 95.8903 76.3106 95.9638C77.9099 95.9609 79.3581 95.9642 80.9108 95.969C77.9757 95.9541 64.3429 96.1489 61.9533 96.2509C61.672 96.261 61.2297 96.305 57.8738 96.412C54.9545 96.5093 54.4194 96.5064 52.7502 96.5682C51.3515 96.621 49.8315 96.698 49.4339 96.7157C49.1281 96.7291 49.0042 96.7192 48.2761 96.7527C45.9993 96.8616 47.8313 96.8069 45.6069 96.8796C46.1429 96.8477 46.6848 96.8164 47.2323 96.7859C44.5876 96.9125 40.3526 97.1722 44.7357 96.8856C45.4924 96.8389 44.8423 96.8915 45.409 96.8584C66.3955 95.9022 49.4716 96.5267 42.1687 97.0516C40.3294 97.0921 29.7036 98.1061 29.5253 98.1992C29.0016 98.2621 30.933 97.9967 28.4015 98.3155C28.2261 98.3389 26.3908 98.5833 24.5601 98.9046C22.6202 99.2299 20.1435 99.8098 19.1577 100.116C17.9109 100.488 17.5551 100.594 19.1544 100.105C19.1628 100.103 19.1713 100.1 19.1798 100.097C19.6014 99.968 21.266 99.5016 23.5149 99.0788C25.3894 98.7209 27.4313 98.4311 28.3125 98.3115C27.1248 98.4622 25.547 98.6945 24.0455 98.9693C22.2666 99.2919 20.4179 99.7211 19.154 100.104C16.9113 100.776 15.4545 101.302 14.9835 101.468C11.102 102.831 22.3425 98.8894 13.6793 101.919C7.16317 104.617 13.2958 102.051 10.7861 103.138C10.1136 103.439 7.95003 104.433 6.14242 105.625C4.3671 106.749 2.99668 108.161 3.08035 108.099C2.15377 109.075 2.03932 109.334 2.034 109.316C2.04045 109.301 2.23528 109.042 2.12962 109.18C2.02868 109.322 1.12344 110.435 0.69572 111.947C0.218956 113.453 0.484088 115.251 0.745821 116.059C0.801338 116.26 0.620025 115.631 0.675937 115.838C0.715243 116.039 1.12256 117.381 1.83909 118.557C2.5357 119.754 3.41784 120.782 3.47912 120.858C3.56109 120.967 2.79047 119.99 3.10923 120.391C3.37149 120.939 6.98027 124.436 7.2524 124.546C7.46947 124.884 3.0528 120.555 3.82512 121.24C5.6601 123.443 9.37441 126.279 10.9582 127.313C10.5597 127.063 8.32225 125.44 7.5892 124.812C7.88881 125.166 12.7768 128.569 11.1026 127.411C12.1758 128.127 11.4352 127.632 12.0512 128.036C12.214 128.149 13.775 129.127 14.0757 129.298C14.1219 129.333 12.4934 128.324 12.8232 128.526C13.3757 128.943 18.2571 131.682 18.6868 131.826C19.8397 132.417 15.7773 130.334 15.4563 130.105C15.421 130.114 18.8406 131.938 18.888 131.924C19.0932 132.065 15.2749 130.037 15.7155 130.255C16.6095 130.759 17.6096 131.292 18.5313 131.75C14.7875 130.006 8.48417 125.755 7.06495 124.394C11.7229 128.328 17.4622 131.191 17.4505 131.2C17.4537 131.216 15.1223 129.941 15.2281 129.989C15.5579 130.208 18.8114 131.92 18.9084 131.934C19.0541 132.004 19.0478 132 19.0466 132C19.075 132.077 14.4513 129.599 14.2457 129.422C13.8628 129.204 15.8649 130.363 15.8808 130.362C15.7707 130.327 12.6174 128.46 13.6838 129.095C14.7622 129.772 17.5883 131.295 17.7226 131.346C18.2161 131.651 13.2961 128.931 13.1602 128.781C13.0997 128.762 15.6852 130.278 15.7981 130.322C15.8317 130.348 13.8647 129.233 13.0663 128.73C12.4853 128.378 14.1894 129.415 13.8878 129.23C13.6245 129.137 9.17574 126.21 8.99161 125.993C8.67536 125.762 9.68597 126.505 9.53962 126.397C9.31704 126.249 7.94841 125.211 8.12625 125.343C8.19649 125.534 13.7622 129.261 13.7806 129.176C13.6741 129.174 7.7293 125.324 13.2842 128.884C13.3333 128.919 14.7004 129.723 14.7546 129.749C15.6204 130.236 11.1114 127.701 16.6259 130.784C6.49132 124.874 15.3328 130.107 13.838 129.226C13.2247 128.917 9.43639 126.426 9.43843 126.376C9.7954 126.641 10.9932 127.457 11.407 127.722C11.6199 127.9 8.27325 125.564 9.02834 126.089C9.38641 126.409 13.0115 128.781 13.169 128.834C14.6545 129.724 12.8334 128.638 13.1573 128.831C13.3872 128.986 15.6122 130.259 15.6988 130.294C15.7765 130.357 12.7075 128.597 12.1019 128.185C11.6267 127.891 13.4082 128.996 13.0744 128.788C11.0517 127.616 6.96286 124.663 10.9342 127.438C11.1745 127.607 12.7262 128.587 12.7694 128.606C13.7223 129.198 10.8752 127.437 10.3785 127.071C9.50926 126.503 13.5544 129.175 10.1969 126.952C12.6944 128.63 14.1582 129.511 17.2704 131.133C8.72715 126.426 5.95593 124.281 15.1828 130.025C12.1847 128.324 12.5379 128.474 11.6534 127.932C11.0833 127.64 7.02984 124.69 8.87785 126.053C9.0972 126.242 11.6286 127.94 10.834 127.41C4.86479 123.191 10.6781 127.368 10.7086 127.329C10.7026 127.28 6.78279 124.963 3.49698 121.322C1.87252 119.515 0.487057 117.272 0.128897 115.126C-0.268938 112.983 0.409654 111.245 0.731635 110.563C2.35434 107.234 5.32197 105.531 5.88037 105.091C7.00483 104.352 7.06578 104.349 6.95914 104.41C6.85083 104.479 6.52452 104.685 6.76828 104.536C7.11266 104.118 13.7624 101.01 14.1315 100.996C15.4941 100.487 14.1146 101.022 14.2582 100.969C15.0014 100.691 16.6258 100.084 18.9307 99.3677C20.3184 98.9248 22.4039 98.4353 24.0891 98.1134C25.6038 97.8172 27.082 97.582 27.9365 97.4539C27.7441 97.4423 22.5645 98.3659 25.7922 97.7706C27.7159 97.4291 28.8814 97.2794 29.4915 97.2032C30.0753 97.1327 30.1099 97.1426 30.1681 97.1358C48.1644 94.8876 66.3647 94.4977 84.5565 94.1076C84.2978 94.0496 72.5076 94.3568 72.1686 94.3751C70.599 94.3495 90.8138 93.9096 93.1391 93.9399C91.2699 93.9515 89.5241 93.9656 87.5571 93.9858C90.8159 93.8717 97.7001 93.8636 102.475 93.8077C103.948 93.7881 101.1 93.7841 101.14 93.7825C102.881 93.744 105.458 93.7465 103.496 93.7928C107.53 93.7356 106.944 93.7752 110.086 93.7662C110.25 93.7659 108.892 93.7433 111.392 93.7243C112.581 93.7134 118.815 93.7076 119.614 93.685C119.951 93.6738 116.836 93.5666 116.457 93.6606C109.628 93.6273 114.272 93.7054 111.621 93.7092C111.227 93.7116 112.108 93.6507 105.542 93.7093C106.763 93.61 114.414 93.6473 115.77 93.6389C118.495 93.6078 107.244 93.5896 105.289 93.6794C106.228 93.6053 104.512 93.674 102.079 93.6907C99.3125 93.7105 100.518 93.6809 99.0308 93.6947C94.9903 93.7364 96.659 93.763 93.3737 93.7635C96.5429 93.8468 87.8467 93.8509 85.1295 93.8796C89.4926 93.7925 93.481 93.7278 97.752 93.6754C97.5095 93.6713 97.2674 93.6672 97.0256 93.6632C98.1395 93.6516 99.2605 93.641 100.389 93.6316C100.208 93.6398 100.027 93.6481 99.847 93.6563C105.637 93.5607 106.905 93.6084 107.396 93.6052C113.422 93.5768 120.302 93.5692 126.397 93.5854C127.288 93.5889 126.773 93.5323 133.32 93.5998C135.42 93.6231 133.434 93.6526 135.82 93.6599C138.814 93.5676 138.762 93.6558 139.656 93.6622C142.225 93.6802 143.811 93.6657 144.05 93.6672C147.201 93.6877 151.786 93.7359 155.28 93.7707C155.346 93.7709 153.533 93.7146 155.797 93.7502C156.616 93.7613 163.677 94.004 169.896 94.0443C168.278 94.0094 166.663 93.9757 165.053 93.943C166.935 93.9792 180.282 94.1423 177.017 94.0469C175.054 93.9886 170.13 94.0228 169.607 93.9134C174.079 93.9932 198.483 94.3688 200.394 94.442C200.657 94.4509 199.036 94.4563 199.4 94.468C199.68 94.4765 205.284 94.5781 206.028 94.6081C206.471 94.6255 203.994 94.5984 204.195 94.6159C204.372 94.6281 211.365 94.7885 211.766 94.75C210.048 94.7326 205.221 94.6175 207.754 94.6296C208.079 94.6312 209.766 94.6963 210.162 94.6983C213.835 94.7154 202.863 94.5049 201.164 94.4734C208.068 94.5468 218.695 94.8402 226.699 94.9791C229.928 95.0923 221.909 94.9354 225.563 95.0508C233.137 95.2924 227.581 95.0388 227.817 95.039C229.703 95.0381 236.086 95.4115 236.091 95.2389C238.827 95.3283 237.953 95.3301 241.834 95.3982C241.324 95.3741 240.813 95.35 240.302 95.3259C244.636 95.3235 253.665 95.7999 252.998 95.8054C251.164 95.8139 246.455 95.6169 246.046 95.6094C245.444 95.5987 243.798 95.7356 237.211 95.4212C234.516 95.4746 247.636 95.7509 241.667 95.6888C245.682 95.7698 262.242 96.2673 264.59 96.2723C264.871 96.2722 263.567 96.1147 267.612 96.2791C269.554 96.3581 264.892 96.2431 265.778 96.2937C268.544 96.4518 305.698 97.33 312.69 97.4709C313.154 97.4814 312.983 97.5193 313.439 97.5294C314.85 97.5611 319.891 97.611 322.299 97.6814C317.231 97.4941 327.135 97.7015 329.716 97.7592C333.545 97.8482 333.287 97.9178 334.913 97.9648C341.421 98.1543 351.294 98.1226 356.218 98.3416C355.801 98.1701 364.99 98.5114 368.767 98.5104C372.127 98.52 376.567 98.3821 372.353 98.3278C377.672 98.3224 383.263 98.238 388.61 98.0371C389.427 98.0048 388.315 98.0994 389.689 98.0409C389.808 98.0347 389.996 97.9789 391.106 97.9217C393.906 97.7763 395.282 97.6551 396.134 97.5852C399.163 97.303 396.735 97.612 398.151 97.4869C399.197 97.3872 399.925 97.2977 400.492 97.2213C399.1 97.4198 397.644 97.59 396.146 97.7267C392.002 98.0982 387.622 98.2119 386.183 98.2582C387.209 98.2964 392.208 98.1466 396.15 97.7717C398.816 97.5239 401.125 97.1717 402.398 96.9696C402.512 96.952 402.126 97.0784 402.242 97.0599C402.244 97.0595 402.247 97.0591 402.249 97.0587C403.443 97.0017 411.186 95.0428 409.558 95.3498C409.144 95.4516 405.605 96.4591 401.362 97.0925C402.529 96.8965 401.645 96.9642 401.851 96.9291C404.272 96.5861 410.296 95.2061 412.284 94.4314C412.749 94.2714 412.698 94.24 412.774 94.2132C414.557 93.558 413.912 93.957 415.682 93.0584C417.26 92.4137 415.877 93.1165 413.955 93.8679C412.151 94.5853 409.811 95.2593 410.191 95.2C410.404 95.1582 416.182 93.6105 420.78 90.4608C425.63 87.4365 427.64 82.5417 427.446 82.5924C427.48 82.5322 427.601 82.2796 427.772 81.7512C427.969 81.1796 428.326 79.5141 428.119 77.8813C427.956 76.2488 427.273 74.7024 427.057 74.2865C426.983 74.14 426.901 74.2521 426.81 74.0703C426.703 73.8435 425.866 72.1436 424.399 70.5061C422.974 68.8495 420.891 67.2351 419.741 66.5103C420.953 67.3591 422.121 68.3014 423.192 69.3523C419.906 66.3295 417.976 65.5182 417.69 65.3031C417.332 65.1163 418.287 65.6589 419.554 66.5356C419.679 66.6204 419.796 66.7068 419.912 66.7885C421.867 68.124 423.905 70.2271 423.89 70.2607C424.055 70.3196 419.993 66.5195 416.502 64.7958C414.332 63.6144 412.724 62.9465 413.852 63.3892C414.046 63.4686 415.346 64.0724 416.539 64.7271C418.036 65.5488 419.152 66.2592 417.505 65.2143C417.374 65.1345 417.03 64.9343 416.564 64.6815C415.183 63.9051 412.668 62.812 412.527 62.7579C411.659 62.3647 414.46 63.437 416.619 64.581C418.24 65.4171 419.536 66.2601 419.114 65.9363C418.33 65.4643 417.556 65.0189 416.646 64.5312C415.028 63.6626 413.192 62.8124 411.497 62.1606C410.271 61.6916 409.907 61.6392 409.773 61.5898C407.526 60.8268 408.802 61.2035 408.039 60.95C407.606 60.7645 402.997 59.6424 403.898 59.7019C388.305 56.7928 399.757 58.3194 408.952 61.3354C406.028 60.3428 400.244 58.9351 397.546 58.5309C396.593 58.3751 397.159 58.5266 395.518 58.2826C394.472 58.1319 392.562 57.8532 389.934 57.5908C383.87 56.9815 374.785 56.7749 371.721 56.7038C374.4 56.734 373.631 56.6494 371.547 56.615C369.427 56.5836 371.209 56.7048 370.794 56.7076C370.11 56.6929 360.993 56.5603 359.154 56.5782C366.575 56.5839 364.867 56.5021 358.644 56.4691C359.447 56.4519 360.43 56.436 361.336 56.4212C357.698 56.4241 350.277 56.3329 348.102 56.3767C347.79 56.3829 348.911 56.4348 348.736 56.4384C347.037 56.4662 340.875 56.4495 340.553 56.4731C340.31 56.4907 342.972 56.5182 341.985 56.5488C341.79 56.5549 339.187 56.498 336.632 56.541C335.733 56.5563 336.275 56.6043 336.049 56.6095C334.146 56.6536 335.289 56.5519 331.761 56.6039C329.174 56.6432 327.144 56.7538 323.514 56.7723C335.592 56.7339 325.245 56.8107 320.507 56.91C319.714 56.9265 320.424 57.0102 315.658 57.0325C325.759 56.7173 312.781 56.981 310.055 57.0247C309.912 57.0264 309.864 56.9648 308.584 56.984C308.475 56.9857 308.634 57.0252 307.439 57.0473C296 57.2632 303.309 57.0976 301.131 57.092C300.19 57.0899 294.55 57.245 293.101 57.2717C292.758 57.2778 292.916 57.2321 291.588 57.257C289.236 57.3013 287.107 57.3846 285.531 57.4162C285.345 57.4198 285.345 57.3525 282.339 57.4284C281.48 57.45 280.586 57.4897 281.746 57.4881C285.765 57.479 293.15 57.2383 297.552 57.228C301.584 57.2177 288.921 57.4393 288.238 57.453C287.995 57.4575 290.487 57.3802 287.954 57.4181C285.807 57.4506 281.743 57.6388 278.606 57.6695C278.364 57.6719 275.806 57.6205 275.922 57.6128C276.033 57.6067 279.951 57.5148 279.38 57.4969C279.313 57.4948 276.824 57.5405 276.496 57.5256C276.096 57.5072 275.012 57.277 274.476 57.2808C273.101 57.291 273.997 57.3312 273.106 57.3438C271.204 57.3705 264.509 57.4226 264.336 57.5111C265.421 57.496 266.492 57.4813 267.609 57.4656C261.533 57.5871 264.135 57.5751 263.274 57.607C262.352 57.6413 262.612 57.5616 260.568 57.5925C260.136 57.5991 251.525 57.7732 251.673 57.801C256.451 57.6644 254.678 57.7881 254.9 57.7857C255.735 57.7765 256.799 57.7056 257.915 57.686C265.746 57.5499 257.853 57.7768 259.702 57.7638C260.339 57.7592 261.603 57.6919 261.872 57.6892C262.746 57.6805 262.761 57.7383 263.344 57.7229C264.701 57.6872 263.114 57.634 263.222 57.6278C264.421 57.5542 269.222 57.5299 266.226 57.6749C268.031 57.6742 268.247 57.5608 269.678 57.5783C272.521 57.613 268.265 57.6686 267.102 57.7043C263.003 57.8306 261.824 57.8104 255.991 57.9301C253.891 57.973 251.383 58.0698 250.411 58.0898C249.808 58.102 244.047 58.0254 243.879 58.3072C241.635 58.3186 238.097 58.1971 235.767 58.2455C233.674 58.2888 234.351 58.3742 234.154 58.3814C233.859 58.3923 231.354 58.4264 230.505 58.4539C229.511 58.4863 230.009 58.515 228.43 58.5556C224.5 58.6557 224.598 58.5561 224.194 58.5564C219.491 58.5579 221.552 58.663 220.508 58.6902C219.528 58.7176 205.955 58.8644 203.091 58.933C204.254 58.8989 205.418 58.8643 206.582 58.8293C204.498 58.8 202.291 58.9244 202.251 58.8207C201.83 58.9948 197.523 58.938 196.231 58.9583C195.722 58.9664 195.763 58.9941 195.125 59.0031C192.634 59.0391 187.035 59.0799 185.687 59.1075C179.845 59.2293 194.766 59.1718 195.944 59.1603C193.588 59.191 180.292 59.3633 186.412 59.3789C187.355 59.3816 189.026 59.2913 189.556 59.2826C193.146 59.2246 190.324 59.3212 190.605 59.3243C191.084 59.3294 193.447 59.2394 194.072 59.2396C194.28 59.2396 192.939 59.3152 196.369 59.2768C194.673 59.357 185.075 59.4109 183.785 59.4347C183.336 59.443 186.158 59.5407 177.899 59.4954C177.995 59.5057 178.09 59.5159 178.186 59.5262C173.592 59.5689 169.033 59.6046 164.404 59.6333C164.904 59.6062 167.492 59.542 164.232 59.5706C162.359 59.5865 163.746 59.6339 163.575 59.6364C161.923 59.6873 132.172 59.6997 126.439 59.6238C124.549 59.6144 118.995 59.6028 118.585 59.5975C116.028 59.5801 107.418 59.4363 105.531 59.4051C104.419 59.3894 105.475 59.4448 104.483 59.4257C103.563 59.4077 104.517 59.3888 104.243 59.3824C102.008 59.354 84.8809 58.9864 80.9708 58.7846C83.3477 58.8968 95.7907 59.1638 95.5436 59.1209C95.5397 59.1177 92.4381 59.0187 91.8191 59.0146C90.7742 58.9603 87.2417 58.9524 85.3678 58.8756C85.1595 58.8665 85.9791 58.8463 82.654 58.7299C81.5618 58.6913 78.2901 58.6178 75.2297 58.4533C70.9908 58.4081 47.1877 56.8833 45.6221 56.6254C45.5579 56.6248 49.0432 56.9473 46.6865 56.756C43.6109 56.4936 46.3339 56.6793 42.8494 56.3295C42.4534 56.3371 32.5897 55.1284 32.4546 55.0437C29.6462 54.6665 37.7753 55.8744 37.8261 55.8409C37.3227 55.8227 30.7554 54.887 30.2633 54.7623C30.0856 54.7304 35.8036 55.6381 28.7803 54.4644C29.5826 54.619 30.4169 54.7694 31.2825 54.9157C27.7818 54.3427 27.6251 54.2306 26.8468 54.078C26.2676 53.9559 25.6949 53.8322 25.118 53.7002C24.4819 53.5555 23.6684 53.3586 22.9445 53.1604C21.4303 52.7258 20.1382 52.3869 18.0491 51.3433C17.1039 50.8331 18.699 51.6399 18.6004 51.571C18.0018 51.2839 17.3802 50.965 16.8048 50.5746C16.065 50.0793 15.177 49.2723 14.8974 48.2552L14.8629 47.9271C14.8697 47.869 14.8768 47.8107 14.884 47.7522C14.8866 47.7314 14.8796 47.8068 14.8688 47.9277L14.903 48.2534C14.981 48.5452 15.2472 49.0266 15.3738 49.1848C15.525 49.334 15.2957 49.2628 14.9233 48.2472L14.8898 47.9296C14.9644 47.2239 15.0752 46.1184 15.3558 44.3541C15.2667 44.885 15.1876 45.4007 15.115 45.9178C15.1026 44.8208 16.8162 37.2225 17.3279 36.2756C18.3896 33.4162 17.439 35.8979 18.62 33.0571C18.2184 33.9586 18.9032 32.2355 19.864 30.4553C20.8142 28.6522 22.0832 26.8474 21.941 27.0763C22.4973 25.8605 27.7951 19.8725 30.9374 17.8216C32.7877 16.3602 36.8882 13.9337 37.5616 13.6149C38.3562 13.194 38.1167 13.3251 39.5805 12.5909C39.9746 12.3719 44.3656 10.2684 48.3703 8.85707C49.1451 8.5734 50.7937 8.01746 49.3455 8.53307C46.8785 9.37889 42.2872 11.3166 42.3706 11.3215C42.4203 11.254 48.5968 8.72924 50.3216 8.20087C58.1807 5.6153 53.652 7.13416 53.8494 7.0563C54.3788 6.87913 58.7121 5.59773 58.9021 5.55951C59.6604 5.34497 56.5624 6.23626 56.5268 6.25937C56.4656 6.27119 60.6656 5.0896 59.7112 5.36353C58.3554 5.72815 54.5089 6.87571 54.2645 6.96492C51.1224 7.97675 55.4508 6.59784 56.6392 6.26697C56.9994 6.1608 55.5672 6.59487 55.866 6.50596C60.4473 5.16108 56.846 6.18378 59.8839 5.32413C62.6309 4.57286 59.0966 5.5482 59.2105 5.52249C59.3323 5.48148 62.632 4.58509 63.1358 4.4641C63.4013 4.3499 54.875 6.77431 55.2595 6.71908C57.9326 5.89065 60.6764 5.12192 63.3844 4.41629C63.6024 4.35947 59.678 5.40658 59.2863 5.52904C58.4795 5.75773 60.7338 5.13014 60.6424 5.16104C60.5852 5.17553 57.9408 5.92447 60.3352 5.25687C61.172 5.02727 62.8905 4.54343 65.9263 3.78843C55.4099 6.54616 62.723 4.6309 63.0071 4.55153C63.312 4.47261 58.3166 5.80724 64.3892 4.19922C64.6621 4.14475 64.2475 4.23541 62.5288 4.69481C60.4308 5.27993 65.2932 3.89984 57.5829 6.08845C58.0384 5.93491 64.208 4.24043 64.5633 4.17264C64.8497 4.0985 63.4569 4.46399 63.9538 4.33584C69.8019 2.85649 65.784 3.87485 67.484 3.45429C67.6587 3.4026 73.1653 2.09121 68.9613 3.09716C61.2639 4.97537 58.1292 5.96995 56.8481 6.37262C62.4518 4.66516 69.3475 2.99951 71.0747 2.59885C73.7346 1.97712 70.9841 2.62154 71.3087 2.54701C71.4365 2.51532 73.6957 1.99271 73.7331 1.98602C75.3673 1.59534 63.5597 4.3576 59.912 5.47889C60.8915 5.20352 61.8994 4.92845 62.8715 4.66987C61.5593 5.02239 60.1779 5.40721 58.871 5.78748C65.2328 4.00179 59.0859 5.70207 57.512 6.20853C57.1548 6.31816 61.3408 5.06384 56.5768 6.50074C60.0958 5.44599 58.9423 5.78865 62.1479 4.88997C62.0502 4.89669 54.9049 6.95435 52.1486 7.95879C62.0102 4.79792 56.3518 6.50992 65.0113 4.13687C66.6188 3.71016 62.464 4.8014 62.8097 4.71473C64.0124 4.38478 66.8651 3.63364 70.294 2.80439C70.858 2.66957 68.4688 3.22972 72.0026 2.39462C72.381 2.30436 74.6229 1.79277 74.5959 1.80034C74.2916 1.86968 72.0822 2.37961 71.9967 2.40235C71.9067 2.42258 74.371 1.85197 74.3855 1.85087C74.4584 1.83542 72.322 2.32693 72.6339 2.25635C73.2955 2.10454 82.2198 0.0538774 70.5911 2.74642C80.2435 0.502514 71.8192 2.41629 68.0827 3.35526C67.1206 3.5955 66.8756 3.65845 65.5299 4.00604C63.7706 4.46028 61.7684 5.00663 60.8491 5.26739C59.8878 5.55029 65.367 3.96855 57.4465 6.26689C61.4578 5.03389 68.6349 3.18284 72.6516 2.26629C80.7588 0.395939 67.0188 3.57106 65.6009 4.01237C65.2248 4.11001 66.4873 3.78753 66.2368 3.85268C65.8267 3.92533 58.1087 6.05236 57.3554 6.33174C56.6021 6.56019 60.1667 5.49113 60.4055 5.43756C60.565 5.33861 51.3398 8.23535 56.3296 6.66609C59.7578 5.56474 66.187 3.85291 67.2672 3.60399C62.1228 4.9141 57.0485 6.34705 52.0282 8.08854C54.7575 7.14825 57.5509 6.28636 60.3234 5.49397C54.6303 7.14469 49.7127 8.77507 44.5648 11.0118C57.1269 5.98199 40.452 12.6035 40.4136 12.9885C40.3293 12.9877 45.1891 10.7429 45.9817 10.4659C41.4221 11.9235 29.3876 19.6982 36.4738 15.2534C35.1597 15.9879 32.1553 18.1265 32.2142 18.1178C32.5137 17.7198 39.3399 13.5357 38.2466 14.2622C36.9396 15.0077 35.0866 16.0828 33.2008 17.4211C28.371 20.9409 27.0576 22.7107 25.6398 24.3174C24.3304 26.0069 22.7643 27.5927 20.2458 32.9591C20.3461 32.744 20.448 32.5306 20.5517 32.3189C18.2387 37.2439 17.0674 42.6204 16.6163 48.0873L16.579 47.7335C20.6765 52.166 30.0795 52.4709 36.9234 53.4838C41.9595 54.0726 55.7038 54.9249 62.3146 55.1512C63.5604 55.2114 70.5117 55.4812 70.8559 55.4893C71.3001 55.5078 70.3091 55.4833 69.4436 55.4611C68.5376 55.4374 67.8168 55.4195 69.0089 55.4689C69.4769 55.505 80.6003 55.7964 79.8741 55.7321C78.5712 55.7033 74.6175 55.6278 73.9922 55.6009C69.4514 55.5215 104.082 56.0912 105.828 55.9677C105.05 55.9522 104.275 55.9364 103.504 55.9204C105.681 55.9341 107.996 55.9452 110.112 55.9513ZM15.4128 43.4873C15.5954 42.1969 16.368 38.8892 16.9975 37.0356C17.7587 34.4033 19.8011 30.1866 18.9829 32.0281C17.2435 35.6727 16.1076 39.543 15.4128 43.4873ZM67.1605 58.1894C64.4627 58.0322 66.5395 58.0676 68.7895 58.2059C69.0436 58.2206 70.858 58.3959 67.1605 58.1894ZM39.5054 56.0371C39.5997 56.0497 41.7863 56.2935 41.8739 56.3014C43.8334 56.5442 37.2577 55.8057 39.5054 56.0371ZM173.446 59.4757C170.544 59.5018 172.646 59.5908 174.452 59.5344C174.566 59.5308 173.637 59.474 173.446 59.4757ZM171.382 59.4879C169.143 59.4122 164.529 59.6261 168.182 59.5852C168.543 59.5814 171.491 59.492 171.382 59.4879ZM57.795 57.6239C58.1629 57.6263 60.7224 57.7979 61.8932 57.8694C61.8394 57.8885 58.9595 57.6988 57.795 57.6239ZM126.948 59.5881C127.108 59.5686 117.554 59.4922 116.908 59.5105C118.412 59.5181 126.88 59.6124 126.948 59.5881ZM151.286 59.6015C151.041 59.5979 147.748 59.6095 147.846 59.632C149.448 59.6613 152.377 59.6201 151.286 59.6015ZM199.63 59.2339C199.808 59.2248 197.35 59.0881 203.17 59.1251C204.024 59.1306 200.976 59.2135 201.278 59.2156C201.915 59.2195 202.417 59.2187 202.82 59.2146C200.111 59.2631 197.295 59.3027 197.023 59.2957C195.744 59.263 199.551 59.2379 199.63 59.2339ZM225.01 58.7492C225.568 58.7117 229.129 58.6708 229.937 58.6697C230.076 58.6697 229.472 58.7561 231.072 58.7248C232.356 58.6994 230.437 58.6517 232.937 58.6237C235.461 58.5953 232.09 58.7065 232.31 58.7068C232.602 58.7076 236.522 58.608 236.406 58.656C236.307 58.692 232.114 58.7369 231.08 58.7604C229.753 58.7907 231.364 58.8217 229.145 58.8445C227.75 58.8588 228.521 58.7479 228.227 58.7475C227.981 58.7477 223.097 58.8801 225.017 58.7494C225.015 58.7493 225.012 58.7493 225.01 58.7492ZM203.553 59.2012C203.349 59.2069 203.11 59.2117 202.82 59.2146C203.066 59.2102 203.31 59.2056 203.553 59.2012ZM17.4042 51.0019C17.9022 51.2853 17.555 51.1209 16.9684 50.7493C16.7499 50.6107 16.1616 50.2051 15.7506 49.7676C15.3244 49.327 14.9933 48.8017 14.8381 48.2736L14.8011 47.9215C14.8419 47.5244 14.8834 47.1673 14.9184 46.8918C14.9237 46.8837 14.8741 47.3168 14.8154 47.9228L14.8518 48.2693C15.0529 48.9804 15.6512 49.7427 16.3421 50.2797C16.7435 50.593 16.8802 50.6727 17.0733 50.7992C17.248 50.9105 17.3731 50.9831 17.4042 51.0019ZM206.062 59.0917C210.084 59.0614 207.126 59.1349 203.553 59.2012C204.687 59.1689 204.711 59.1017 206.062 59.0917ZM91.8191 59.0146C91.9915 59.0239 92.101 59.0342 92.1146 59.0471C91.661 59.0219 91.6208 59.0136 91.8191 59.0146ZM101.185 59.246C104.398 59.2675 97.8758 59.1442 97.9333 59.1703C97.948 59.182 101.052 59.2458 101.185 59.246ZM177.177 59.4511C176.884 59.4485 181.447 59.2552 174.82 59.4266C178.356 59.4163 174.625 59.4634 174.681 59.4762C174.823 59.5148 180.771 59.4279 182.095 59.4316C183.128 59.3516 178.146 59.4606 177.185 59.4511C177.182 59.4511 177.18 59.4511 177.177 59.4511ZM270.74 58.0135C269.938 58.0767 267.329 58.1073 265.62 58.1346C266.395 58.0724 269.013 58.0413 270.74 58.0135ZM158.001 93.7644C169.807 93.8757 171.314 94.0438 160.545 93.8468C160.35 93.8429 157.275 93.7696 158.001 93.7644ZM259.475 95.7936C260.587 95.9005 256.9 95.823 254.462 95.7314C253.911 95.7106 251.871 95.582 254.202 95.6223C254.127 95.7157 257.723 95.8401 259.475 95.7936ZM208.334 59.0111C209.504 58.9431 213.108 58.9295 215.006 58.9098C213.849 58.9703 210.014 59.0047 208.334 59.0111ZM196.848 94.4467C198.093 94.4756 198.936 94.4322 198.721 94.4231C197.758 94.3819 195.429 94.3861 196.848 94.4467ZM196.692 59.1531C196.526 59.1253 201.305 59.0361 201.639 59.1074C200.617 59.1152 196.81 59.171 196.692 59.1531ZM267.457 58.046C266.709 58.0418 270.586 57.9411 271.748 57.9379C271.658 57.9764 267.952 58.0486 267.457 58.046ZM216.913 94.8332C218.029 94.8625 220.813 94.9248 221.121 94.9059C221.505 94.8819 217.423 94.8048 216.913 94.8332ZM10.0214 102.691C9.87523 102.72 13.8307 100.938 15.7029 100.326C19.0928 99.0875 10.1466 102.428 10.0214 102.691ZM185.046 94.262C181.525 94.1473 185.434 94.2668 185.282 94.207C182.907 94.1635 177.029 94.0655 181.071 94.187C181.858 94.2108 183.94 94.239 185.046 94.262ZM188.299 94.3385C188.677 94.3266 191.224 94.3129 189.024 94.2778C188.007 94.2618 186.367 94.2982 188.299 94.3385ZM36.0003 96.3173C39.1549 95.9304 24.5271 97.7102 24.3425 97.9567C24.1417 97.9939 24.0124 98.0181 23.9386 98.0315C23.4556 98.1128 20.5202 98.7856 20.3068 98.8551C21.0196 98.6465 23.4234 98.1169 23.7019 98.0733C23.8013 98.0538 23.8761 98.0395 23.9278 98.0298C24.3187 97.9408 27.0838 97.415 30.0983 97.015C32.7124 96.6526 35.6778 96.3484 36.0003 96.3173ZM59.88 94.6847C56.2972 94.8849 55.7285 94.8615 56.0176 94.843C59.8349 94.627 57.347 94.7971 57.4613 94.7929C57.7205 94.7823 60.4889 94.6333 59.8687 94.6852C59.8724 94.685 59.8763 94.6849 59.88 94.6847ZM40.8263 95.8669C40.6609 95.878 37.7264 96.1465 37.6269 96.1596C35.2222 96.3651 43.5456 95.6061 40.8263 95.8669ZM244.136 58.3226C246.301 58.3014 244.18 58.3976 242.738 58.4007C242.619 58.4006 242.224 58.3414 244.136 58.3226ZM190.038 94.3571C190.538 94.3717 203.395 94.6547 202.627 94.567C201.526 94.5497 186.927 94.2413 190.038 94.3571ZM286.181 96.5628C283.893 96.506 286.393 96.4826 287.606 96.5436C288.056 96.5664 286.758 96.577 286.181 96.5628ZM190.256 59.1581C187.904 59.2257 188.388 59.0807 190.428 59.1058C190.508 59.1068 190.348 59.1555 190.256 59.1581ZM268.03 96.0688C275.935 96.2131 273.986 96.4275 263.852 96.0882C264.169 96.0845 264.485 96.0808 264.802 96.0771C253.095 95.7507 264.022 96.0396 266.857 96.0949C267.942 96.116 267.023 96.05 268.023 96.0683C268.025 96.0685 268.028 96.0687 268.03 96.0688ZM298.082 96.8559C305.661 97.2319 291.261 96.7603 287.139 96.6828C291.161 96.7029 296.322 96.8386 289.274 96.587C299.573 96.8198 295.259 96.7922 295.681 96.809C296.149 96.8275 297.755 96.8397 298.082 96.8559ZM278.236 96.374C277.805 96.3689 274.535 96.2502 273.347 96.2271C275.015 96.2045 281.109 96.4071 278.236 96.374ZM85.0305 93.8994C84.7582 93.9297 84.0641 93.9584 81.4886 94.0039C82.2811 93.9746 83.9353 93.9304 85.0305 93.8994ZM16.0083 41.027C16.3652 39.2681 17.5043 35.8215 17.1454 36.8746C17.0605 36.9756 15.9566 41.0134 16.0083 41.027ZM227.405 95.1629C227.791 95.1764 237.58 95.4066 234.201 95.2776C233.188 95.2381 224.259 95.0423 227.405 95.1629ZM176.597 94.155C177.414 94.1681 180.742 94.2154 180.814 94.2074C181.039 94.1784 176.954 94.1299 176.597 94.155ZM18.9421 32.3929C18.9589 32.1191 21.7001 27.3224 21.4348 27.8651C20.7145 28.7806 18.5512 33.1113 18.9421 32.3929ZM252.006 58.0644C252.465 58.0543 253.073 58.0996 253.231 58.0975C253.615 58.0917 261.957 57.9204 258.772 58.0503C258.248 58.0723 246.21 58.2574 244.678 58.2761C244.076 58.2104 249.184 58.1938 250.416 58.1642C250.632 58.1589 250.774 58.0921 252.002 58.0648C252.003 58.0646 252.005 58.0645 252.006 58.0644ZM71.5132 94.2543C71.1396 94.2742 61.4017 94.6402 61.4539 94.6283C64.9356 94.4788 68.153 94.3606 71.5132 94.2543ZM76.585 94.1162C78.7459 94.077 73.6797 94.2096 72.2457 94.249C72.2184 94.2338 76.2571 94.1202 76.585 94.1162ZM195.179 94.6275C196.163 94.6369 193.139 94.5214 193.816 94.5234C194.25 94.5246 196.448 94.5884 197.15 94.5842C197.349 94.5821 195.107 94.4848 194.458 94.4751C193.537 94.4608 194.429 94.52 193.424 94.5012C190.098 94.4393 187.111 94.3554 183.979 94.3019C183.696 94.297 185.891 94.3643 183.476 94.3218C183.103 94.3153 180.862 94.2336 177.985 94.1933C171.628 94.2202 166.89 94.0205 158.847 93.9647C159.177 93.9792 165.17 94.0901 165.536 94.0976C172.315 94.2109 184.404 94.417 191.512 94.5544C193.326 94.5889 192.446 94.5432 193.227 94.557C193.845 94.5681 193.109 94.6077 195.179 94.6275ZM15.8153 41.9753C15.9992 41.1177 16.6968 38.1857 17.3527 36.357C17.0821 37.0078 16.1757 40.1051 15.8153 41.9753ZM120.555 93.6753C121.501 93.6739 124.465 93.6916 124.713 93.6802C125.025 93.664 120.75 93.6474 120.555 93.6753ZM299.018 57.2469C299.114 57.2432 301.435 57.2083 301.521 57.2092C303.595 57.2323 296.63 57.3366 299.018 57.2469ZM353.99 56.6483C355.736 56.6378 357.438 56.6176 357.999 56.6799C356.946 56.6669 353.794 56.6901 353.99 56.6483ZM424.402 70.7978C424.357 70.4466 427.009 74.2385 427.111 75.0641C427.045 74.9362 426.565 73.8349 425.911 72.8456C425.253 71.8169 424.464 70.9136 424.402 70.7978ZM85.4135 93.9997C82.1808 94.0572 82.8684 94.0959 80.8467 94.1146C80.5226 94.1183 79.4424 94.0352 82.9517 94.0015C83.5907 93.9968 81.0898 94.0679 85.4135 93.9997ZM262.202 96.0453C261.389 96.0701 258.845 95.9938 257.117 95.9478C257.506 95.9244 260.984 96.0184 262.202 96.0453ZM24.3409 24.0098C25.2208 22.73 30.5023 18.0808 29.1962 19.2334C28.9465 19.3242 24.9049 23.1767 24.3409 24.0098ZM216.477 58.6926C219.33 58.5997 213.418 58.6746 211.549 58.7491C212.396 58.7339 216.285 58.6989 216.477 58.6926ZM410.102 61.8485C410.259 61.8833 412.943 62.9597 413.035 63.0243C414.13 63.5457 412.781 62.9379 411.483 62.4237C410.147 61.8906 408.834 61.4253 410.102 61.8485ZM335.851 56.6537C336.849 56.5941 344.279 56.5733 345.774 56.6167C344.351 56.6883 334.383 56.7242 335.851 56.6537ZM98.6182 93.807C96.3041 93.8297 94.1387 93.8477 92.0685 93.8663C92.4859 93.8395 98.3569 93.7924 98.6182 93.807ZM419.554 66.5356C419.679 66.6204 419.796 66.7068 419.912 66.7885C419.792 66.7023 419.672 66.6177 419.554 66.5356ZM149.83 93.9167C151.741 93.9468 151.346 93.8969 151.228 93.8942C149.788 93.864 147.67 93.8834 149.83 93.9167ZM16.3473 39.822C16.5144 39.1553 17.4175 36.014 18.1599 34.2826C17.9011 34.7782 16.6785 38.3191 16.3473 39.822ZM306.178 97.1727C308.581 97.2966 298.813 97.1419 296.671 97.0459C296.544 97.0033 305.86 97.1574 306.178 97.1727ZM207.604 58.7381C207.411 58.6976 203.298 58.8072 204.173 58.8154C204.726 58.8211 207.719 58.7638 207.604 58.7381ZM291.804 96.8995C290.89 96.8915 288.747 96.7923 289.503 96.7827C290.474 96.7703 292.041 96.9011 291.804 96.8995ZM209.234 94.9493C209.636 94.9637 215.048 95.04 212.814 94.9509C211.264 94.8893 211.015 94.9416 210.651 94.9339C210.243 94.9243 201.557 94.6724 209.234 94.9493ZM361 98.1977C358.824 98.2005 356.513 98.155 354.385 98.1319C355.258 98.1121 360.024 98.1499 361 98.1977ZM223.47 58.4863C222.966 58.4781 209.461 58.6738 217.131 58.6122C217.569 58.6093 224.983 58.5177 223.47 58.4863ZM85.4135 93.9997C85.8227 93.9927 86.2962 93.9855 86.8477 93.9786C86.3001 93.9868 85.8255 93.9935 85.4135 93.9997ZM121.84 93.7466C121.102 93.7655 124.817 93.7786 125.928 93.7719C126.264 93.7466 121.936 93.743 121.84 93.7466ZM354.223 98.1817C353.007 98.1889 350.753 98.1376 349.179 98.1176C349.462 98.0884 353.715 98.1419 354.223 98.1817ZM428.028 78.1377C428.258 80.1658 427.429 82.5585 427.431 82.6111C427.409 82.6502 427.369 82.7375 427.301 82.8866C427.275 83.0452 426.286 85.046 425.61 85.8233C423.557 88.1017 428.038 83.751 428.019 79.4694C428.136 77.4001 427.498 75.6899 427.438 75.4458C427.234 75.2055 428.371 76.3878 428.052 80.3708C428.128 79.6252 428.119 78.8808 428.028 78.1377ZM326.164 56.6606C324.671 56.6271 320.936 56.7421 321.909 56.7495C322.549 56.7541 327.572 56.695 326.164 56.6606ZM379.517 56.7507C379.323 56.7388 378.14 56.7051 377.147 56.6884C376.214 56.6727 375.276 56.666 375.229 56.6788C377.132 56.7483 381.521 56.8672 379.517 56.7507ZM315.539 56.746C314.662 56.7512 313.535 56.8511 313.639 56.8532C314.541 56.8697 317.013 56.7704 315.539 56.746ZM92.0768 94.0002C93.344 93.9938 97.4749 93.9228 98.3931 93.8892C98.5624 93.8929 99.0183 93.8954 99.859 93.8968C99.8565 93.8968 99.8539 93.8968 99.8513 93.8968C100.956 93.8465 134.37 93.854 111.952 93.8062C111.246 93.8062 112.204 93.8286 109.34 93.8325C109.152 93.8328 109.058 93.8124 108.476 93.8136C107.128 93.813 100.081 93.845 98.5687 93.8775C98.5563 93.874 98.4626 93.8714 98.2633 93.8701C96.4668 93.8566 91.0781 94.0038 92.0768 94.0002ZM387 57.1187C386.257 57.0453 383.638 56.9143 383.521 56.9487C383.999 56.981 385.423 57.0578 386.386 57.1156C387.34 57.1722 387.872 57.1998 387 57.1187ZM223.048 58.3648C221.49 58.3647 217.537 58.4749 218.732 58.4813C219.467 58.4858 224.846 58.3655 223.048 58.3648ZM362.895 56.4546C371.729 56.5771 365.02 56.4687 366.373 56.4271C365.24 56.4342 364.08 56.4434 362.895 56.4546ZM50.7263 95.2562C52.1666 95.176 50.4619 95.3063 48.9186 95.3863C48.4335 95.4114 49.9212 95.3014 50.7263 95.2562ZM2.74618 120.444C2.3713 119.956 3.09298 120.911 3.81035 121.674C4.52773 122.445 5.18463 123.064 4.3575 122.253C4.26641 122.197 2.78467 120.539 2.74618 120.444ZM31.4361 96.9548C32.372 96.8238 32.9278 96.7394 35.7671 96.4434C31.6336 96.901 35.385 96.4848 31.4361 96.9548ZM427.446 82.5924C427.438 82.6041 427.433 82.614 427.431 82.6111C427.439 82.598 427.443 82.5927 427.446 82.5924ZM307.138 56.8922C306.039 56.8577 302.913 56.9132 303.845 56.95C303.938 56.9532 306.69 56.9377 307.138 56.8922ZM98.3931 93.8892C98.2431 93.886 98.3193 93.8824 98.5687 93.8775C98.5803 93.8808 98.5159 93.8846 98.3931 93.8892ZM323.875 56.6025C323.715 56.6434 328.63 56.5968 328.799 56.5909C331.563 56.4897 325.876 56.5726 323.875 56.6025ZM191.539 58.7713C191.294 58.7776 192.878 58.8418 193.849 58.7969C194.601 58.762 192.458 58.7473 191.539 58.7713ZM22.2752 98.4824C21.0196 98.7561 19.5889 99.1467 18.9267 99.3547C18.7015 99.4234 18.5361 99.4739 18.4512 99.4986C18.579 99.4583 18.7401 99.4077 18.9254 99.3503C19.9296 99.0157 22.2784 98.4663 22.2752 98.4824ZM1.42041 118.512C0.335716 117.095 -0.723685 112.655 0.868758 110.25C0.896979 110.233 -0.0303 111.806 0.000823079 113.804C-0.0239424 115.802 0.98599 117.795 1.42041 118.512ZM88.0099 94.0443C88.1828 94.0421 91.8939 94.0004 91.3859 93.985C90.6763 93.9598 86.931 94.0485 88.0099 94.0443ZM198.888 58.7221C200.581 58.6706 196.682 58.6353 194.898 58.7255C193.981 58.7719 198.602 58.731 198.888 58.7221ZM297.324 56.9885C295.05 57.0559 300.686 57.0093 301.451 56.9457C300.418 56.9588 298.134 56.9644 297.324 56.9885ZM373.305 56.4392C366.062 56.1549 369.996 56.5088 371.315 56.5042C371.506 56.5031 373.484 56.4459 373.305 56.4392ZM38.246 13.3606C39.1244 12.8792 35.8327 14.6436 35.4399 14.9258C35.1761 15.076 37.6798 13.6402 38.246 13.3606ZM400.492 97.2213C400.787 97.1793 401.077 97.1363 401.362 97.0925C401.148 97.1275 400.866 97.1705 400.492 97.2213ZM277.104 57.1582C282.021 57.2705 281.478 57.1242 281.919 57.1167C282.865 57.1014 285.057 57.1166 286.817 57.0756C284.811 57.1351 282.731 57.1962 280.755 57.2553C282.362 57.2389 296.167 57.0688 296.38 57.0334C296.79 56.9782 292.521 57.0677 292.39 57.066C292.209 57.0632 291.535 56.9425 291.135 56.9446C290.515 56.9466 278.872 57.1571 277.104 57.1582ZM358.525 56.3079C359.584 56.3274 359.959 56.3846 360.503 56.3736C360.69 56.3699 360.722 56.3169 361.356 56.3064C360.396 56.3056 359.377 56.306 358.525 56.3079ZM268.221 57.5047C266.808 57.4714 273.141 57.3764 273.334 57.3797C274.414 57.4004 269.386 57.5317 268.221 57.5047ZM321.55 56.5878C321.337 56.5864 316.539 56.6352 316.567 56.6701C317.874 56.6763 324.218 56.5974 321.55 56.5878ZM362.135 56.307C363.897 56.3217 367.023 56.4073 366.66 56.3241C366.658 56.3241 366.655 56.324 366.653 56.324C365.191 56.3149 363.685 56.3093 362.135 56.307ZM204.681 58.5041C201.536 58.4447 203.027 58.5552 205.81 58.5492C206.652 58.4899 205.196 58.5137 204.681 58.5041ZM194.616 58.5656C193.737 58.5605 184.746 58.6904 186.12 58.726C186.606 58.74 191.777 58.6292 192.016 58.6293C192.378 58.6302 190.727 58.7106 193.489 58.6639C193.327 58.6458 194.915 58.5679 194.616 58.5656ZM202.078 58.4745C198.95 58.44 198.25 58.5941 200.601 58.5622C201.52 58.5498 202.525 58.4796 202.078 58.4745ZM214.832 58.296C213.709 58.2994 210.717 58.3256 208.655 58.4057C211.416 58.3685 214.176 58.33 216.933 58.2905C217.25 58.2571 215.814 58.2931 214.824 58.2961C214.827 58.2961 214.829 58.296 214.832 58.296ZM15.8078 130.368C13.602 129.178 18.6475 131.885 18.9025 131.934C19.5796 132.262 16.771 130.916 15.8078 130.368ZM56.3652 6.46245C57.0203 6.26676 57.457 6.13869 58.9191 5.71241C57.4326 6.1355 56.0087 6.55827 54.5257 7.023C53.3898 7.39876 55.6651 6.66749 56.3652 6.46245ZM61.9817 4.88996C61.7715 4.94986 62.9201 4.64187 60.218 5.38403C58.396 5.84971 68.2812 3.1974 70.0867 2.83008C68.1277 3.28977 63.7422 4.39778 61.9817 4.88996ZM79.4089 0.739095C79.5304 0.709615 75.7164 1.55451 75.2932 1.65467C72.9829 2.17515 78.7724 0.867426 79.4089 0.739095ZM67.3277 3.54919C69.0959 3.10761 65.1975 4.08587 64.0192 4.40591C63.9137 4.42653 67.047 3.61414 67.3277 3.54919ZM0.481534 112.355C0.695908 111.379 1.10287 110.591 1.25791 110.297C1.42893 110.033 1.13865 110.291 0.653049 111.678C0.600045 111.817 0.458657 112.436 0.481534 112.355ZM75.7013 1.56682C73.9354 1.96608 77.8364 1.08065 79.0401 0.821895C79.1427 0.797572 75.9591 1.50557 75.7013 1.56682ZM0.92431 111.069C1.47192 109.862 1.74555 109.601 1.763 109.531C1.78738 109.481 1.60549 109.731 1.52302 109.865C1.17496 110.391 0.469174 111.767 0.363318 113.179C0.215145 114.603 0.618044 115.953 0.768286 116.387C-0.19198 113.065 0.69471 111.98 0.697978 111.643C0.818556 111.31 0.701041 111.623 0.92431 111.069ZM9.81592 103.436C11.9421 102.399 6.47857 105.025 5.53103 105.892C6.49391 105.161 9.20232 103.7 9.81592 103.436ZM23.7767 98.876C24.8451 98.6531 28.7447 98.0774 29.5132 97.9832C27.8905 98.1752 24.1954 98.7675 23.7767 98.876ZM26.5347 98.4375C28.5828 98.1467 29.0924 98.035 26.7073 98.3962C26.6167 98.4105 26.4609 98.4481 26.5347 98.4375ZM38.0202 97.1562C39.2899 97.0708 40.7804 96.9096 38.6815 97.0733C38.0653 97.123 37.8866 97.1652 38.0202 97.1562ZM2.70845 108.416C4.0306 107.027 5.86958 105.485 2.89477 108.194C3.88295 107.146 5.02072 106.271 6.19043 105.506C1.8675 108.582 2.52279 108.721 1.57439 109.889C0.537048 111.729 0.765452 111.63 0.865348 111.227C0.523034 111.99 -0.0753286 114.348 0.945562 116.814C1.87134 119.258 3.89804 121.524 5.45716 122.997C2.61948 120.64 -1.11069 114.689 0.945359 111.102C1.36098 110.113 1.95125 109.273 2.52834 108.607C3.4981 107.546 2.63458 108.494 2.70352 108.421C2.70516 108.42 2.7068 108.418 2.70845 108.416ZM53.0455 96.2421C57.1521 96.0972 54.5254 96.1452 52.2471 96.2578C52.1492 96.2629 52.9437 96.2457 53.0455 96.2421ZM80.7923 0.445211C75.6701 1.59857 79.361 0.672718 68.6808 3.25522C73.1533 2.15055 68.9214 3.18959 69.7955 2.97304C70.4931 2.79747 73.1515 2.16633 71.6101 2.53046C73.6094 2.02974 82.3886 0.0829167 82.8058 0.00847537C82.802 0.0092771 82.7983 0.0100788 82.7946 0.0108806C83.0349 -0.0403636 82.4327 0.0870598 80.7923 0.445211ZM23.8118 98.9697C24.9988 98.8048 25.3931 98.6417 28.0318 98.3043C30.8971 97.8774 22.561 98.9288 19.135 100.041C18.2538 100.3 17.6202 100.498 17.346 100.578C18.0078 100.366 18.6048 100.183 19.1306 100.027C21.1292 99.453 21.9268 99.3243 21.6233 99.3788C21.3517 99.4369 20.1805 99.7016 19.1272 100.016C16.2689 100.872 13.3277 101.909 17.8565 100.438C10.2357 103.007 15.3635 101.296 14.1911 101.702C12.9389 102.112 8.83137 103.973 9.04518 103.933C9.04751 103.932 9.04985 103.93 9.05218 103.929C11.4635 102.707 14.1637 101.671 16.7492 100.821C15.0033 101.388 16.9406 100.7 19.1403 100.059C19.9042 99.8361 20.7633 99.6294 21.3338 99.507C22.1023 99.3216 22.94 99.1404 23.8118 98.9697ZM8.91099 103.955C9.11592 103.738 14.6551 101.423 14.334 101.603C13.5356 101.692 5.77237 105.514 8.91099 103.955ZM6.90773 124.289C5.20952 122.919 2.94376 120.399 2.3337 119.395C3.51054 121.221 5.98474 123.545 6.90773 124.289ZM93.3241 95.55C96.0647 95.521 87.6382 95.5329 90.0741 95.5544C90.1885 95.5546 93.1839 95.5506 93.3241 95.55ZM30.0281 98.0223C32.6505 97.729 31.4523 97.8097 29.4139 98.0788C29.2807 98.0965 29.9388 98.032 30.0281 98.0223ZM76.6319 1.37134C76.4698 1.39396 69.0027 3.15123 67.7112 3.50266C68.4357 3.28599 76.8667 1.29744 76.6319 1.37134ZM9.94872 126.631C6.2959 124.224 2.38358 119.772 2.18305 119.139C1.83591 118.598 2.38785 119.442 2.31046 119.318C2.22074 119.175 1.18017 117.699 0.709283 115.988C0.177146 114.284 0.519608 112.509 0.567363 112.373C0.617568 112.148 0.341403 113.321 0.648254 111.979C0.0677451 113.224 0.450507 117.217 2.77351 119.99C4.90669 122.833 7.58449 124.815 7.81632 125.028C8.22653 125.321 5.20168 123.035 9.94258 126.627C9.94463 126.628 9.94668 126.63 9.94872 126.631ZM1.38945 117.751C1.79255 118.511 1.37404 117.834 0.97286 116.812C0.538691 115.769 0.357491 114.314 0.396427 113.749C0.501651 112.492 0.305078 113.477 0.457929 114.793C0.594363 116.125 1.33498 117.658 1.38945 117.751ZM3.56193 107.586C3.81039 107.135 7.95233 104.39 8.33595 104.298C6.20548 105.24 2.61268 108.378 3.56193 107.586ZM56.1681 96.2314C57.3877 96.1816 60.8934 96.0839 61.1076 96.0636C59.7983 96.1021 56.3499 96.2079 56.1681 96.2314ZM51.5635 8.32032C53.5769 7.61387 48.9176 9.25741 47.6004 9.80859C47.5105 9.82025 51.3894 8.36247 51.5635 8.32032ZM30.4819 98.0722C30.9156 97.8812 46.8868 96.6351 48.7581 96.6333C46.936 96.617 31.1138 97.8403 30.7112 98.0301C30.5218 98.0536 30.3924 98.0824 30.4819 98.0722ZM1.06204 110.989C0.514766 112.242 0.477624 113.171 0.456335 113.34C0.111675 115.095 1.71301 118.417 1.38436 117.682C0.657842 116.339 0.131088 113.857 0.631686 112.209C1.07795 110.585 1.71794 109.742 1.06204 110.989ZM57.2387 96.2934C62.378 96.1114 52.5414 96.4266 53.7455 96.4149C53.88 96.4088 56.7236 96.3099 57.2387 96.2934ZM28.738 98.2956C28.0564 98.4105 23.3047 98.9453 19.1657 100.142C15.1786 101.293 11.5887 102.771 10.4869 103.299C12.5542 102.348 14.2202 101.714 16.9942 100.805C17.7577 100.559 17.5552 100.617 17.637 100.591C18.9974 100.168 17.9769 100.493 18.8306 100.234C18.8747 100.22 18.9891 100.186 19.1633 100.134C20.6298 99.4818 30.2094 98.0276 28.738 98.2956ZM0.788671 111.713C0.603964 112.085 0.0240846 114.714 1.12708 117.075C2.10156 119.426 3.88751 121.276 3.99538 121.421C5.02474 122.473 3.06513 120.736 1.63147 118.142C-0.0268264 115.515 0.548244 112.007 0.788671 111.713ZM30.2001 98.132C28.2814 98.3313 21.1336 99.5324 26.0389 98.6999C26.4827 98.6243 28.7277 98.3096 30.2001 98.132ZM56.6947 96.3486C56.913 96.3368 62.3689 96.1801 62.4991 96.1684C61.6213 96.1758 53.826 96.4331 56.6947 96.3486ZM53.8668 96.4935C53.9994 96.4886 52.6839 96.5152 55.3243 96.4176C55.537 96.4113 55.8827 96.4188 59.0663 96.3091C59.7139 96.287 60.7317 96.2396 60.6585 96.2406C57.4096 96.2695 47.0736 96.7906 53.8668 96.4935ZM0.743401 111.882C0.910388 111.399 0.479915 112.556 0.46134 113.663C0.476295 114.139 0.349431 113.233 0.743401 111.882ZM74.0598 95.9566C70.8441 96.0191 80.9332 95.9024 81.3804 95.9038C81.0676 95.886 74.4446 95.9437 74.0598 95.9566ZM46.9362 10.1423C46.9385 10.1413 46.9409 10.1404 46.9432 10.1394C44.4608 11.1655 45.9964 10.5223 45.8778 10.5693C40.6544 12.8346 42.0829 12.3078 41.2676 12.6768C39.5785 13.5423 39.8049 13.3469 37.0305 14.9464C41.6503 12.339 37.4282 14.6867 37.3054 14.7648C36.725 14.9648 43.536 11.4218 46.0348 10.4962C46.3674 10.3486 43.876 11.4101 44.7373 11.0352C47.537 9.7467 56.5273 6.51677 46.9362 10.1423ZM0.485816 114.507C0.457176 115.111 1.13709 117.693 2.45874 119.46C3.70478 121.254 4.9829 122.446 4.11243 121.544C3.9824 121.397 2.26199 119.551 1.34209 117.548C0.357381 115.56 0.458068 113.609 0.485816 114.507ZM431.218 85.0573C430.665 86.2631 431.118 85.5023 431.621 84.2632C432.155 82.9893 432.497 81.1582 432.52 80.57C432.654 80.0081 431.822 84.0601 431.218 85.0573ZM409.216 56.4319C406.508 55.5817 403.666 55.1023 406.989 55.9594C407.312 56.0372 409.522 56.5541 409.216 56.4319ZM293.97 101.07C296.748 101.223 296.583 101.092 294.545 101.031C293.824 101.01 293.882 101.065 293.97 101.07ZM401.769 101.504C402.09 101.479 405.335 100.909 405.224 100.882C404.051 101.121 399.875 101.745 401.769 101.504ZM293.084 101.06C294.737 101.089 291.899 100.911 289.855 100.936C290.893 100.961 292.914 101.057 293.084 101.06ZM35.9368 97.6196C37.5083 97.4592 41.0718 97.1963 43.5006 97.0475C43.6435 97.0511 37.6506 97.4449 35.9368 97.6196ZM420.155 61.2998C417.81 59.975 422.758 62.9905 422.321 62.7044C422.283 62.6509 420.229 61.3198 420.155 61.2998ZM203.129 98.1935C204.986 98.2168 199.093 97.9953 200.714 98.1013C200.794 98.1059 203.027 98.1921 203.129 98.1935ZM177.41 97.4293C178.809 97.4771 184.809 97.6424 182.474 97.547C182.11 97.5318 177.514 97.4042 177.41 97.4293ZM41.13 12.7552C41.802 12.4123 37.9093 14.4248 37.3971 14.7652C37.1701 14.8736 40.2352 13.1498 41.13 12.7552ZM312.257 101.625C313.748 101.659 317.542 101.781 318.199 101.762C316.436 101.722 311.777 101.538 312.257 101.625ZM429.589 69.6692C428.296 67.4682 425.135 64.6821 425.828 65.4647C429.062 68.7463 425.719 64.7282 429.589 69.6692ZM283.678 100.845C284.861 100.888 285.765 100.825 285.632 100.816C284.358 100.735 282.502 100.772 283.678 100.845ZM371.496 102.785C371.589 102.831 375.315 102.811 374.808 102.782C374.666 102.774 371.457 102.751 371.496 102.785ZM84.8712 95.9863C86.5988 95.9967 81.3209 96.0341 79.8185 96.0285C79.0626 96.0041 84.6323 95.9823 84.8712 95.9863ZM251.281 99.773C251.083 99.8215 256.985 99.9835 254.664 99.8618C254.081 99.8313 251.333 99.7564 251.281 99.773ZM195.258 98.0543C199.187 98.1121 182.699 97.5903 187.03 97.786C187.347 97.7991 194.918 98.048 195.258 98.0543ZM168.325 97.2602C169.004 97.2839 168.66 97.4204 165.861 97.2906C165.494 97.2738 167.214 97.2805 166.914 97.2638C166.732 97.2532 160.662 97.0778 160.388 97.0752C160.088 97.0715 160.44 97.1257 160.136 97.1231C159.805 97.12 156.008 96.9868 154.044 96.9404C150.334 96.8523 149.944 96.8806 149.64 96.8735C148.758 96.8535 147.279 96.7943 145.505 96.7554C136.405 96.5519 122.546 96.3333 115.49 96.1854C121.728 96.2912 128.019 96.3637 134.245 96.4712C132.381 96.5048 143.576 96.5984 137.023 96.5517C140.099 96.5735 166.114 97.1684 168.318 97.26C168.32 97.2601 168.323 97.2601 168.325 97.2602ZM398.554 53.7867C400.251 53.9481 391.65 52.6634 390.854 52.7649C392.042 52.8441 398.356 53.7132 398.554 53.7867ZM432.553 75.3335C432.646 76.2579 433.664 77.183 432.73 82.2557C432.729 82.2602 432.728 82.2647 432.727 82.2692C432.355 83.6966 432.723 82.0567 432.643 82.3161C432.718 82.4431 431.109 86.7356 432.336 83.1385C433.04 80.325 432.852 80.1325 432.913 80.351C432.915 80.5555 432.933 81.1093 433.03 79.5426C433.044 79.3563 433.058 77.7479 432.755 76.3093C432.473 74.8353 431.96 73.6049 432.011 73.7565C432.043 73.7906 432.557 75.4269 432.592 75.7377C432.784 76.8252 432.626 76.3063 432.655 76.4592C432.697 76.6907 433.144 79.156 432.65 81.6895C432.228 84.2218 430.915 86.5548 430.559 87.0527C430.389 87.2649 432.5 84.1541 432.777 80.2703C433.183 76.3762 431.462 72.709 431.369 72.5115C431.225 72.1829 431.408 72.2649 431.255 71.921C431.312 71.5744 427.974 66.918 427.338 66.5102C427.196 66.3587 427.087 66.2429 427.006 66.1579C427.284 66.4702 426.562 65.7291 425.682 64.9565C424.868 64.2313 423.895 63.4812 423.97 63.5101C424.087 63.5209 426.687 65.753 426.756 65.8942C426.794 65.9333 426.827 65.9678 426.858 65.9997C426.606 65.7318 428.656 67.6087 430.111 69.8468C431.6 72.0321 432.359 74.4902 431.924 73.1588C433.158 76.675 431.733 72.6802 432.553 75.3335ZM427.307 91.4113C427.556 91.152 427.797 90.8897 428.029 90.6245C423.817 95.1284 417.509 98.0495 411.328 99.8446C409.74 100.293 411.608 99.8677 409.484 100.413C407.801 100.834 405.937 101.13 406.846 100.923C407.057 100.89 410.528 100.123 412.173 99.5792C417.185 97.9041 415.831 98.1694 416.14 98.0884C416.482 97.9722 419.565 96.6973 421.148 95.7593C425.044 93.2997 427.245 92.3005 430.97 86.5138C428.877 89.8724 430.264 88.2706 427.307 91.4113ZM226.571 99.1277C226.366 99.1559 222.831 99.0102 221.543 98.974C221.747 98.9458 225.287 99.0909 226.571 99.1277ZM127.172 55.9632C126.083 56.0207 134.197 55.9702 132.059 55.9458C131.58 55.9411 128.181 55.957 127.172 55.9632ZM163.677 55.5478C164.765 55.5147 160.384 55.5482 160.395 55.5893C160.4 55.6028 163.536 55.5523 163.677 55.5478ZM357.926 103C357.737 103 354.814 102.941 354.713 102.935C352.764 102.833 362.462 103.014 357.926 103ZM208.076 54.5784C204.288 54.7054 215.692 54.4597 212.206 54.4891C212.033 54.4908 208.258 54.5724 208.076 54.5784ZM223.934 54.1929C223.026 54.2171 218.982 54.2937 218.929 54.3138C218.849 54.3463 223.477 54.2569 223.934 54.1929ZM282.871 101.063C283.268 101.149 278.038 100.924 276.18 100.873C275.754 100.787 281.018 101.013 282.871 101.063ZM316.511 102.147C294.074 101.547 298.98 101.538 317.847 102.147C317.872 102.197 317.928 102.183 316.511 102.147ZM287.774 101.265C288.595 101.245 291.142 101.339 292.846 101.397C292.542 101.42 289.025 101.297 287.774 101.265ZM117.478 55.9398C118.879 55.8946 125.204 55.9134 124.06 55.9372C123.842 55.9449 116.937 55.9666 117.478 55.9398ZM356.1 103.041C356.647 103.13 349.916 102.987 349.339 102.956C347.229 102.85 355.635 103.056 356.1 103.041ZM251.054 100.075C249.873 100.088 246.51 99.9486 244.336 99.8755C245.328 99.8646 249.225 100.013 251.054 100.075ZM266.724 100.639C266.591 100.636 263.584 100.531 263.447 100.524C260.985 100.39 269.489 100.686 266.724 100.639ZM50.4215 8.88156C50.3405 8.90599 48.1772 9.73229 48.1146 9.76317C46.2087 10.4838 52.6161 8.04452 50.4215 8.88156Z" fill="black" fill-opacity="0.28"/>
</svg>
