<svg width="437" height="195" viewBox="0 0 437 195" fill="none" xmlns="http://www.w3.org/2000/svg">
<path d="M215.182 167.408C215.599 167.372 216.145 167.362 216.56 167.369C216.69 167.371 216.624 167.409 216.714 167.412C216.89 167.419 217.053 167.395 217.227 167.405C217.284 167.408 217.213 167.469 217.273 167.472C217.604 167.487 217.916 167.461 218.251 167.463C219.9 167.476 221.522 167.464 223.191 167.463C223.742 167.463 224.411 167.526 224.98 167.482C225.046 167.477 225.006 167.402 225.019 167.396C225.217 167.297 225.151 167.45 225.28 167.468C225.794 167.539 226.365 167.539 226.859 167.501C227.069 167.484 226.858 167.329 227.07 167.414C227.084 167.42 227.031 167.506 227.089 167.514C227.219 167.533 227.467 167.514 227.569 167.519C227.764 167.53 227.796 167.529 227.981 167.528C228.233 167.526 228.533 167.567 228.804 167.543C228.862 167.538 228.786 167.447 228.878 167.43C228.97 167.413 229.214 167.417 229.296 167.437C229.379 167.458 229.344 167.532 229.358 167.549C229.478 167.69 229.761 167.489 229.797 167.483C230.459 167.39 231.027 167.497 231.649 167.491C232.121 167.485 232.626 167.44 233.075 167.44C233.213 167.44 233.344 167.444 233.474 167.449L234.248 167.43L233.991 168.189C233.85 168.536 233.705 168.855 233.583 169.222C233.565 169.274 233.702 169.256 233.681 169.319C233.458 169.996 233.211 170.658 232.893 171.297C232.861 171.36 232.786 171.236 232.748 171.297C232.516 171.676 232.069 172.245 232.449 172.659C232.332 172.93 232.193 173.26 232.009 173.473C231.891 173.61 231.828 173.412 231.808 173.627C231.803 173.675 231.928 173.655 231.913 173.725C231.851 174.019 231.707 174.312 231.662 174.609C231.653 174.669 231.752 174.688 231.764 174.71C231.853 174.895 231.546 175.035 231.512 175.077C231.256 175.403 231.207 175.691 231.08 176.035C231.05 176.115 231.212 176.067 231.189 176.145C231.064 176.552 230.904 176.962 230.706 177.332C230.661 177.414 230.58 177.294 230.553 177.331C230.435 177.495 230.63 177.612 230.521 177.772C230.499 177.805 230.411 177.75 230.398 177.753C230.196 177.799 230.395 177.975 230.39 178.004C230.336 178.374 230.014 178.506 229.928 178.85C229.918 178.892 230.071 178.846 230.036 178.96C229.8 179.717 229.481 180.493 229.115 181.194C229.059 181.303 228.996 181.187 228.982 181.19C228.762 181.243 228.972 181.406 228.968 181.446C228.925 181.765 228.625 181.967 228.836 182.271C228.393 183.243 228.116 184.273 227.659 185.232C227.546 185.469 227.422 185.701 227.282 185.927C227.274 185.941 227.166 185.87 227.149 185.899C226.945 186.253 227.155 186.247 227.287 186.579C227.321 186.663 226.98 186.755 226.954 186.765C226.858 186.8 226.706 186.672 226.684 186.688C226.511 186.818 227.101 187.002 227.017 187.233C227.013 187.24 226.917 187.17 226.9 187.186C226.844 187.234 226.865 187.309 226.807 187.355C226.672 187.458 226.373 187.403 226.462 187.669C226.473 187.703 226.816 187.783 226.725 187.984C226.689 188.063 226.561 188.429 226.502 188.523C226.444 188.617 226.364 188.509 226.356 188.514C226.116 188.737 226.097 188.612 225.84 188.674C225.584 188.737 226.089 188.878 226.123 188.954C226.157 189.03 225.968 189.189 225.91 189.224C225.852 189.258 225.808 189.172 225.769 189.208C225.515 189.445 225.965 189.425 226.008 189.549C226.108 189.842 225.681 189.886 225.57 190.08C225.54 190.132 225.639 190.117 225.628 190.17C225.585 190.378 225.429 190.456 225.45 190.718C225.453 190.761 225.603 191.022 225.401 191.081C225.372 191.09 225.3 191.009 225.249 191.086C225.172 191.201 225.07 191.421 225.05 191.567C225.036 191.675 225.225 191.614 225.133 191.723C225.092 191.771 225.044 191.636 224.974 191.73C224.905 191.823 224.811 192.091 224.777 192.194C224.743 192.296 224.874 192.281 224.878 192.292C224.903 192.358 224.885 192.571 224.879 192.589C224.692 193.12 224.441 193.599 224.217 194.089L223.979 194.755L223.73 194.089C223.638 193.757 223.534 193.429 223.391 193.108C223.362 193.043 223.264 193.129 223.258 193.12C223.128 192.91 223.497 192.978 223.54 192.783C223.317 192.89 223.325 192.781 223.242 192.631C223.201 192.558 223.127 192.633 223.116 192.629C222.939 192.564 223.085 192.42 223.113 192.387C223.217 192.263 223.032 192.238 223.101 192.154C223.17 192.071 223.342 192.142 223.284 191.989C223.186 191.976 223.013 192.169 222.936 192.065C222.647 191.673 222.518 190.791 222.407 190.431C222.296 190.072 222.24 189.964 222.195 189.748C222.112 189.358 222.007 189.55 221.854 189.345C221.701 189.139 222.118 189.114 222.186 189.051C222.255 188.989 222.159 188.984 222.189 188.927C222.218 188.871 222.305 188.938 222.287 188.837C222.268 188.736 222.03 188.529 221.934 188.525C221.731 188.519 221.587 188.704 221.562 188.428C221.56 188.412 221.675 188.424 221.665 188.365C221.581 187.897 221.419 187.437 221.324 186.974C221.311 186.91 221.437 186.925 221.431 186.888C221.364 186.497 221.234 186.693 220.964 186.564C221.243 186.513 221.362 186.344 221.261 186.066C221.2 185.898 221.098 185.968 220.979 185.889C220.943 185.866 220.977 185.719 220.916 185.717C220.717 185.71 220.564 185.892 220.538 185.576C220.537 185.562 220.646 185.568 220.636 185.522C220.572 185.228 220.381 185.259 220.251 184.963C220.149 184.73 220.105 184.266 220.025 183.988C220.305 183.892 220.148 183.66 219.92 183.625C219.865 183.446 219.786 183.26 219.75 183.08C219.738 183.018 219.831 183.028 219.837 183.017C219.929 182.855 219.719 182.845 219.698 182.81C219.482 182.423 219.495 182.038 219.223 181.692C219.213 181.68 219.024 181.724 219.119 181.57C219.125 181.56 219.255 181.66 219.194 181.472C219.135 181.285 219.104 180.901 218.929 180.674C218.887 180.619 218.688 180.514 218.754 180.347C218.763 180.325 218.82 180.325 218.839 180.29C218.9 180.18 218.708 180.201 218.824 180.054C218.94 179.908 218.979 179.676 218.782 179.455C218.776 179.448 218.617 179.437 218.589 179.355C218.546 179.223 218.507 179.029 218.456 178.893C218.432 178.829 218.364 178.901 218.358 178.89C218.154 178.47 218.115 178.132 217.975 177.653C217.949 177.565 217.753 177.358 217.777 177.161C217.802 176.945 218.253 176.993 218.003 176.609C217.901 176.455 217.354 176.413 217.485 176.021C217.21 175.454 217.127 174.867 216.83 174.306C216.816 174.281 216.667 174.241 216.646 174.177C216.615 174.084 216.652 174.013 216.631 173.945C216.546 173.662 216.408 173.425 216.318 173.155C216.283 173.052 216.35 173.068 216.309 172.946C216.267 172.824 216.168 172.769 216.142 172.593C216.123 172.46 216.216 172.285 216.17 172.116C216.032 172.159 215.993 172.045 215.884 171.857C215.864 171.821 215.832 171.88 215.82 171.863C215.77 171.798 215.783 171.715 215.732 171.654C215.719 171.639 215.674 171.655 215.662 171.643C215.554 171.548 215.583 171.314 215.588 171.274C215.606 171.121 215.528 171.081 215.517 170.973C215.506 170.865 215.591 171.001 215.564 170.88C215.507 170.629 215.386 170.324 215.298 170.081C215.263 169.983 215.234 170.069 215.227 170.056C215.141 169.86 215.121 169.637 214.978 169.563C215.192 169.327 214.908 169.451 214.857 169.144C214.853 169.12 214.963 169.047 215.014 169.127C215.064 169.207 215.075 169.352 215.149 169.462C215.166 169.488 215.346 169.607 215.362 169.627C215.487 169.779 215.304 169.874 215.296 169.887C215.221 170.034 215.426 170.185 215.456 170.234C215.589 170.458 215.638 170.671 215.746 170.86C215.816 170.984 215.959 170.946 215.995 171.05C216.116 171.395 215.96 171.588 216.259 171.846C216.324 171.901 216.457 171.774 216.428 172.066C216.427 172.084 216.381 172.311 216.496 172.389C216.511 172.399 216.559 172.381 216.57 172.397C216.642 172.505 216.635 172.597 216.704 172.718C216.773 172.839 216.862 172.982 216.903 173.134C216.928 173.226 216.878 173.373 216.871 173.424C216.85 173.568 217.01 173.655 216.956 173.759C216.902 173.864 216.721 173.763 216.74 173.979C216.878 173.937 217.024 173.903 217.165 173.865C217.328 174.293 217.448 174.73 217.621 175.156C217.643 175.209 217.699 175.127 217.725 175.182C217.832 175.418 217.858 175.648 217.978 175.889C218.072 176.075 218.241 176.255 218.344 176.448C218.217 176.635 218.393 176.913 218.462 177.136C218.487 177.215 218.436 177.227 218.442 177.287C218.462 177.513 218.586 177.359 218.633 177.405C218.837 177.606 218.478 177.76 218.595 178.042C218.6 178.057 218.87 178.168 218.893 178.188C219.037 178.319 218.834 178.24 218.858 178.346C218.902 178.54 218.902 178.686 219.045 178.88C219.087 178.936 219.275 179.04 219.222 179.198C219.215 179.219 219.143 179.235 219.144 179.25C219.167 179.508 219.386 179.435 219.512 179.542C219.639 179.648 219.568 179.91 219.54 179.968C219.469 180.12 219.459 179.901 219.446 179.9C219.287 179.878 219.367 180.02 219.4 180.14C219.189 180.236 219.263 180.393 219.435 180.263C219.453 180.249 219.399 180.167 219.4 180.14C219.651 180.163 219.75 180.329 219.622 180.599C219.563 180.725 219.419 180.679 219.565 180.943C219.631 181.063 219.766 180.958 219.85 181.054C220.044 181.273 220.026 181.657 220.149 181.911C220.194 182.003 220.245 181.879 220.278 181.941C220.368 182.105 220.362 182.281 220.462 182.442C220.471 182.457 220.548 182.385 220.57 182.438C220.739 182.843 220.817 183.22 220.979 183.648C221.057 183.855 221.252 184.204 221.323 184.422C221.448 184.798 221.48 185.306 221.635 185.61C221.736 185.809 221.818 185.727 221.919 185.791C222.116 185.913 221.997 186.302 221.975 186.356C221.974 186.358 221.883 186.188 221.868 186.302C221.781 186.396 221.974 186.354 221.975 186.356C221.961 186.391 222.073 186.755 222.119 186.818C222.145 186.853 222.232 186.796 222.244 186.815C222.511 187.258 222.719 187.724 222.857 188.222C222.858 188.231 222.743 188.259 222.747 188.28C222.804 188.577 223.007 188.706 223.176 188.906C223.344 189.106 223.387 189.298 223.246 189.505C223.336 189.67 223.345 189.95 223.347 190.112C223.349 190.275 223.577 190.214 223.586 190.225C223.875 190.567 223.835 190.841 223.969 191.256C224.033 191.454 224.21 191.827 224.315 192.028C224.397 192.187 224.382 192.306 224.473 192.447C224.486 192.466 224.579 192.408 224.585 192.413C224.771 192.539 224.493 192.547 224.462 192.599C224.349 192.785 224.293 192.896 224.45 193.087C224.486 193.131 224.9 193.147 224.956 193.232C225.028 193.341 224.882 193.343 224.96 193.457C224.967 193.467 225.045 193.436 225.071 193.514C225.079 193.539 225.088 193.565 225.096 193.59H222.851C222.989 193.256 223.159 192.905 223.276 192.553C223.293 192.501 223.142 192.52 223.165 192.445C223.273 192.092 223.413 191.713 223.593 191.396C223.638 191.318 223.71 191.403 223.743 191.395C223.945 191.343 223.766 191.1 223.77 191.072C223.878 190.411 224.262 190.015 224.386 189.347C224.393 189.31 224.232 188.953 224.494 188.915C224.511 188.912 224.777 188.877 224.661 188.718C224.654 188.708 224.512 188.739 224.57 188.616C224.627 188.493 224.623 188.261 224.813 188.133C224.873 188.092 225.145 188.044 225.026 187.814C225.017 187.799 224.703 187.396 225.016 187.408C225.067 187.41 225.358 187.534 225.277 187.282C225.261 187.233 225.171 187.277 225.165 187.163C225.156 186.989 225.308 186.817 225.244 186.582C225.232 186.541 225.081 186.33 225.274 186.275C225.304 186.266 225.391 186.335 225.424 186.281C225.578 186.022 225.618 185.706 225.789 185.448C225.85 185.357 225.992 185.467 226.073 185.378C226.154 185.29 226.272 185.094 226.238 184.959C226.205 184.823 225.906 184.848 225.945 184.677C225.95 184.655 225.955 184.634 225.961 184.612C226.14 183.895 226.532 183.264 226.807 182.583C226.849 182.479 226.726 182.533 226.781 182.377C226.985 181.803 227.265 180.786 227.642 180.361C227.944 180.02 227.876 180.563 228.051 180.282C228.135 180.147 227.9 179.881 227.904 179.842C227.938 179.463 228.157 179.27 228.233 178.945C228.249 178.878 228.107 178.898 228.122 178.841C228.171 178.647 228.297 178.471 228.354 178.289C228.379 178.207 228.284 178.189 228.318 178.118C228.4 177.948 228.496 177.807 228.644 177.666C228.658 177.653 228.73 177.799 228.783 177.671C228.868 177.462 229.048 177.231 229.054 176.957C229.055 176.876 228.853 176.799 229.051 176.696C229.093 176.674 229.322 176.805 229.178 176.548C229.154 176.505 228.985 176.099 229.224 176.017C229.286 175.996 229.522 175.968 229.524 175.871C229.523 175.857 229.397 175.864 229.413 175.789C229.473 175.524 229.585 175.264 229.649 174.992C229.666 174.92 229.516 174.982 229.545 174.875C229.624 174.582 229.788 174.238 229.928 173.974C229.979 173.876 230.044 173.98 230.056 173.977C230.263 173.916 230.072 173.766 230.075 173.721C230.093 173.447 230.267 173.296 230.327 173.059C230.343 172.994 230.224 173.001 230.219 172.985C230.18 172.823 230.327 172.987 230.379 172.912C230.524 172.703 230.613 172.444 230.689 172.207C230.717 172.12 230.563 172.173 230.589 172.096C230.743 171.635 230.936 171.169 231.17 170.751C231.215 170.672 231.283 170.757 231.31 170.747C231.497 170.679 231.372 170.433 231.369 170.386C231.356 170.173 231.462 170.13 231.51 169.963C231.727 169.205 232.115 168.326 232.425 167.617L233.474 169.116C233.414 169.112 233.356 169.109 233.299 169.105C232.258 169.041 231.449 168.942 230.456 168.941C230.393 168.941 230.456 169.053 230.402 169.055C229.699 169.063 229.007 169.002 228.303 169.013C228.246 169.014 228.329 169.116 228.236 169.12C228.046 169.129 227.805 169.116 227.613 169.078C227.519 169.061 227.645 168.981 227.55 168.964C227.33 168.927 227.095 168.914 226.869 168.922C226.773 168.926 226.918 169.028 226.793 169.026C225.942 169.009 225.106 168.992 224.246 168.849C224.187 168.839 224.136 168.656 224.01 168.688C224.001 168.737 224.001 168.796 223.997 168.849C222.758 168.837 221.532 168.734 220.29 168.684C220.238 168.682 220.328 168.766 220.227 168.762C219.64 168.739 219.07 168.734 218.47 168.638C218.41 168.628 218.441 168.501 218.265 168.515C218.234 168.518 217.97 168.526 217.902 168.551C217.892 168.554 217.941 168.614 217.855 168.613C217.36 168.602 216.842 168.568 216.347 168.517C216.268 168.509 216.353 168.456 216.296 168.45C215.893 168.408 215.455 168.434 215.069 168.375C214.812 168.336 214.907 168.253 214.77 168.167C214.751 168.155 214.591 168.151 214.583 168.103C214.562 167.984 214.639 167.851 214.607 167.723C214.602 167.702 214.474 167.718 214.474 167.695C214.474 167.695 214.474 167.695 214.474 167.695C214.474 167.688 214.485 167.677 214.513 167.662C214.522 167.657 214.677 167.63 214.715 167.606C214.742 167.589 214.694 167.542 214.748 167.519C214.803 167.497 214.862 167.536 214.952 167.508C215.042 167.479 215.002 167.424 215.182 167.408ZM223.355 190.844C223.298 191.016 223.697 190.892 223.549 190.783C223.541 190.778 223.358 190.835 223.355 190.844ZM217.256 174.797C217.211 175.011 217.42 175.07 217.46 174.916C217.499 174.763 217.27 174.732 217.256 174.797ZM216.499 173.026C216.495 173.259 216.836 173.17 216.685 172.978C216.677 172.967 216.499 173.013 216.499 173.026ZM215.405 168.151C215.403 168.149 215.289 168.145 215.286 168.148C215.225 168.204 215.454 168.212 215.405 168.151ZM215.755 171.266C215.739 171.344 215.852 171.51 215.872 171.413C215.888 171.335 215.774 171.169 215.755 171.266ZM225.365 190.011C225.372 190.011 225.406 189.936 225.37 189.925C225.255 189.889 225.248 190.008 225.365 190.011ZM214.622 168.226C214.783 168.678 214.679 169.025 214.528 168.525C214.5 168.434 214.659 168.694 214.636 168.574C214.592 168.356 214.424 168.262 214.411 168.027C214.408 167.985 214.613 168.201 214.623 168.227C214.623 168.227 214.622 168.227 214.622 168.226ZM222.914 191.092C222.91 191.097 222.944 191.205 222.95 191.206C223.095 191.218 223.026 191 222.914 191.092ZM227.272 185.598C227.286 185.597 227.388 185.353 227.38 185.341C227.208 185.131 227.002 185.624 227.272 185.598ZM220.031 183.981C219.879 183.905 219.817 183.769 219.92 183.626C219.955 183.745 219.995 183.862 220.031 183.981Z" fill="black" fill-opacity="0.28"/>
<path d="M152.376 124.575C151.629 124.567 148.595 124.521 147.267 124.508C148.784 124.489 155.081 124.604 152.376 124.575ZM17.4524 130.456C17.5095 130.479 17.6557 130.54 17.7292 130.569C17.771 130.586 17.8079 130.6 17.8399 130.612C17.9024 130.638 17.9799 130.669 17.9832 130.669L18.9606 130.84C18.9601 130.837 19.0285 130.832 19.1635 130.824C19.2735 130.817 19.5922 130.802 19.6066 130.799C19.7699 130.787 19.9636 130.775 20.1868 130.761C20.6093 130.734 21.299 130.697 21.606 130.675C21.3171 130.688 20.6688 130.716 20.2273 130.736C19.9993 130.746 19.7976 130.755 19.6263 130.763C19.5675 130.766 19.5956 130.765 19.4557 130.771C19.3469 130.776 19.2554 130.78 19.1817 130.783C19.0343 130.79 18.9583 130.794 18.9588 130.795L18.0002 130.627C15.5014 129.595 13.0057 128.307 11.1152 127.18C10.6948 126.928 11.8146 127.534 10.8205 126.943C9.83117 126.336 9.98167 126.526 8.55301 125.582C7.0317 124.785 -0.558481 118.598 0.0327432 113.595C0.353023 107.211 5.48456 104.355 9.15329 102.182C13.119 100.028 17.2353 98.5348 21.4395 97.2191C23.3691 96.6028 26.3262 95.9865 28.2717 95.658C16.9373 98.136 28.378 95.5553 31.5711 95.2224C32.4208 95.1484 31.9998 94.8167 43.2806 93.8088C50.4479 93.2777 43.946 93.9045 55.7121 93.084C46.4682 93.4891 55.7674 92.8922 62.6598 92.6014C63.9333 92.531 73.7592 92.1974 78.2509 92.0953C79.8429 92.0535 82.0164 91.9215 83.9909 91.8797C85.3456 91.8512 86.3742 91.8764 88.4262 91.8399C97.942 91.6735 107.185 91.6102 116.717 91.6221C111.103 91.8473 121.15 91.7163 121.511 91.7318C123.78 91.7943 113.538 91.8033 117.606 91.8437C123.227 91.8387 128.856 91.854 134.541 91.8857C129.965 91.8271 140.603 91.7333 142.622 91.8321C141.812 91.5977 168.349 92.3151 172.386 92.3379C173.23 92.339 167.711 92.1337 180.524 92.4086C181.905 92.4393 181.381 92.4942 182.106 92.5016C182.54 92.5062 185.172 92.3494 187.979 92.518C189.003 92.5817 182.442 92.5798 196.85 92.8214C191.118 92.4837 216.821 93.1385 221.538 93.3181C220.595 93.2664 219.652 93.2149 218.709 93.1636C223.378 93.3529 224.217 93.3007 225.272 93.3302C229.527 93.4496 235.357 93.6706 239.29 93.7646C243.916 93.8755 243.956 93.7399 249.339 93.9333C248.062 93.8697 246.784 93.8063 245.503 93.7431C249.238 93.8469 252.928 93.9508 256.65 94.0565C248.047 94.0114 258.497 94.1139 259.216 94.1293C260.322 94.1521 258.732 94.1844 260.581 94.2242C260.771 94.2278 260.501 94.1503 263.34 94.218C269.259 94.3596 268.311 94.4231 270.78 94.4882C271.008 94.4939 270.213 94.409 274.546 94.5101C288.222 94.8289 274.495 94.5578 273.948 94.5517C273.275 94.5453 277.896 94.9355 266.334 94.5305C270.213 94.6645 270.581 94.7922 271.028 94.8072C271.431 94.8204 278.223 94.9872 278.585 94.9929C281.898 95.0421 278.987 94.8829 279.632 94.8859C280.161 94.8884 288.248 95.2114 290.208 95.0197C294.142 95.3493 287.856 95.1615 281.426 95.0228C280.482 95.0433 287.586 95.2793 288.007 95.2903C297.305 95.5387 292.155 95.2157 294.186 95.1515C295.248 95.1178 298.975 95.3423 295.532 95.0854C303.826 95.2859 298.79 95.2498 299.33 95.2783C300.126 95.3202 303.134 95.351 303.495 95.3666C304.039 95.3902 302.146 95.3987 304.29 95.4746C304.647 95.4869 308.094 95.4766 303.651 95.3144C309.587 95.4818 309.071 95.3829 311.053 95.6041C315.046 95.3815 313.981 95.8687 315.593 95.9271C319.907 96.0816 318.65 95.796 318.881 95.7894C320.428 95.7503 332.224 96.1133 335.13 96.1351C334.053 96.2974 325.629 95.9257 323.936 95.9196C317.876 95.8952 332.506 96.2109 328.073 96.3378C329.977 96.3183 331.857 96.2971 333.711 96.2743C337.111 96.4945 332.239 96.4601 341.417 96.5936C342.898 96.4965 334.937 96.4812 336.544 96.4132C337.417 96.3735 342.822 96.4698 342.931 96.4398C343.058 96.4055 338.098 96.3503 338.914 96.3088C340.76 96.2314 357.999 96.6548 344.841 96.4875C348.115 96.5467 349.767 96.7623 352.447 96.8036C352.842 96.8096 353.25 96.8115 353.68 96.808C354.475 96.8015 353.304 96.7241 352.45 96.6464C351.719 96.5799 351.232 96.514 352.452 96.4953C353.602 96.4761 356.382 96.5054 361.56 96.5851C361.966 96.7099 354.672 96.5313 354.423 96.5332C354.149 96.5421 355.504 96.8265 355.736 96.8427C356.518 96.9166 374.472 96.9567 378.291 97.0347C376.582 96.9223 392.003 96.8721 393.385 96.6818C393.79 96.653 392.27 96.6201 392.704 96.5931C393.808 96.5251 396.995 96.4095 399.177 96.2469C401.983 96.0443 404.791 95.6779 406.528 95.3589C410.399 94.6152 409.831 94.5759 410.054 94.543C411.699 94.1413 410.397 94.5231 411.418 94.2596C413.067 94.162 422.806 89.991 422.969 89.3821C423.085 89.2988 421.689 90.118 423.473 88.9065C423.623 88.7971 423.686 88.7974 424.333 88.3351C424.924 87.8642 426.32 86.989 428.042 84.5782C429.004 83.1223 429.109 82.5788 429.081 82.653C429.037 82.711 428.73 83.3661 428.266 84.0565C427.35 85.4969 425.578 87.092 426.599 85.9757C429.644 82.5219 428.866 82.4106 429.348 81.3922C429.466 81.0572 430.421 78.2579 429 75.1788C429.974 77.3441 430.141 79.6104 429.433 81.7761C430.449 79.673 429.552 75.3255 428.286 73.6263C427.754 72.804 428.362 73.3634 426.992 71.6361C426.841 71.4523 426.38 71.0418 426.482 71.2329C426.545 71.4428 427.396 72.1389 428.76 74.5344C428.908 74.9665 427.678 72.6042 426.76 71.6851C426.613 71.5331 426.056 71.0579 424.846 69.8208C424.701 69.6696 425.542 70.2806 425.316 69.9652C425.008 69.6908 424.06 68.1756 418.529 65.3618C418.166 65.1817 419.381 65.893 419.027 65.7178C418.768 65.554 416.015 64.1912 415.631 64.0632C415.291 63.921 416.697 64.6153 416.293 64.4492C414.282 63.6183 411.702 62.3448 415.849 64.0679C414.533 63.454 413.02 62.8385 411.647 62.3378C413.139 63.0497 409.326 61.5766 407.284 61.0786C393.829 58.1317 402.814 60.2566 400.492 59.8141C396.708 59.3069 399.635 59.3685 393.981 58.7677C393.566 58.7271 397.747 59.2811 392.982 58.7544C391.927 58.6476 389.949 58.4655 386.907 58.2864C388.905 58.3872 391.189 58.5407 392.847 58.702C392.103 58.4033 385.566 58.1916 385.297 58.2041C379.927 58.0101 383.364 58.0483 375.517 57.9364C374.819 57.9289 373.056 57.8512 371.585 57.8502C365.27 57.8353 380.236 58.0544 380.364 58.1774C380.796 58.1725 364.834 57.8839 364.166 57.9007C361.823 57.8044 371.482 57.94 369.616 57.833C368.948 57.7379 346.281 57.7529 341.582 57.7874C336.308 57.781 334.018 57.5767 333.966 57.8332C332.475 57.5945 331.143 57.7795 330.456 57.7844C322.199 57.8467 322.404 57.8438 315.252 57.9578C313.637 57.984 312.42 57.9256 311.868 57.9456C311.555 57.9574 312.144 58.029 310.608 58.0741C308.52 58.1326 295.37 58.2435 294.478 58.216C293.526 58.1873 299.913 58.1157 298.764 58.0621C294.166 58.1237 289.672 58.211 284.884 58.2796C282.957 58.3067 283.946 58.2427 283.112 58.2549C282.769 58.2597 276.044 58.4097 276.321 58.4229C276.973 58.452 297.858 58.0977 292.36 58.2696C291.307 58.302 287.532 58.2481 288.133 58.3756C269.519 58.6324 250.881 58.9115 232.233 59.1475C242.925 58.9032 255.001 58.7971 266.198 58.6105C267.704 58.5855 272.928 58.5149 272.296 58.4576C262.783 58.5936 250.91 58.8172 241.755 58.913C241.46 58.9161 242.539 58.8426 241.437 58.8503C239.36 58.866 232.71 59.0548 231.584 59.0469C231.393 59.0445 235.185 58.9153 234.03 58.885C231.067 58.8087 230.319 59.0856 227.766 59.1178C225.783 59.1441 212.525 59.1965 209.223 59.3111C205.713 59.4364 218.996 59.2391 218.014 59.3183C209.037 59.5013 199.907 59.5302 191.432 59.6149C191.282 59.6164 192.579 59.6554 190.689 59.679C187.401 59.7193 186.514 59.6554 184.908 59.6571C183.168 59.66 177.051 59.7118 176.239 59.6909C176.135 59.6883 177.37 59.6126 177.558 59.6093C180.218 59.5632 181.169 59.6446 181.411 59.6442C182.323 59.641 183.22 59.5999 184.053 59.5953C185.425 59.5878 186.182 59.6138 187.997 59.6013C189.249 59.5926 188.041 59.5411 189.246 59.5333C189.685 59.5307 194.436 59.6306 194.879 59.4789C195.042 59.4602 156.095 59.6683 152.187 59.6556C155.553 59.669 158.89 59.6783 162.205 59.6841C155.526 59.6693 147.233 59.7663 146.702 59.6142C121.684 59.5592 96.2901 59.3206 71.3135 58.1269C66.7433 57.8834 69.1226 57.9631 61.9393 57.5529C63.7657 57.6881 65.6382 57.8179 67.5547 57.9424C63.9554 57.8024 46.9571 56.5128 44.3299 56.1337C43.9194 56.0831 43.7602 56.1521 39.2745 55.588C35.4536 55.0736 35.3355 54.9951 33.0466 54.6071C31.2707 54.2967 29.5064 53.9317 29.0605 53.8283C28.8866 53.789 28.7673 53.7565 28.5894 53.7099C28.3978 53.6599 28.2275 53.6154 27.6829 53.4828C24.6363 52.6781 26.9717 53.3935 24.2588 52.4998C24.8885 52.7053 25.5626 52.9038 26.2805 53.0959C23.1134 52.3678 18.0923 49.7812 23.3919 52.1353C24.1443 52.4016 23.4865 52.1898 24.061 52.3881C49.5695 57.5338 29.2115 55.0258 20.3973 50.7495C20.1721 50.582 18.5947 49.7126 18.1474 48.2275L18.1167 47.9356C18.3966 43.2224 20.6698 35.5934 20.9181 35.3159C21.143 34.7506 20.3457 36.8591 21.4332 34.1083C21.5263 33.8176 23.3358 29.5927 25.5371 26.6144C27.6918 23.613 29.7321 21.65 27.6011 23.9978C26.5541 24.8423 22.0284 32.0109 21.4923 34.0204C22.9149 29.3167 30.2491 20.6551 31.4372 20.0919C35.2203 16.6974 24.2796 26.712 32.7444 19.0317C39.7955 13.7957 33.1153 18.6445 35.865 16.667C37.3183 15.3855 46.1646 10.9293 45.9545 11.1409C49.0866 9.78995 47.2557 10.5963 47.6438 10.4288C47.9883 10.2298 54.2269 7.87012 56.3084 7.26577C56.5554 7.18663 55.7817 7.44687 56.037 7.36529C56.5053 7.17775 62.7015 5.34168 62.9288 5.30822C63.0841 5.26393 61.6221 5.66395 62.2215 5.495C62.9009 5.27783 68.9158 3.72482 69.2246 3.66779C69.7041 3.52167 62.3077 5.43876 63.5395 5.12113C66.9262 4.18767 72.4854 2.86549 74.7595 2.36387C74.1868 2.48898 70.8941 3.24648 69.733 3.53218C70.2803 3.36924 77.3994 1.76509 74.9697 2.31646C76.5049 1.97349 75.4552 2.2049 76.323 2.01208C76.5415 1.9622 78.7809 1.47948 79.1865 1.39504C79.2513 1.37979 76.9583 1.86923 77.4173 1.77032C78.2578 1.57415 84.9231 0.205848 85.493 0.101911C87.0316 -0.206934 81.5896 0.884939 81.1128 0.992432C81.0628 0.998585 85.6838 0.0606338 85.7727 0.0465172C86.0277 -0.00897605 80.8815 1.03829 81.4602 0.924762C82.7566 0.655874 84.0006 0.40281 85.2965 0.142246C80.3437 1.11027 71.2801 3.12716 68.94 3.74331C76.1865 1.95609 83.8689 0.440334 83.8323 0.441251C83.8297 0.440098 80.679 1.09693 80.7979 1.07472C81.2785 0.969898 85.6293 0.0721291 85.8095 0.0397023C85.9442 0.0124617 86.0058 1.81597e-05 86.0058 1.52588e-05C85.9872 -0.00403177 79.7528 1.28896 79.448 1.36508C78.9232 1.47797 81.6941 0.890627 81.6966 0.892107C81.5837 0.910898 77.1763 1.86477 78.6662 1.54427C80.1559 1.21686 84.0614 0.397329 84.1913 0.373196C84.9314 0.211672 78.1469 1.64962 77.9428 1.70823C77.853 1.72513 81.4667 0.944337 81.5884 0.921895C81.6686 0.903855 78.92 1.49426 77.817 1.74383C76.9991 1.92643 79.382 1.4009 78.9598 1.49472C78.6554 1.54829 72.2454 3.01208 71.9503 3.09937C71.4871 3.21084 72.9707 2.85963 72.7557 2.91202C72.4529 2.98293 70.3894 3.48195 70.6566 3.41924C70.8653 3.34487 78.8493 1.5107 78.8191 1.53697C78.7054 1.55232 70.2543 3.48034 78.1364 1.69631C78.2039 1.68016 80.1046 1.2587 80.1627 1.24706C81.3505 0.989185 75.1836 2.33938 82.7334 0.692742C68.6868 3.80846 80.9974 1.06722 78.9125 1.53541C78.099 1.70799 72.677 2.97632 72.6565 2.99232C73.1734 2.86988 74.927 2.45042 75.5021 2.31926C75.8362 2.23402 70.9717 3.40603 72.0701 3.14642C72.6203 3.00214 77.7723 1.79379 77.9957 1.75193C80.048 1.28903 77.5329 1.85972 77.983 1.75926C78.2997 1.68506 81.3809 0.996681 81.4765 0.978126C81.5983 0.947255 77.3811 1.89359 76.4962 2.10717C75.8263 2.2629 78.3419 1.68332 77.8756 1.79173C75.0723 2.42608 69.0848 3.88847 74.8543 2.50207C75.206 2.41719 77.3705 1.91123 77.4411 1.89655C78.7823 1.58775 74.7993 2.51168 74.0614 2.69841C72.8308 2.99639 78.5979 1.61677 73.8005 2.76675C77.3937 1.90553 79.3983 1.44503 83.6219 0.516529C71.9366 3.12702 67.8557 4.19102 80.7859 1.1502C76.6897 2.07992 77.1119 2.00005 75.899 2.28447C75.1383 2.45146 69.1899 3.93073 71.9198 3.26481C72.244 3.17975 75.8856 2.29052 74.7456 2.57177C66.0744 4.72659 74.5425 2.61189 74.5691 2.61737C74.4153 2.47523 53.3571 8.30836 50.043 10.1277C46.0019 11.7528 42.6311 13.5673 41.7947 14.0363C39.1135 15.5466 41.3308 14.2782 40.7301 14.613C40.0055 14.8124 32.8472 19.8871 32.6552 20.3312C31.3832 21.4602 32.655 20.2936 32.5243 20.4118C30.5874 21.4723 23.4613 30.8975 22.7165 34.2048C22.6605 34.0754 25.6214 28.2044 23.7943 31.8731C21.8354 36.2273 21.9129 36.5553 21.8213 36.6544C20.6102 40.3377 19.9229 44.1944 19.5988 48.0711L19.5688 47.7865C33.4934 56.2495 54.4153 54.4366 72.2657 55.7234C71.8038 55.6766 57.4937 55.1081 57.0256 55.027C55.2461 54.9849 79.5631 55.9556 82.702 55.9515C80.3594 55.8858 78.0639 55.8143 75.8184 55.7367C79.6648 55.7751 88.3815 56.0561 94.0307 56.0803C95.881 56.0901 92.3303 56.0152 92.4093 56.0133C94.4673 56.0078 97.8428 56.0666 95.326 56.0848C100.497 56.0951 99.5757 56.1305 103.433 56.1601C103.632 56.161 101.983 56.1173 105.02 56.1177C106.427 56.1215 114.169 56.1352 115.107 56.0971C115.506 56.0827 111.756 55.941 111.227 56.0631C102.827 55.986 108.538 56.1135 105.298 56.0997C104.822 56.0938 105.877 56.0455 97.9308 56.0168C99.4068 55.9188 108.684 56.0494 110.359 56.0319C113.671 56.0096 99.9883 55.9158 97.6081 55.972C98.8114 55.8906 96.6002 55.9537 93.543 55.9146C90.2108 55.8702 91.6643 55.8614 89.8783 55.8374C85.002 55.7632 87.1815 55.8603 83.0068 55.7267C87.0278 55.9777 75.9232 55.6009 72.9878 55.4563C77.8602 55.5954 83.4168 55.7094 88.3483 55.7721C88.0587 55.7588 87.7698 55.7455 87.4814 55.732C88.8108 55.7539 90.1538 55.7739 91.51 55.7921C91.2925 55.7981 91.0754 55.8041 90.8586 55.81C97.8952 55.8393 99.6454 55.902 100.178 55.9095C107.432 55.9668 115.963 55.965 123.415 55.9264C124.517 55.9188 123.86 55.8654 131.87 55.8549C134.453 55.8498 132.01 55.9246 134.947 55.8906C138.632 55.7092 138.573 55.8249 139.675 55.8141C142.869 55.7801 144.697 55.7184 145.001 55.7144C148.826 55.6611 154.574 55.5858 158.81 55.5111C158.889 55.5091 156.693 55.496 159.434 55.4659C160.372 55.4548 169.122 55.5249 176.708 55.3068C174.734 55.33 172.779 55.3523 170.776 55.3743C173.121 55.3588 189.388 54.9705 185.411 54.9904C182.957 55.0068 177.001 55.2694 176.351 55.1448C181.758 55.0976 211.746 54.3454 214.071 54.3114C214.394 54.3086 212.41 54.4059 212.856 54.4012C213.202 54.3981 220.061 54.2178 220.97 54.2138C221.511 54.2119 218.483 54.3173 218.73 54.3289C218.938 54.337 227.528 54.1455 228.014 54.0691C225.91 54.1479 219.977 54.2734 223.087 54.143C223.487 54.1264 225.56 54.115 226.045 54.0944C230.548 53.9034 217.087 54.2617 215.015 54.3101C223.457 54.0243 236.487 53.7838 246.316 53.4723C250.27 53.4241 240.454 53.7088 244.931 53.6377C254.2 53.4919 247.396 53.4973 247.685 53.4831C249.973 53.3664 257.834 53.4638 257.845 53.2329C261.221 53.1795 260.138 53.2373 264.871 53.0835C264.249 53.0835 263.626 53.0836 263.002 53.0837C268.196 52.8095 279.476 52.867 278.608 52.9178C276.376 53.0451 270.516 53.0829 270.007 53.099C269.246 53.1231 267.301 53.4095 259.239 53.405C255.964 53.646 271.949 53.1877 264.686 53.481C269.559 53.3363 289.878 52.9482 292.825 52.8097C293.168 52.7922 291.565 52.6632 296.535 52.6304C298.889 52.6156 293.21 52.7513 294.287 52.764C297.651 52.7683 343.103 51.754 351.772 51.7687C352.335 51.764 352.138 51.8214 352.71 51.8167C354.553 51.7992 360.626 51.6852 363.646 51.7171C357.227 51.6125 369.845 51.6001 372.67 51.6654C377.653 51.747 377.234 51.853 379.231 51.9154C383.304 52.0561 388.868 52.1816 393.58 52.602C398.317 53.0263 402.586 53.7571 405.58 54.5313C405.221 54.1084 416.224 57.2148 420.756 59.8175C424.457 61.5723 429.379 65.1636 424.837 61.8524C430.732 65.5066 437.113 72.463 436.148 80.6408C435.971 81.9075 436.204 80.1667 435.808 82.306C435.748 82.4907 435.839 82.7928 435.203 84.547C431.969 91.4551 429.736 91.8076 429.6 92.2198C429.291 92.4428 430.056 91.7225 429.052 92.5566C427.945 93.4524 427.004 94.086 426.389 94.4905C429.707 92.317 432.982 89.0757 434.614 85.4435C436.318 81.8389 436.112 78.3604 435.914 77.0509C436.096 78.116 436.246 83.5062 433.273 87.7138C430.476 92.0161 426.12 94.7139 424.144 95.7955C424.011 95.869 424.433 95.5362 424.298 95.6118C424.295 95.6134 424.292 95.6149 424.289 95.6165C422.909 96.7845 412.988 100.295 415.069 99.6242C415.622 99.4441 420.295 98.2318 425.395 95.1268C423.998 95.9838 425.096 95.4363 424.85 95.588C421.938 97.5734 414.225 100.176 411.387 100.702C410.761 100.848 410.817 100.894 410.714 100.918C408.179 101.455 409.129 101.092 406.602 101.724C401.97 102.389 415.2 99.9773 414.233 99.8269C413.864 99.9162 406.964 101.808 399.717 102.384C392.035 103.029 384.409 103.057 384.451 103.171C384.35 103.154 383.956 103.138 383.119 103.123C380.989 103.104 373.41 103.139 371.74 103.157C371.492 103.162 371.587 103.326 371.31 103.326C370.8 103.338 360.636 103.132 357.183 103.171C359.193 103.221 360.937 103.266 363.073 103.31C351.235 103.173 352.959 103.225 356.996 103.337C357.195 103.34 357.387 103.349 357.576 103.352C360.563 103.43 364.615 103.503 364.684 103.516C364.71 103.548 357.492 103.498 352.342 103.389C349.03 103.322 347.005 103.252 348.478 103.219C348.74 103.214 350.51 103.253 352.344 103.285C354.603 103.324 356.433 103.345 353.784 103.245C353.578 103.237 353.043 103.227 352.345 103.216C350.16 103.182 346.911 103.138 346.632 103.124C345.463 103.057 349.097 103.071 352.347 103.063C354.784 103.058 356.779 103.039 356.094 102.981C354.957 103.003 353.69 103.001 352.348 102.988C349.852 102.962 347.523 102.904 345.119 102.876C343.448 102.857 343.026 102.931 342.818 102.928C339.687 102.887 341.445 102.836 340.394 102.817C339.722 102.806 333.88 102.863 334.979 102.634C314.839 102.346 329.55 102.714 341.682 102.947C337.678 102.96 330.347 102.75 326.76 102.684C325.556 102.662 326.274 102.764 324.246 102.731C320.1 102.673 299.632 102.023 294.475 101.846C297.696 101.909 296.759 101.791 294.271 101.726C291.775 101.661 293.869 101.843 293.382 101.842C292.871 101.842 281.073 101.441 279.162 101.399C287.938 101.614 285.976 101.466 278.51 101.236C279.593 101.242 280.674 101.248 281.752 101.254C277.402 101.163 268.065 100.748 265.577 100.715C265.18 100.709 266.604 100.827 266.381 100.824C264.172 100.79 256.56 100.486 256.196 100.501C255.895 100.513 259.15 100.674 257.941 100.668C257.685 100.667 254.557 100.472 251.507 100.406C250.371 100.381 251.053 100.472 250.767 100.468C248.378 100.43 249.795 100.354 245.418 100.242C242.207 100.161 239.802 100.205 235.395 100.037C249.91 100.615 237.703 100.19 231.633 100.056C230.658 100.034 231.494 100.185 225.664 99.9531C238.077 100.087 222.125 99.7278 218.885 99.634C218.707 99.6281 218.648 99.5434 217.052 99.4966C216.917 99.4928 217.11 99.5543 215.626 99.5164C201.55 99.1605 210.551 99.3511 207.878 99.2213C206.738 99.1659 199.89 99.0572 198.051 99.0104C197.628 98.9993 197.823 98.9471 196.186 98.9059C193.298 98.8334 190.678 98.8261 188.763 98.7816C188.54 98.7763 188.529 98.6858 184.9 98.6234C183.88 98.6059 182.736 98.609 184.183 98.6708C188.986 98.8749 198.116 98.9678 203.543 99.2026C208.491 99.4154 192.886 98.998 192.066 98.9803C191.767 98.9727 194.829 99.0084 191.719 98.9181C189.064 98.8414 184.217 98.8712 180.29 98.7408C179.992 98.7307 176.851 98.5244 176.99 98.5205C177.139 98.5181 181.95 98.6075 181.253 98.5529C181.167 98.5464 178.111 98.4726 177.704 98.4351C177.21 98.389 175.883 98.0242 175.224 98.0007C173.532 97.9408 174.631 98.0422 173.538 98.0116C171.183 97.9443 163.108 97.6713 162.853 97.7811C164.181 97.816 165.512 97.8514 166.847 97.8874C159.445 97.7393 162.575 97.8563 161.526 97.855C160.38 97.8542 160.702 97.7606 158.177 97.7001C157.604 97.6835 147.155 97.5068 147.339 97.5541C153.118 97.5928 150.973 97.6769 151.24 97.6836C152.252 97.7106 153.549 97.6667 154.914 97.6948C164.55 97.8985 154.826 97.8119 157.102 97.8856C157.884 97.9107 159.449 97.8839 159.783 97.8939C160.866 97.9261 160.883 98.0039 161.607 98.0129C163.299 98.0342 161.326 97.8828 161.461 97.88C162.991 97.8425 168.797 98.0554 165.167 98.0957C167.348 98.1869 167.608 98.0469 169.343 98.1442C172.798 98.3386 167.618 98.1907 166.224 98.1795C161.252 98.1397 159.651 98.0479 152.557 97.9275C150 97.8845 146.996 97.8988 145.772 97.881C145.002 97.8674 137.911 97.5121 137.71 97.8826C134.997 97.8024 130.654 97.4972 127.794 97.474C125.24 97.453 126.054 97.5927 125.815 97.5947C125.448 97.5978 122.384 97.5528 121.359 97.5608C120.153 97.57 120.761 97.6248 118.844 97.6261C113.94 97.6307 114.096 97.5056 113.592 97.4928C107.842 97.3574 110.368 97.5591 109.097 97.5658C107.985 97.5565 91.4259 97.4671 87.7528 97.5627C89.1876 97.5277 90.6381 97.4946 92.1035 97.4633C89.4757 97.3961 86.7686 97.5442 86.7201 97.4058C86.1702 97.6321 81.0458 97.5321 79.4351 97.5637C78.7937 97.5751 78.8441 97.612 78.0459 97.6254C74.8388 97.6744 68.3483 97.7852 66.4842 97.8621C59.3253 98.1282 77.5034 97.8018 79.0736 97.8334C76.0595 97.8359 59.8632 98.3014 67.4022 98.2095C68.652 98.1926 70.5802 98.0528 71.2286 98.0355C75.5573 97.9236 72.1516 98.079 72.4909 98.0804C73.0618 98.0817 75.9522 97.9454 76.7348 97.9443C77.0007 97.9445 75.3062 98.046 79.6097 97.9882C77.3667 98.0777 65.8251 98.25 64.1431 98.34C63.6123 98.3726 66.9844 98.3878 57.0386 98.5992C57.1605 98.609 57.2825 98.6188 57.4048 98.6287C51.6774 98.8655 46.0197 99.1815 40.7028 99.6317C41.2602 99.5514 44.2321 99.2471 40.503 99.5635C38.1079 99.7817 39.8869 99.6985 39.6688 99.7196C38.6916 99.8909 30.8067 100.224 22.9823 102.304C17.783 103.844 12.1997 105.903 8.50724 108.58C4.58275 111.349 4.6895 113.944 5.26293 115.217C5.48644 116.9 10.2426 121.021 10.7138 121.193C12.1024 122.277 16.3518 124.887 19.7523 126.327L18.7728 126.155C20.826 126.096 22.8665 126.038 23.7821 126.008C24.998 125.97 23.8174 125.953 24.9505 125.923C26.0506 125.895 24.9099 125.975 25.2374 125.967C28.0078 125.889 48.9121 125.305 53.8638 125.256C50.9763 125.295 35.7062 125.754 36.0267 125.786C36.1837 125.785 39.716 125.73 40.5039 125.694C41.8355 125.698 46.016 125.48 48.423 125.448C48.6595 125.446 47.7419 125.53 51.8255 125.45C53.1879 125.423 57.1371 125.287 60.8103 125.268C66.2841 125.104 95.2401 124.737 97.1574 124.689C97.2128 124.685 93.1518 124.711 95.8948 124.658C99.5534 124.59 96.2639 124.724 100.543 124.69C101.156 124.679 113.022 124.58 113.397 124.578C116.979 124.507 106.645 124.543 106.779 124.54C107.151 124.518 115.734 124.463 116.087 124.468C116.419 124.47 109.409 124.567 117.835 124.507C116.869 124.502 115.903 124.498 114.938 124.494C118.901 124.463 119.282 124.509 120.241 124.509C123.23 124.509 126.438 124.441 131.235 124.529C132.501 124.551 130.399 124.571 130.558 124.574C132.08 124.603 134.019 124.535 136.294 124.597C136.472 124.603 131.148 124.611 140.445 124.652C139.804 124.643 139.161 124.635 138.517 124.627C139.862 124.616 149.207 124.685 150.512 124.708C154.209 124.76 150.995 124.751 154.688 124.796C152.284 124.712 163.639 124.894 162.957 124.924C164.488 124.905 174.103 125.169 178.654 125.344C181.369 125.435 187.376 125.687 188.174 125.737C189.233 125.793 188.928 125.795 190.958 125.909C191.532 125.94 197.529 126.254 202.58 126.72C203.653 126.815 205.777 127.044 203.878 126.872C200.671 126.572 194.526 126.151 194.683 126.184C194.7 126.188 202.834 126.744 205.154 127.006C215.261 128.136 209.43 127.521 209.678 127.532C210.046 127.583 211.517 127.77 212.984 128C214.612 128.25 215.923 128.517 216.027 128.539C216.955 128.713 213.18 128.017 213.013 128.024C213.089 127.995 218.149 129.001 217.026 128.791C215.428 128.382 210.461 127.661 210.195 127.648C206.058 127.162 211.717 127.837 213.145 128.098C213.391 128.138 213.025 128.082 212.635 128.025C212.301 127.977 211.967 127.931 212.144 127.957C218.105 128.939 213.393 128.073 217.258 128.855C220.746 129.74 216.234 128.598 216.355 128.671C216.6 128.67 220.679 129.726 221.21 130.174C221.58 129.678 210.843 127.638 211.4 127.888C214.841 128.408 218.32 128.779 221.44 130.326C221.486 130.357 221.311 130.245 220.93 130.066C220.739 129.976 220.494 129.87 220.196 129.757C219.906 129.647 219.508 129.514 219.279 129.443C218.227 129.105 216.654 128.767 216.426 128.723C216.197 128.676 216.183 128.674 216.293 128.698C216.348 128.71 216.433 128.728 216.534 128.75C216.659 128.776 216.815 128.81 216.971 128.845C217.603 128.986 218.27 129.163 218.208 129.149C218.212 129.124 214.561 128.329 217.816 129.064C218.273 129.179 218.871 129.328 219.658 129.589C220.169 129.759 220.689 129.96 221.157 130.2C221.5 130.364 222.391 130.901 222.557 131.47C222.73 131.953 222.898 132.465 223.062 133.027C222.895 132.46 222.726 131.948 222.554 131.471C222.452 131.19 222.244 130.944 221.974 130.723C221.846 130.618 221.66 130.493 221.547 130.424C221.446 130.363 221.343 130.304 221.236 130.248C220.811 130.023 220.349 129.838 219.907 129.682C219.796 129.643 219.686 129.606 219.578 129.57C219.489 129.541 219.423 129.52 219.349 129.497C219.204 129.451 219.066 129.41 218.938 129.373C218.682 129.299 218.464 129.24 218.288 129.194C217.571 129.012 217.605 129.027 218.006 129.127C218.416 129.232 219.064 129.407 219.678 129.616C220.448 129.874 220.952 130.121 221.03 130.161C221.108 130.202 220.849 130.067 220.434 129.901C220.028 129.735 219.406 129.535 219.214 129.479C218.964 129.405 218.917 129.39 219.339 129.521C219.484 129.567 220.021 129.736 220.547 129.956C220.818 130.069 221.107 130.202 221.387 130.361C221.462 130.404 221.51 130.432 221.61 130.495C221.72 130.565 221.824 130.639 221.922 130.716C222.116 130.87 222.283 131.038 222.402 131.225C222.466 131.361 222.475 131.325 222.263 131.055C222.148 130.92 221.963 130.73 221.579 130.487C221.329 130.33 220.997 130.149 220.462 129.931C219.062 129.411 219.979 129.756 219.975 129.753C219.872 129.765 219.159 129.26 214.34 128.421C214.79 128.403 222.762 130.112 222.472 131.402C222.527 131.544 222.441 131.268 222.226 131.037C222.017 130.804 221.735 130.608 222.013 130.831C222.271 131.058 222.423 131.278 222.499 131.491C224.26 137.341 222.965 132.951 223.484 134.937C223.661 135.102 224.504 142.045 223.83 136.764C223.502 134.733 223.016 132.985 222.476 131.499C221.768 130.234 220.368 129.968 219.276 129.57C218.344 129.282 217.357 129.053 216.483 128.875C215.083 128.591 214.01 128.433 213.334 128.344C216.393 128.95 220.612 129.157 222.458 131.506C223.76 135.062 224.039 138.232 224.137 139.412C224.329 142.743 224.14 139.293 224.155 139.701C224.194 139.846 224.267 142.719 224.24 142.759C224.175 144.243 224.628 137.063 222.455 131.507C222.372 131.28 222.205 131.062 221.961 130.854C221.839 130.75 221.698 130.648 221.54 130.549C221.431 130.481 221.334 130.426 221.223 130.366C220.783 130.132 220.25 129.917 219.67 129.723C218.755 129.42 217.932 129.22 217.192 129.054C218.541 129.371 219.526 129.614 220.814 130.176C220.441 130.007 220.009 129.843 219.52 129.685C219.174 129.573 218.802 129.465 218.401 129.359C217.646 129.156 216.535 128.918 215.868 128.794C223.747 130.723 216.035 128.668 214.193 128.525C213.759 128.454 219.004 129.328 212.935 128.344C215.32 128.699 215.897 128.839 216.564 128.97C217.357 129.15 218.033 129.235 219.889 129.842C219.947 129.554 210.963 127.908 207.252 127.701C213.578 128.344 214.982 128.708 216.01 128.875C216.456 128.959 217.133 129.088 218.103 129.328C218.347 129.39 218.613 129.46 218.9 129.542C219.201 129.63 219.433 129.695 219.935 129.87C220.376 130.027 220.818 130.208 221.215 130.42C221.315 130.473 221.409 130.527 221.504 130.586C221.653 130.678 221.789 130.775 221.909 130.875C222.15 131.076 222.325 131.292 222.409 131.523C222.457 131.655 222.505 131.789 222.553 131.926C222.84 132.769 222.692 132.29 222.415 131.521C222.347 131.334 222.203 131.127 221.978 130.927C221.867 130.827 221.736 130.73 221.594 130.637C221.432 130.533 221.389 130.511 221.288 130.454C220.926 130.255 220.609 130.128 220.721 130.174C220.965 130.281 221.241 130.414 221.508 130.579C221.936 130.843 222.286 131.159 222.418 131.52C223.052 133.233 223.71 135.648 224.019 138.433C224.075 139.137 223.852 136.157 224.192 140.566C224.245 141.059 224.218 143.87 224.197 143.836C224.237 143.461 224.216 140.675 224.184 140.557C224.207 140.451 224.234 143.563 224.203 143.571C224.218 143.67 224.218 140.971 224.21 141.366C224.249 142.212 224.073 153.391 224.04 138.802C224.166 150.935 224.679 140.308 223.575 135.668C223.322 134.495 223.266 134.188 222.758 132.552C222.65 132.217 222.531 131.872 222.404 131.525C222.292 131.193 221.902 130.827 221.442 130.558C221.12 130.365 220.731 130.184 220.31 130.02C219.338 129.653 218.841 129.537 218.354 129.404C217.775 129.254 219.131 129.611 219.373 129.701C219.502 129.745 219.437 129.715 218.74 129.518C218.059 129.328 216.495 128.937 214.087 128.558C216.217 129.046 220.408 129.162 222.392 131.53C223.689 135.001 224.138 138.756 224.192 141.385C224.134 146.48 224.194 144.698 224.185 141.429C224.2 138.137 223.1 133.473 222.753 132.641C222.611 132.184 223.079 133.721 222.983 133.415C222.944 133.286 222.739 132.549 222.367 131.539C220.705 129.189 214.491 128.78 213.947 128.584C213.059 128.435 217.337 129.153 217.779 129.32C217.822 129.097 206.443 127.599 212.539 128.402C215.488 128.924 220.573 129.242 222.353 131.544C222.903 133.032 223.191 134.228 223.296 134.671C223.04 133.614 222.725 132.569 222.346 131.546C218.437 128.251 212.352 128.532 207.062 127.795C210.704 128.155 214.182 128.546 217.652 129.333C210.374 127.825 204.073 127.541 197.247 127.137C213.882 128.223 191.79 126.798 191.622 126.913C191.567 126.905 198.04 127.229 199.145 127.313C193.359 126.914 175.637 126.534 186.016 126.834C184.16 126.768 179.544 126.699 179.647 126.707C180.112 126.718 190.154 126.968 188.472 126.946C186.67 126.911 184.041 126.812 181.104 126.755C166.341 126.544 170.422 126.723 155.594 126.728C155.887 126.732 156.169 126.736 156.471 126.74C140.424 126.809 124.29 127.105 108.202 127.499C101.913 127.715 85.1559 128.264 76.9079 128.545C75.3187 128.596 67.0686 128.842 66.521 128.856C65.3864 128.881 71.5953 128.655 68.7835 128.726C68.2284 128.736 54.4956 129.222 55.4035 129.241C57.0619 129.183 61.7203 128.984 62.5634 128.966C68.1517 128.81 25.6631 130.426 23.6021 130.605C24.5623 130.58 25.3542 130.561 26.3678 130.535C23.9561 130.635 21.2492 130.748 18.961 130.85L17.9795 130.678C17.9765 130.677 17.8993 130.645 17.8371 130.619C17.8054 130.606 17.7688 130.591 17.7273 130.573C17.6544 130.543 17.5088 130.48 17.4524 130.456ZM141.49 124.54C143.12 124.522 147.085 124.58 149.52 124.601C152.847 124.624 158.374 124.621 155.984 124.681C151.211 124.611 146.302 124.566 141.49 124.54ZM70.7488 124.948C74.0392 124.916 71.4685 125.06 68.8153 125.066C68.5262 125.067 66.3499 124.991 70.7488 124.948ZM104.772 124.559C104.635 124.561 101.839 124.582 101.743 124.581C99.235 124.568 107.667 124.507 104.772 124.559ZM51.5558 98.7789C48.1313 98.9701 50.5866 98.9706 52.7695 98.8064C52.9057 98.7958 51.7818 98.7664 51.5558 98.7789ZM49.1266 98.9075C46.1988 98.9438 40.7668 99.6008 45.1338 99.2607C45.5239 99.2263 49.3201 98.8982 49.1266 98.9075ZM82.3493 124.803C81.9846 124.837 78.5885 124.874 77.1729 124.89C77.2031 124.861 80.9241 124.826 82.3493 124.803ZM5.07809 114.825C5.01154 114.749 5.60343 116.756 7.55643 118.661C9.4026 120.57 11.9309 122.181 12.2405 122.364C11.518 121.904 9.09779 120.272 7.4049 118.458C5.61571 116.638 5.07451 114.837 5.07809 114.825ZM24.9943 101.669C24.8457 101.699 23.7526 101.958 22.952 102.204C22.0054 102.49 21.2119 102.753 21.2672 102.75C21.7517 102.609 22.3524 102.429 22.9652 102.248C24.2617 101.863 25.9332 101.482 24.9943 101.669ZM83.536 97.9396C83.7659 97.9308 80.7381 97.7261 87.8489 97.8195C88.8973 97.834 85.1546 97.919 85.5312 97.925C86.3054 97.9346 86.9215 97.9377 87.4177 97.9357C84.08 97.9755 80.7439 98.0229 80.4235 98.0135C78.9043 97.9671 83.4273 97.9424 83.536 97.9396ZM114.591 97.7746C115.264 97.7405 119.735 97.8018 120.664 97.8289C120.832 97.8338 120.096 97.9277 122.037 97.9416C123.6 97.953 121.262 97.821 124.314 97.8732C127.409 97.9275 123.273 97.9525 123.545 97.9614C123.899 97.9716 128.705 97.985 128.561 98.0455C128.441 98.0886 123.295 97.9924 122.046 97.9893C120.437 97.9838 122.383 98.0801 119.702 98.0351C118.012 98.0075 118.943 97.8855 118.583 97.8752C118.261 97.8651 112.227 97.8899 114.601 97.7751C114.598 97.7749 114.594 97.7748 114.591 97.7746ZM88.3209 97.9245C88.0691 97.9303 87.7738 97.9343 87.4177 97.9357C87.72 97.932 88.0217 97.9282 88.3209 97.9245ZM132.112 124.519C130.423 124.498 135.435 124.49 137.317 124.522C137.353 124.537 132.384 124.52 132.112 124.519ZM91.4468 97.8064C96.3446 97.8242 92.8083 97.8712 88.3209 97.9245C89.7262 97.8929 89.7553 97.8033 91.4468 97.8064ZM40.5039 125.694C40.2946 125.693 40.1626 125.686 40.1454 125.67C40.6933 125.674 40.7451 125.683 40.5039 125.694ZM28.9899 125.968C27.1125 126.046 28.0453 126.034 29.5345 125.993C30.2826 125.973 31.2108 125.945 31.9439 125.92C32.5767 125.898 33.052 125.879 33.0389 125.87C33.1162 125.852 29.0893 125.963 28.9899 125.968ZM56.1264 98.5704C55.7725 98.5816 61.4415 98.1216 53.21 98.6448C57.561 98.467 52.962 98.7012 53.044 98.7176C53.1835 98.7508 60.6024 98.391 62.0933 98.3785C63.2874 98.2422 57.486 98.5257 56.1358 98.5699C56.1327 98.5701 56.1295 98.5702 56.1264 98.5704ZM170.612 98.7794C169.622 98.8214 166.495 98.7277 164.397 98.6772C165.378 98.6341 168.496 98.7257 170.612 98.7794ZM162.103 55.4071C176.598 55.1072 178.528 55.2548 165.207 55.4229C164.945 55.4262 161.225 55.4405 162.103 55.4071ZM286.472 52.4943C287.848 52.5664 283.299 52.6961 280.374 52.727C279.707 52.734 277.23 52.6913 280.054 52.5982C279.987 52.7269 284.26 52.6679 286.472 52.4943ZM94.2133 97.7313C95.6085 97.6573 99.9933 97.7049 102.361 97.7225C100.912 97.7757 96.2157 97.7468 94.2133 97.7313ZM209.729 54.5133C211.257 54.4838 212.286 54.3792 212.022 54.379C210.842 54.3776 207.988 54.51 209.729 54.5133ZM80.0173 97.8232C79.8312 97.7822 85.5364 97.6822 85.9716 97.7832C84.7032 97.7837 80.1744 97.8446 80.0173 97.8232ZM166.634 98.6529C165.729 98.6088 170.417 98.6739 171.844 98.7314C171.726 98.7775 167.224 98.6811 166.634 98.6529ZM234.318 53.8741C235.68 53.8465 239.09 53.7609 239.477 53.7166C239.94 53.6618 234.934 53.8063 234.318 53.8741ZM36.9248 17.1162C37.0435 16.9832 32.839 20.1067 31.2391 21.792C29.6927 23.3549 30.894 22.0257 32.6643 20.4452C34.4144 18.8603 36.8546 17.1551 36.9248 17.1162ZM195.267 54.8871C190.958 54.9101 195.742 54.8745 195.553 54.8021C192.652 54.8654 185.449 55.0163 190.404 54.9836C191.368 54.9773 193.915 54.9123 195.267 54.8871ZM199.246 54.8237C199.708 54.7885 202.818 54.6377 200.128 54.7053C198.885 54.7368 196.884 54.8691 199.246 54.8237ZM20.3239 43.5987C20.0506 45.4825 20.4023 42.0724 21.4795 38.2838C22.4888 34.474 24.5827 30.4928 24.7279 30.2884C24.8567 30.0576 24.9434 29.9085 24.9932 29.8237C25.2622 29.2495 27.0723 26.5023 27.3429 26.2292C26.7298 27.0025 25.2919 29.2767 25.157 29.5527C25.0891 29.6683 25.0389 29.7549 25.0042 29.8144C24.712 30.315 23.0452 33.3738 22.0062 36.6433C20.9192 39.885 20.3801 43.263 20.3239 43.5987ZM42.211 53.715C37.5415 53.2759 36.99 53.0758 37.3164 53.1248C42.0736 53.6599 38.9681 53.3494 39.1022 53.3708C39.4047 53.4191 43.0033 53.7683 42.1962 53.7135C42.2011 53.714 42.2062 53.7145 42.211 53.715ZM20.2409 48.4899C20.1958 48.4492 19.8334 48.0746 19.7343 47.7351L19.7713 48.0868C19.8609 46.9528 20.0252 45.6118 20.0384 45.5247C20.2676 43.9269 19.9395 46.1515 19.7876 48.0883L19.7499 47.7303C19.854 48.1003 20.2974 48.5564 20.5724 48.7707C20.865 48.989 20.7432 48.9518 20.2409 48.4899ZM138.023 97.9141C140.671 97.9785 138.068 98.0151 136.318 97.9593C136.175 97.9544 135.693 97.8583 138.023 97.9141ZM201.37 54.7583C201.993 54.7587 217.761 54.4314 216.811 54.3525C215.476 54.4004 197.543 54.7722 201.37 54.7583ZM319.295 51.8928C316.487 51.9492 319.554 51.7733 321.034 51.786C321.584 51.7907 320.002 51.8786 319.295 51.8928ZM72.0667 97.8623C69.2502 97.9781 69.8222 97.7787 72.2741 97.7908C72.3707 97.7914 72.1778 97.8578 72.0667 97.8623ZM297.023 52.3246C306.661 52.0316 304.224 52.4335 291.904 52.6107C292.295 52.5859 292.684 52.5612 293.074 52.5364C278.58 52.8393 292.135 52.5335 295.6 52.4319C296.927 52.3928 295.814 52.3616 297.014 52.3244C297.017 52.3245 297.02 52.3246 297.023 52.3246ZM333.946 51.6299C343.206 51.7422 325.386 51.8538 320.473 51.9979C325.382 51.7955 331.577 51.6968 323.065 51.7498C335.694 51.4916 330.518 51.6963 330.989 51.6938C331.601 51.6927 333.555 51.625 333.946 51.6299ZM309.533 52.1083C309.011 52.1268 304.992 52.1663 303.519 52.2088C305.592 52.0749 313.045 51.9806 309.533 52.1083ZM72.8713 55.4767C72.5427 55.4984 71.6396 55.499 68.4281 55.3704C69.4128 55.3912 71.498 55.4489 72.8713 55.4767ZM144.544 124.69C146.699 124.707 151.107 124.762 149.758 124.724C149.601 124.719 144.544 124.675 144.544 124.69ZM247.19 53.6736C247.647 53.6694 259.671 53.3637 255.51 53.4035C254.219 53.4166 243.351 53.7074 247.19 53.6736ZM184.898 55.1541C185.905 55.1342 190.014 55.0377 190.091 55.0232C190.376 54.9743 185.337 55.105 184.898 55.1541ZM155.572 124.833C155.838 124.835 162.592 124.944 161.835 124.924C160.464 124.875 154.556 124.809 155.572 124.833ZM147.737 97.9203C148.291 97.9279 149.019 98.0165 149.21 98.0209C149.641 98.0274 159.85 98.2033 155.947 98.2218C155.305 98.2189 140.592 97.9075 138.687 97.8751C137.945 97.7607 144.222 97.9614 145.775 97.9804C146.047 97.9833 146.221 97.9004 147.732 97.9207C147.734 97.9206 147.735 97.9205 147.737 97.9203ZM56.2422 54.7948C55.8754 54.8486 43.7544 53.9665 44.0356 53.9078C47.9356 54.2678 52.3181 54.5752 56.2422 54.7948ZM62.4234 55.1192C63.6546 55.1847 62.8283 55.156 61.4804 55.0956C60.0038 55.0285 58.0188 54.9225 57.1338 54.8678C57.0565 54.8501 62.1902 55.1125 62.4234 55.1192ZM207.694 54.845C208.901 54.8044 205.187 54.8136 206.018 54.7797C206.549 54.7582 209.247 54.7243 210.107 54.6799C210.351 54.6665 207.598 54.6591 206.803 54.6808C205.672 54.7113 206.769 54.7422 205.536 54.7711C201.435 54.8667 197.8 54.9089 193.965 54.9936C193.619 55.0013 196.305 54.9815 193.352 55.0451C192.889 55.0549 190.174 55.0573 186.611 55.1399C178.773 55.4731 173.077 55.4173 163.134 55.6433C163.499 55.6537 170.932 55.5682 171.379 55.5607C179.639 55.4445 194.509 55.1422 203.19 54.9437C205.42 54.8935 204.336 54.8793 205.297 54.856C206.055 54.8376 205.155 54.9302 207.694 54.845ZM143.385 124.699C144.429 124.737 148.062 124.746 150.428 124.774C149.597 124.737 145.654 124.72 143.385 124.699ZM116.256 56.0822C117.41 56.0792 121.041 56.0853 121.347 56.0672C121.727 56.0454 116.491 56.0471 116.256 56.0822ZM205.309 99.3095C205.422 99.31 208.239 99.3932 208.346 99.3993C210.861 99.546 202.412 99.2956 205.309 99.3095ZM272.649 101.308C274.804 101.36 276.963 101.393 277.678 101.495C276.321 101.443 272.397 101.357 272.649 101.308ZM365.702 103.499C365.345 103.391 371.495 103.5 372.867 103.508C372.204 103.559 366.129 103.584 365.702 103.499ZM73.3108 55.6332C69.3226 55.502 70.1268 55.5934 67.6219 55.4694C67.2241 55.447 65.8718 55.2635 70.2553 55.4731C71.0463 55.5084 67.9507 55.4418 73.3108 55.6332ZM289.866 52.6573C288.878 52.7411 285.661 52.8015 283.591 52.8484C284.015 52.7936 288.367 52.6978 289.866 52.6573ZM167.671 125.079C169.529 125.135 178.031 125.372 175.93 125.296C175.575 125.277 168.9 125.102 167.671 125.079ZM104.199 97.4666C107.776 97.4108 100.36 97.3685 98.1087 97.4373C99.1282 97.4309 103.948 97.4688 104.199 97.4666ZM343.326 103.113C343.506 103.114 347.219 103.192 347.372 103.198C350.412 103.338 339.897 103.118 343.326 103.113ZM250.516 100.517C251.834 100.493 260.658 100.808 262.63 100.932C260.719 100.968 248.847 100.546 250.516 100.517ZM89.3802 55.9748C86.6257 55.9346 84.0076 55.8772 81.3532 55.8054C81.956 55.8008 89.1043 55.9564 89.3802 55.9748ZM356.996 103.337C357.195 103.34 357.387 103.349 357.576 103.352C357.379 103.347 357.185 103.342 356.996 103.337ZM152.117 55.8829C154.478 55.864 153.989 55.8091 153.843 55.8094C152.063 55.815 149.45 55.9037 152.117 55.8829ZM146.06 124.765C146.838 124.798 150.867 124.812 153.118 124.848C152.477 124.818 147.871 124.775 146.06 124.765ZM343.844 51.6541C346.79 51.7036 334.783 51.9638 332.248 51.9564C332.12 51.9002 343.282 51.6424 343.844 51.6541ZM93.3423 97.3562C93.1933 97.296 87.9799 97.3951 89.0916 97.4164C89.7726 97.4282 93.5298 97.3906 93.3423 97.3562ZM326.139 52.0258C325.041 52.0648 322.437 52.0526 323.353 51.9976C324.531 51.9266 326.424 52.015 326.139 52.0258ZM224.921 54.4829C225.418 54.4795 232.051 54.2616 229.31 54.2749C227.407 54.2844 227.105 54.3684 226.658 54.3796C226.159 54.3921 215.486 54.5581 224.921 54.4829ZM411.5 55.8015C409.03 55.0785 405.994 54.3131 403.296 53.8061C404.437 53.92 410.489 55.3682 411.5 55.8015ZM112.707 97.3778C112.129 97.3354 95.5148 97.2776 105.021 97.375C105.56 97.3759 114.528 97.4611 112.707 97.3778ZM73.3108 55.6332C73.7882 55.6482 74.3412 55.6662 74.9873 55.6879C74.3457 55.6682 73.7914 55.6495 73.3108 55.6332ZM117.827 56.1727C116.922 56.2021 121.472 56.2007 122.839 56.1794C123.249 56.1448 117.941 56.1702 117.827 56.1727ZM403.076 53.8345C401.612 53.5775 398.706 53.0865 396.886 52.8732C397.168 52.8287 402.48 53.6349 403.076 53.8345ZM377.684 103.282C380.434 103.305 384.517 103.24 384.484 103.179C384.546 103.188 384.693 103.195 384.933 103.201C385.242 103.208 388.131 103.129 389.789 103.1C397.96 103.2 357.486 103.44 380.936 103.155C379.747 103.201 378.794 103.242 377.684 103.282ZM238.604 100.028C236.914 99.9086 232.153 99.8554 233.387 99.9188C234.249 99.9625 240.299 100.148 238.604 100.028ZM304.085 101.909C303.588 101.883 298.828 101.8 298.759 101.835C301.428 101.95 306.426 102.032 304.085 101.909ZM225.536 99.5649C224.463 99.5236 223.105 99.595 223.229 99.6033C224.307 99.6747 227.332 99.6785 225.536 99.5649ZM81.3573 55.9841C83.0185 56.0412 88.0322 56.0987 89.1079 56.0774C89.3106 56.0874 89.8559 56.1051 90.8656 56.1308C90.8625 56.1308 90.8594 56.1307 90.8563 56.1307C92.4224 56.2702 133.147 56.3722 105.7 56.2319C104.842 56.2249 106.002 56.2673 102.527 56.2396C102.299 56.2376 102.185 56.2093 101.481 56.203C99.9696 56.1967 90.999 56.0802 89.3186 56.0671C89.3039 56.0621 89.1916 56.0558 88.9532 56.0478C86.9025 55.9857 80.1051 55.9476 81.3573 55.9841ZM313.25 102.146C312.338 102.102 309.41 102.043 309.101 102.084C310.56 102.148 315.405 102.252 313.25 102.146ZM112.194 97.2035C110.276 97.156 105.527 97.2009 106.964 97.2404C107.824 97.2621 114.386 97.256 112.194 97.2035ZM283.595 101.34C294.569 101.717 286.21 101.412 287.892 101.389C286.447 101.373 284.995 101.356 283.595 101.34ZM31.0004 52.3307C32.7115 52.6365 30.6234 52.3346 28.9513 51.9553C28.4234 51.8369 30.0466 52.1595 31.0004 52.3307ZM62.1281 5.96348C60.6913 6.36182 67.67 4.36308 64.9582 5.14342C64.8212 5.17776 62.2201 5.93152 62.1281 5.96348ZM21.361 38.2201C21.0819 39.348 20.8206 40.0645 20.236 43.3031C21.1786 38.5247 20.1631 42.9359 21.361 38.2201ZM384.451 103.171C384.471 103.174 384.487 103.176 384.484 103.179C384.462 103.177 384.453 103.174 384.451 103.171ZM215.261 99.2928C213.895 99.1847 210.058 99.083 211.199 99.1844C211.309 99.1938 214.699 99.3281 215.261 99.2928ZM89.1079 56.0774C88.9284 56.0685 89.0199 56.066 89.3186 56.0671C89.3324 56.0719 89.255 56.0749 89.1079 56.0774ZM235.858 99.8301C235.723 99.8785 241.535 100.071 241.785 100.072C245.151 100.08 238.251 99.8971 235.858 99.8301ZM73.6165 97.3352C73.3166 97.3454 75.2486 97.4186 76.4555 97.355C77.3866 97.3051 74.729 97.2948 73.6165 97.3352ZM25.885 28.0909C26.8493 26.5496 28.4683 24.5531 28.7967 24.2131C27.9553 25.1034 25.8418 28.108 25.885 28.0909ZM59.4064 6.79255C57.314 7.44508 52.6079 9.06624 49.6798 10.2967C49.6009 10.2401 57.4177 7.34411 59.4064 6.79255ZM76.3468 55.839C76.4794 55.8472 81.1139 55.979 80.4874 55.9315C79.5372 55.8671 75.055 55.7878 76.3468 55.839ZM82.6443 97.2539C84.6485 97.193 80.0913 97.1254 77.76 97.2559C76.6299 97.3176 82.3556 97.2598 82.6443 97.2539ZM203.283 98.871C200.545 98.8343 207.326 99.0858 208.276 99.0443C207.015 99.0039 204.255 98.8839 203.283 98.871ZM296.384 101.507C287.803 101.055 292.468 101.566 293.999 101.576C294.215 101.578 296.594 101.518 296.384 101.507ZM189.027 125.91C190.213 125.963 185.791 125.729 185.174 125.72C184.82 125.711 188.287 125.874 189.027 125.91ZM426.389 94.4905C426.063 94.708 425.731 94.9202 425.395 95.1268C425.645 94.9694 425.973 94.7636 426.389 94.4905ZM178.473 97.9785C184.508 98.3941 183.887 98.172 184.411 98.1854C185.549 98.2162 188.195 98.356 190.348 98.3988C187.883 98.3669 185.421 98.3359 182.966 98.3062C184.899 98.368 201.79 98.9097 202.139 98.8782C202.647 98.8276 197.338 98.7057 197.185 98.6964C196.963 98.6825 196.138 98.484 195.647 98.4645C194.852 98.43 180.699 98.0705 178.473 97.9785ZM278.363 101.017C279.747 101.08 280.137 101.166 280.778 101.167C280.997 101.167 281.034 101.098 281.779 101.101C280.644 101.074 279.505 101.046 278.363 101.017ZM167.583 97.971C165.868 97.8531 173.56 98.0554 173.815 98.0716C175.133 98.156 168.975 98.0657 167.583 97.971ZM232.949 99.6838C232.67 99.6705 226.749 99.4724 226.794 99.5204C228.365 99.6008 236.271 99.8424 232.949 99.6838ZM282.697 101.123C284.725 101.191 288.718 101.378 288.261 101.258C288.258 101.258 288.254 101.258 288.251 101.258C286.376 101.213 284.52 101.168 282.697 101.123ZM89.7258 97.0067C85.834 96.8969 87.6577 97.0554 91.1371 97.08C92.1944 97.0115 90.3655 97.0249 89.7258 97.0067ZM77.4068 97.0436C76.2306 97.0228 65.4348 97.3062 67.018 97.3448C67.7612 97.3432 73.8531 97.1395 74.1967 97.1421C74.6424 97.1413 72.6102 97.2581 76.0076 97.1793C75.8048 97.1557 77.7784 97.0454 77.4068 97.0436ZM86.5106 96.9428C82.6956 96.8743 81.8767 97.0803 84.711 97.0494C85.8244 97.0384 87.0577 96.9532 86.5106 96.9428ZM102.158 96.9003C100.758 96.8793 97.0807 96.8541 94.6067 96.9291C97.9272 96.9235 101.32 96.9279 104.779 96.9413C105.178 96.9044 103.376 96.9178 102.148 96.9003C102.151 96.9003 102.155 96.9003 102.158 96.9003ZM81.635 0.960593C78.6614 1.62328 85.4921 0.101201 85.8009 0.0442735C86.6607 -0.142875 82.9577 0.661346 81.635 0.960593ZM212.699 128.177C213.602 128.316 214.238 128.408 215.959 128.731C214.266 128.392 212.179 128.081 210.453 127.86C209.013 127.702 211.864 128.042 212.699 128.177ZM219.69 129.712C219.448 129.665 220.794 129.991 217.605 129.138C216.925 128.983 217.518 129.096 218.569 129.374C218.828 129.444 219.11 129.525 219.398 129.616C219.695 129.708 220.183 129.876 220.542 130.027C220.923 130.186 221.252 130.346 221.566 130.543C222.034 130.838 222.349 131.158 222.473 131.5C223.476 134.177 223.921 137.185 224.021 138.178C223.851 136.58 223.324 133.781 222.47 131.501C222.377 131.244 222.177 131.002 221.896 130.779C221.771 130.676 221.545 130.53 221.464 130.483C221.357 130.42 221.245 130.358 221.13 130.299C220.667 130.063 220.147 129.865 219.69 129.712ZM223.505 149.825C223.535 149.976 224.177 145.258 224.137 144.699C224.34 141.809 223.81 149.077 223.505 149.825ZM223.366 134.745C223.77 136.614 223.113 133.326 222.399 131.527C222.315 131.298 222.143 131.101 221.982 130.954C221.939 130.923 222.265 131.162 222.401 131.526C222.819 132.6 223.324 134.513 223.366 134.745ZM51.8974 8.92401C49.6403 9.74262 47.6218 10.6014 51.0955 9.23725C51.2596 9.17384 51.9942 8.8887 51.8974 8.92401ZM224.097 145.208C224.254 142.987 223.922 147.918 223.584 149.368C223.6 149.511 224.122 145.551 224.097 145.208ZM50.2942 9.48173C47.2759 10.6561 48.3696 10.29 48.7343 10.1362C50.2703 9.47299 55.6053 7.56817 56.7167 7.24093C48.6807 9.96294 51.7128 8.99258 50.2942 9.48173ZM37.0207 16.117C34.5079 17.7401 40.9602 13.6199 42.313 13.06C40.9676 13.7155 37.7275 15.6157 37.0207 16.117ZM24.2913 28.9153C23.3709 30.2628 21.3822 34.6404 21.1819 35.4316C21.7108 33.7336 23.8865 29.4713 24.2913 28.9153ZM22.5239 32.1217C21.4597 34.415 21.2874 34.9962 22.4473 32.3296C22.495 32.226 22.565 32.0378 22.5239 32.1217ZM18.6298 45.7287C18.3886 47.3525 18.2733 49.2835 18.5603 46.5849C18.6557 45.7943 18.6566 45.5582 18.6298 45.7287ZM46.5367 10.9645C44.3915 11.9001 41.63 13.2378 46.2124 11.1269C44.6094 11.8371 43.0125 12.6054 41.4357 13.4464C47.3421 10.472 46.9793 10.825 48.6974 10.0708C51.1773 9.08576 50.9727 9.21373 50.4883 9.39982C52.4832 8.53213 61.254 5.68031 66.4058 4.42229C61.8834 5.55948 54.5872 7.7416 50.3043 9.43211C49.0526 9.91159 47.9017 10.3888 46.8494 10.8415C45.1918 11.5638 46.6578 10.9114 46.5453 10.9608C46.5424 10.962 46.5396 10.9632 46.5367 10.9645ZM33.5075 54.2619C36.0369 54.6925 36.2605 54.6959 35.8366 54.6242C35.6022 54.5827 35.148 54.5073 34.6084 54.4171C33.9857 54.3144 33.2108 54.1845 32.5105 54.0641C32.3868 54.0441 33.3752 54.2402 33.5075 54.2619ZM223.141 151.529C223.814 148.383 223.792 147.923 223.956 146.618C223.99 145.318 224.666 143.065 223.652 136.406C224.434 142.002 223.733 136.711 223.879 137.803C224.041 138.677 224.213 141.99 224.109 140.067C224.696 142.622 222.99 153.569 222.488 153.957C222.489 153.954 222.49 153.95 222.491 153.947C222.393 154.211 222.672 153.545 223.141 151.529ZM24.1663 28.8679C23.2959 30.2472 23.0041 30.8258 21.6749 33.7397C20.9388 35.7541 21.8711 32.9298 23.7097 29.6872C25.4986 26.405 28.5095 23.0223 29.2224 22.3728C26.2422 25.5426 25.5651 26.8808 25.5794 26.794C25.6229 26.7393 26.543 25.4196 27.693 24.0821C30.0013 21.4105 33.115 18.602 28.7562 22.824C32.251 19.2452 33.0636 18.9239 32.8366 19.0271C32.6453 19.1677 31.6546 19.9926 32.2383 19.4916C33.4362 18.337 38.1267 15.2077 37.9117 15.3859C37.9091 15.3876 37.9064 15.3892 37.9038 15.3909C34.9708 17.2063 32.197 19.3105 29.741 21.7557C32.2017 19.4119 27.0805 24.3229 25.7772 26.3793C25.2081 27.1835 24.6666 28.0201 24.1663 28.8679ZM38.0732 15.3512C37.6949 15.4185 31.6607 19.8749 32.1197 19.6676C32.7181 18.7772 41.6981 13.0864 38.0732 15.3512ZM68.7241 3.82545C66.1072 4.46506 62.1373 5.54391 60.7253 5.97228C63.296 5.21406 67.3027 4.1768 68.7241 3.82545ZM82.8639 58.1051C86.3326 58.1929 75.6814 57.814 78.7575 57.9578C78.8968 57.9665 82.6818 58.1024 82.8639 58.1051ZM20.8421 35.968C19.7329 39.307 20.2599 37.7265 21.1226 35.2767C21.1732 35.1359 20.8956 35.814 20.8421 35.968ZM223.977 146.379C224.249 146.161 224.125 136.785 223.407 135.214C223.524 135.666 224.091 138.493 224.153 141.22C224.257 143.946 223.961 146.506 223.977 146.379ZM73.2984 2.71928C68.0939 3.8702 61.1453 5.79805 60.3713 6.05268C59.614 6.27392 60.7994 5.91764 60.6271 5.96813C60.2263 6.02434 52.2249 8.60407 51.8565 8.81439C51.5824 8.91545 53.0213 8.40647 51.3897 9.0104C54.514 7.60085 69.3156 3.55399 70.1149 3.47479C70.7154 3.33541 66.1874 4.39485 73.2894 2.72136C73.2924 2.72066 73.2954 2.71997 73.2984 2.71928ZM58.4783 6.61512C60.4963 5.99912 54.8502 7.73666 53.519 8.23568C50.5415 9.25209 58.1809 6.64618 58.4783 6.61512ZM45.1939 11.5283C44.5369 11.7522 39.1456 14.5472 38.7345 14.8923C41.1849 13.3612 46.5895 10.8865 45.1939 11.5283ZM37.179 54.9812C38.6365 55.2017 43.3122 55.7687 43.3851 55.7474C41.9823 55.6107 37.3143 54.9947 37.179 54.9812ZM206.454 127.827C209.003 128.056 203.03 127.536 201.242 127.441C201.03 127.408 206.331 127.8 206.454 127.827ZM20.5155 36.4876C20.3204 36.9527 18.6093 42.3321 18.1387 47.9376L18.1685 48.2209C18.5428 49.5741 20.1395 50.5994 20.9799 51.0419C21.9773 51.592 23.4363 52.1282 24.1679 52.3671C25.9257 52.9535 27.7459 53.3717 28.3422 53.5082C27.7562 53.3686 25.9331 52.9452 24.174 52.3545C23.4419 52.1135 21.9823 51.5751 20.9868 51.0242C20.1476 50.5814 18.5574 49.5538 18.1898 48.2143L18.1609 47.9397C18.6292 42.4495 20.2693 37.2068 20.4354 36.7899C20.5141 36.5468 20.5553 36.3731 20.5155 36.4876ZM50.097 9.42298C51.7053 8.79614 52.8121 8.42701 53.0157 8.35416C55.0314 7.62415 59.3283 6.30775 58.3918 6.60571C54.7123 7.62669 46.8437 10.6975 50.097 9.42298ZM38.4965 55.2972C41.8 55.7181 40.2508 55.5149 38.1516 55.2291C36.0669 54.946 33.5984 54.5351 34.3513 54.6735C34.465 54.703 37.7788 55.2123 38.4965 55.2972ZM21.2537 34.4644C21.5 33.7967 23.4569 28.9004 26.9254 24.7264C30.2968 20.4793 34.9159 17.2421 36.1977 16.4047C33.931 17.9806 32.1171 19.2928 29.4718 21.9116C28.7689 22.6279 28.9682 22.447 28.8925 22.5237C27.7098 23.7982 28.5812 22.8319 27.8647 23.6309C27.6339 23.8729 25.215 26.6922 23.5839 29.6393C21.9068 32.5531 20.9088 35.4285 21.2537 34.4644ZM51.0203 9.06633C51.9746 8.5503 63.3683 5.05224 63.8327 5.03101C67.261 4.0144 51.8189 8.51435 51.0203 9.06633ZM20.6087 36.111C21.0061 34.0191 25.7279 25.6293 22.5988 31.412C22.3032 31.9659 21.1751 34.3924 20.6087 36.111ZM37.8038 55.2517C37.9589 55.2745 39.7022 55.5187 41.5644 55.7386C43.3486 55.9519 44.8901 56.111 44.9802 56.112C44.2294 56.0835 34.1381 54.7455 37.8038 55.2517ZM34.4849 54.8077C34.5771 54.8225 34.1881 54.7517 34.2121 54.7483C34.2604 54.7474 34.6254 54.8074 36.1059 55.0338C36.3856 55.0676 36.7045 55.1909 40.8305 55.6972C41.2529 55.7477 41.807 55.8069 42.2336 55.8496C42.6072 55.8868 42.8806 55.9113 42.8383 55.9057C40.7333 55.6471 36.4848 55.1078 34.0603 54.709C31.2903 54.2487 30.1461 54.0732 34.4849 54.8077ZM51.2204 8.9815C50.6159 9.20107 52.0665 8.63968 53.3867 8.19299C53.95 8.00458 52.9012 8.36107 51.2204 8.9815ZM59.1807 57.327C55.259 57.1061 67.5047 57.8963 68.1462 57.8913C67.6663 57.8577 59.7539 57.3751 59.1807 57.327ZM200.354 127.469C200.357 127.469 200.36 127.469 200.363 127.47C197.108 127.281 199.122 127.386 198.974 127.377C191.848 126.996 193.863 127.147 192.733 127.095C190.424 127.016 190.602 126.981 186.788 126.883C193.272 127.063 187.337 126.884 187.184 126.87C186.435 126.788 195.765 127.167 199.187 127.38C199.658 127.402 196.241 127.208 197.43 127.267C201.156 127.409 212.987 128.387 200.354 127.469ZM54.4004 7.8455C55.8165 7.23736 66.9926 4.13646 64.0334 4.9706C63.5431 4.99516 52.2494 8.49841 54.4004 7.8455ZM385.399 97.2534C388.102 97.1434 381.828 97.1607 380.436 97.2129C379.828 97.2458 384.268 97.3064 385.399 97.2534ZM340.192 96.5965C336.882 96.5434 333.499 96.754 337.529 96.7955C337.94 96.7996 340.558 96.6434 340.192 96.5965ZM329.048 57.4629C332.573 57.5163 332.353 57.3512 329.776 57.3803C328.861 57.3909 328.936 57.4613 329.048 57.4629ZM422.55 89.9531C422.296 90.1697 419.099 91.8599 419.204 91.8128C420.541 91.3151 424.27 88.9256 422.55 89.9531ZM327.921 57.4989C330.011 57.4461 326.43 57.3639 324.005 57.5103C325.271 57.4855 327.663 57.5048 327.921 57.4989ZM18.6662 43.0904C18.4993 44.034 18.1953 45.9046 17.9983 47.9248L18.0339 48.2627C18.3043 49.1925 19.0949 49.9981 19.9093 50.5582C20.4952 50.9698 21.1627 51.3228 21.8 51.613C21.8877 51.6574 21.3097 51.4233 20.5722 50.9982C20.0435 50.7 18.3958 49.6608 18.0191 48.2673L17.9829 47.9234C18.1746 45.9519 18.5 43.9727 18.6662 43.0904ZM354.276 96.9627C351.096 96.9852 357.89 97.1453 357.248 97.0409C357.171 97.0352 354.408 96.9621 354.276 96.9627ZM217.627 59.1551C219.902 59.0815 212.675 59.1181 214.665 59.1681C214.764 59.17 217.503 59.1592 217.627 59.1551ZM186.052 59.4789C187.8 59.4788 195.144 59.4044 192.283 59.3919C191.844 59.3907 186.186 59.4417 186.052 59.4789ZM192.539 127.099C193.509 127.15 187.949 126.948 187.277 126.934C186.939 126.919 191.324 127.024 192.539 127.099ZM351.424 57.322C353.23 57.3041 357.988 57.3284 358.752 57.2826C356.659 57.2841 350.724 57.2246 351.424 57.322ZM368.534 97.123C365.899 96.9961 361.031 96.9532 362.228 97.1125C367.511 97.1548 361.679 96.9826 368.534 97.123ZM316.466 57.7421C317.924 57.7306 319.025 57.5939 318.862 57.5901C317.299 57.555 315.014 57.7137 316.466 57.7421ZM420.805 66.3415C420.9 66.3907 424.291 68.7577 423.85 68.4334C423.737 68.2597 420.816 66.2429 420.805 66.3415ZM72.5376 58.2456C74.7159 58.3737 68.0361 58.0757 66.1906 57.9361C65.2383 57.8517 72.2137 58.2361 72.5376 58.2456ZM276.75 58.3107C276.548 58.3869 283.686 58.2313 280.874 58.2152C280.173 58.2112 276.827 58.285 276.75 58.3107ZM207.974 59.4059C212.795 59.2768 192.547 59.4491 197.869 59.4819C198.247 59.486 207.558 59.4184 207.974 59.4059ZM174.929 59.6594C175.752 59.6619 175.361 59.86 171.91 59.8026C171.455 59.7954 173.583 59.7331 173.208 59.7233C172.989 59.7192 165.468 59.7277 165.132 59.7317C164.761 59.7381 165.198 59.797 164.822 59.8051C164.397 59.8145 159.801 59.7753 157.416 59.7778C152.834 59.7837 152.344 59.8295 151.969 59.8301C150.879 59.8303 149.048 59.7957 146.856 59.7924C135.786 59.7896 118.714 59.6752 110.004 59.4261C117.747 59.5916 125.402 59.6329 133.055 59.6674C130.75 59.7529 144.58 59.6484 136.484 59.7224C140.258 59.7594 172.153 59.6841 174.92 59.6595C174.923 59.6594 174.926 59.6594 174.929 59.6594ZM327.136 96.2284C329.11 96.1732 318.884 95.9551 317.929 96.0476C319.353 96.1001 326.881 96.2352 327.136 96.2284ZM375.261 96.6999C376.282 96.679 377.009 96.4943 382.159 96.5545C382.164 96.5544 382.168 96.5544 382.173 96.5543C383.7 96.5686 381.962 96.6347 382.241 96.6492C382.378 96.6581 386.991 96.6972 383.148 96.762C377.068 96.8393 382.462 96.6231 379.411 96.6415C379.115 96.6484 373.217 96.7606 373.52 96.7809C373.562 96.7842 375.377 96.7633 375.666 96.7726C376.775 96.809 376.234 96.8716 376.39 96.8744C376.791 96.8967 386.343 96.7161 387.449 96.7622C388.079 96.8287 372.79 97.0012 372.01 96.9465C371.618 96.9352 371.756 96.7626 371.387 96.7441C371.245 96.7386 365.186 96.7628 364.312 96.7347C364.074 96.7278 363.891 96.721 363.757 96.7156C364.236 96.7471 363.042 96.7481 361.725 96.7313C360.524 96.716 359.2 96.683 359.284 96.6538C359.371 96.6321 363.139 96.6896 363.342 96.6948C363.404 96.6972 363.458 96.7001 363.509 96.7023C362.841 96.6435 375.62 96.7213 372.902 96.6058C376.786 96.5593 372.37 96.7489 375.261 96.6999ZM393.226 96.3162C392.868 96.3488 392.503 96.3809 392.131 96.4123C394.116 96.3291 397.142 96.182 399.156 96.0091C403.636 95.633 408.297 94.9276 412.713 93.6363C414.419 93.1165 412.386 93.6446 414.68 92.9326C416.457 92.3696 418.402 91.6229 417.471 92.0447C417.234 92.1863 413.633 93.4511 411.769 93.9187C406.213 95.3283 407.555 94.9809 407.247 95.0844C406.918 95.1705 403.228 95.728 401.279 95.9206C400.536 96.0046 399.838 96.0749 399.167 96.1361C397.577 96.2819 395.803 96.3996 393.849 96.4872C392.19 96.562 389.765 96.6355 386.784 96.6585C390.828 96.5048 388.845 96.4308 393.226 96.3162ZM246.412 59.0055C246.164 59.056 241.826 59.0793 240.243 59.1092C240.493 59.0595 244.841 59.0361 246.412 59.0055ZM0.347402 115.85C0.668443 116.741 -0.440435 113.809 0.469745 111.115C1.30344 108.485 2.93976 106.95 1.90738 108.154C1.69574 108.45 0.785058 109.695 0.338031 111.403C-0.158781 113.131 0.11417 115.065 0.347402 115.85ZM39.3477 94.2759C40.7391 94.1071 35.1039 94.6518 35.1937 94.7159C35.1657 94.7275 39.1236 94.2916 39.3477 94.2759ZM406.31 61.0539C406.036 60.9676 402.702 60.1967 402.552 60.1793C400.329 59.5094 411.545 62.3046 406.31 61.0539ZM93.9572 91.8174C89.3606 91.9229 103.231 91.7929 98.9848 91.7705C98.7604 91.7676 94.1656 91.8105 93.9572 91.8174ZM113.397 91.6685C112.265 91.6717 107.352 91.663 107.297 91.6899C107.188 91.7291 112.818 91.7379 113.397 91.6685ZM315.486 58.0797C315.962 58.1702 309.561 58.1793 307.283 58.2238C306.78 58.1344 313.149 58.1209 315.486 58.0797ZM356.704 57.8544C329.089 58.0123 335.314 57.7468 358.337 57.8082C358.367 57.8739 358.442 57.8524 356.704 57.8544ZM321.5 58.0664C322.502 57.992 325.577 57.9759 327.637 57.9602C327.259 58.0075 323.032 58.0367 321.5 58.0664ZM9.05713 125.973C8.27334 125.498 6.21793 124.079 4.64309 122.568C3.05323 121.089 1.99739 119.495 2.48597 120.145C2.59227 120.319 4.19068 122.246 5.92242 123.633C7.63026 125.056 9.34947 126.137 9.05713 125.973ZM404.16 60.6366C404.773 60.8012 396.928 59.3159 396.342 59.3034C393.933 58.8323 403.54 60.3831 404.16 60.6366ZM276.49 58.7276C275.046 58.8193 270.823 58.849 268.188 58.8886C269.347 58.8125 274.244 58.7609 276.49 58.7276ZM295.715 58.4917C295.554 58.4967 291.851 58.5449 291.68 58.5443C288.645 58.5198 299.114 58.3823 295.715 58.4917ZM204.909 127.888C204.823 127.877 201.851 127.671 201.815 127.674C199.297 127.489 207.826 128.087 204.909 127.888Z" fill="black" fill-opacity="0.28"/>
</svg>
